<svg width="94" height="175" fill="none" xmlns="http://www.w3.org/2000/svg"><g filter="url(#a)"><path d="M18.6 82.81c13.97-3.982 14.998-15.632 14.694-22.951 2.928.333 5.811.783 8.558 1.388.005-.016 1.064 20.213-23.251 21.563z" fill="#DBC8AA" style="mix-blend-mode:multiply"/><path d="M71.633 145.675c-.03.116-.065.239-.1.361l-3.233.866a4.833 4.833 0 0 1-2.822-1.255c-.352-.36-.628-.8-.809-1.289a3.925 3.925 0 0 1-.235-1.543 8.426 8.426 0 0 1 .476-2.56s-2.69-.727-1.256-3.11c0 0-17.734-25.399-13.057-27.953a1.401 1.401 0 0 1 1.135-.067c5.107 1.666 14.49 26.704 14.49 26.704s3.04.556 1.601 3.093c.02 0 5.33.839 3.81 6.753z" fill="#0E537E"/><path d="M71.633 145.675h-6.156c-.352-.36-.628-.8-.808-1.289a3.93 3.93 0 0 1-.235-1.543 8.612 8.612 0 0 1 3.83-1.555 3.507 3.507 0 0 0-.768-1.148 3.149 3.149 0 0 0-1.122-.718c.194-.236.327-.525.386-.836.06-.311.044-.633-.046-.935a1.95 1.95 0 0 0-.548-.766 1.724 1.724 0 0 0-.815-.384c-3.282-9.803-7.872-19.019-13.62-27.348 5.108 1.666 14.491 26.704 14.491 26.704s3.04.555 1.601 3.093c.02-.028 5.33.811 3.81 6.725z" fill="#BFD4EA" style="mix-blend-mode:multiply"/><path d="M89.134 153.66c-.233-5.231-2.853-9.479-6.141-10.401a5.5 5.5 0 0 0-4.008 0l.223.495c-2.842 1.577-4.763 5.819-4.56 10.695.228 5.142 2.761 9.329 5.969 10.345l-.507.355a4.298 4.298 0 0 0 3.248-.277c3.511-.956 6.009-5.676 5.776-11.212z" fill="#7197D5"/><path d="M80.445 165.142c4.002-.213 7.03-5.294 6.763-11.35-.268-6.056-3.729-10.793-7.731-10.581-4.003.212-7.03 5.293-6.763 11.349.267 6.057 3.728 10.794 7.73 10.582z" fill="#002638"/><path d="M85.014 156.448c-.28 2.165-1.17 4.18-2.546 5.763-1.376 1.584-3.17 2.655-5.13 3.066-3.866.78-7.816.933-11.724.455a48.648 48.648 0 0 1-5.366-.888l-.86-19.436c5.725-2.289 11.907-2.853 17.9-1.632.29.063.569.135.836.216 1.87.569 3.537 1.748 4.78 3.381 1.245 1.632 2.005 3.641 2.181 5.76.09 1.104.067 2.216-.07 3.315z" fill="#25669C"/><path d="M85.014 156.448c-.279 2.165-1.17 4.18-2.546 5.763-1.376 1.584-3.17 2.655-5.13 3.066-3.866.78-7.816.933-11.724.455 4.773-.784 9.097-3.522 12.1-7.663a15.17 15.17 0 0 0 2.588-5.553 10.09 10.09 0 0 0-.506-6.153 7.168 7.168 0 0 0-1.667-2.332c1.87.569 3.537 1.748 4.781 3.381 1.244 1.632 2.004 3.641 2.18 5.759.087 1.092.061 2.191-.076 3.277z" fill="#BFD4EA" style="mix-blend-mode:multiply"/><path d="M69.505 154.704c-.233-5.236-2.847-9.479-6.135-10.401h-.026a5.531 5.531 0 0 0-4.007 0l.222.494c-2.842 1.583-4.762 5.826-4.56 10.696.228 5.147 2.757 9.334 5.964 10.35l-.507.35a4.26 4.26 0 0 0 3.248-.278c3.536-.955 6.045-5.675 5.801-11.211z" fill="#002638"/><path d="M67.58 154.804c.269 6.058-2.756 11.139-6.759 11.35-1.523.046-3.005-.551-4.14-1.666a9 9 0 0 1-1.16-1.327c-.33-.458-.627-.944-.886-1.455a14.607 14.607 0 0 1-1.45-4.925 18.52 18.52 0 0 1-.096-1.211c-.268-6.058 2.757-11.139 6.764-11.35.397-.022.794.005 1.186.078 1.26.275 2.417.955 3.324 1.954.369.389.708.811 1.013 1.261.35.528.661 1.085.932 1.666a15.303 15.303 0 0 1 1.272 5.625z" fill="#25669C"/><path d="M65.979 154.304c.228 5.164-2.33 10.084-5.746 10.268-3.415.183-6.348-3.51-6.586-8.68-.239-5.17 2.335-9.845 5.75-10.028 3.415-.184 6.349 3.276 6.582 8.44z" fill="#7197D5"/><g style="mix-blend-mode:soft-light" opacity=".5" fill="#fff"><path d="m64.373 146.258-9.728 15.454a14.62 14.62 0 0 1-1.45-4.926l7.854-12.483c1.26.276 2.418.956 3.324 1.955zM66.308 149.207l-9.627 15.287a9 9 0 0 1-1.16-1.327l9.845-15.649c.354.535.669 1.1.942 1.689z"/></g><path d="M27.275 145.086v9.729c-.001.693.107 1.38.319 2.032a28.985 28.985 0 0 1 1.429 9.49H8.569s1.195-2.97 6.617-4.792a7.181 7.181 0 0 0 2.609-1.599l1.996-1.86a4.475 4.475 0 0 0 1.197-1.893c.24-.735.299-1.526.171-2.294l-1.439-8.802 7.555-.011z" fill="#BD5331"/><path d="m28.06 158.43-4.96 2.593-3.653-2.632-1.652 1.538a7.184 7.184 0 0 1-2.61 1.6c-5.42 1.821-6.616 4.792-6.616 4.792h20.454a28.39 28.39 0 0 0-.963-7.891z" fill="#D97C2F"/><path d="m43.767 145.103 1.778 10.912a5.611 5.611 0 0 1 0 1.665l-1.175 8.691h15.66s-.212-2.566-.957-3.265c-.745-.7-2.873-2.455-2.873-2.455l-3.197-3.643c-.72-.818-1.151-1.891-1.216-3.026l-.506-8.885-7.514.006z" fill="#BD5331"/><path d="M53.165 157.142a7.134 7.134 0 0 0-2.99.878 7.828 7.828 0 0 0-2.43 2.104l-2.311-1.327-1.014 7.557h15.661s-.212-2.565-.957-3.265c-.745-.7-2.873-2.454-2.873-2.454l-3.086-3.493z" fill="#D97C2F"/><path d="m19.482 29.229 6.719-7.874 8.147-.05 4.55 7.946-3.871 26.327-15.165-.011-.38-26.338z" fill="#D4B5A5"/><path d="m24.7 30.084 4.667-4.26 5.533 5.96M29.367 27.84l-2.994 25.217" stroke="#fff" stroke-width=".46" stroke-miterlimit="10"/><path d="m42.941 68.977 12.565 77.364-14.384-.016-14.764-69.363 4.377 70.229-14.54-.011-4.034-81.53 6.622-9.95 20.865.605 3.293 12.672z" fill="#142216"/><path d="m42.941 68.977-3.293-12.672-20.865-.605-6.622 9.95.101 2.033c4.525.1 19.436.85 31.464 6.142l-.785-4.848z" fill="#215681" style="mix-blend-mode:multiply" opacity=".57"/><path d="m26.231 76.996-1.54-6.692.005-.028 1.084-13 .254.023-1.085 12.983 1.53 6.647-.248.067z" fill="#F7EEDF"/><path d="m20.166 71.615 13.69.01" stroke="#BFD4EA" stroke-miterlimit="10" style="mix-blend-mode:multiply"/><path d="m24.802 68.971-.78-11.678.253-.016.786 11.672-.259.022zM20.541 147.191l-3.77-84.883.26-.017 3.769 84.883-.259.017zM48.828 146.358 34.9 62.341l.248-.05 13.934 84.017-.254.05z" fill="#F7EEDF"/><path d="M38.391 54.545H18.398v3.493H38.39v-3.493z" fill="#1B2536"/><path d="M28.891.298c1.623.301 3.14 1.08 4.39 2.254 1.25 1.174 2.184 2.698 2.704 4.41.638 1.882.755 3.809 2.27 4.997a4.03 4.03 0 0 1 1.308 1.677 4.46 4.46 0 0 1 .328 2.177 3.912 3.912 0 0 0 .206 1.76c.201.56.528 1.054.95 1.438H18.798s1.236-2.054 1.013-3.803c-.223-1.75-1.013-2.938-.436-4.732.578-1.793 1.317-2.604.243-4.114-1.555-2.222.887-7.691 9.272-6.064z" fill="#142216"/><path d="M28.182 4.285c0 .755.582 5.075 3.78 6.774l.238 2.421 2.148 7.825-5.037 4.053-3.11-4.003V17.84c-2.078.205-3.805-1.111-3.937-3.565-.132-2.455-.026-4.582-.664-5.898 0-.016 3.253-.072 6.582-4.092z" fill="#BD5331"/><path d="M29.935 13.175c0 .248-.067.491-.193.697a1.175 1.175 0 0 1-.514.463c-.21.095-.44.12-.662.071a1.117 1.117 0 0 1-.586-.344c-.16-.175-.269-.399-.313-.642a1.368 1.368 0 0 1 .065-.725c.087-.23.233-.425.422-.563.188-.138.41-.212.636-.212.303 0 .595.132.81.368.214.235.335.554.335.887z" fill="#D65353"/><path d="M26.54 17.767a4.731 4.731 0 0 0 2.058-.623 5.207 5.207 0 0 0 1.64-1.498" stroke="#422424" stroke-width=".46" stroke-miterlimit="10"/><path d="M34.176 11.665c-.563 1.388-1.804 2.132-2.782 1.666-.978-.467-1.312-1.983-.755-3.365.558-1.383 1.804-2.133 2.777-1.666.973.466 1.317 1.982.76 3.365z" fill="#BD5331"/><path d="M31.242 11.731s.36-2.104 2.027-2.515M32.66 10.943l-.252-1.3" stroke="#422424" stroke-width=".46" stroke-miterlimit="10"/><path d="M34.029 13.047a.909.909 0 0 1-.131.473.795.795 0 0 1-.35.313.711.711 0 0 1-.448.047.757.757 0 0 1-.397-.234.878.878 0 0 1-.21-.436.925.925 0 0 1 .046-.492.837.837 0 0 1 .288-.38.727.727 0 0 1 .978.109.854.854 0 0 1 .166.276.917.917 0 0 1 .058.324z" stroke="#fff" stroke-width=".46" stroke-miterlimit="10"/><path d="m23.82 11.515.258-.411a.59.59 0 0 0-.232-.164.545.545 0 0 0-.275-.03.565.565 0 0 0-.3.161.653.653 0 0 0-.17.316.696.696 0 0 0 .017.367c.038.118.107.22.198.296a.542.542 0 0 0 .64.043.619.619 0 0 0 .231-.267.693.693 0 0 0 .058-.361v-.072l-.425.122zM27.437 10.887l.253-.41a.581.581 0 0 0-.23-.169.535.535 0 0 0-.276-.032.569.569 0 0 0-.306.161.66.66 0 0 0-.174.32.703.703 0 0 0 .017.371c.038.12.108.224.2.3a.547.547 0 0 0 .648.042c.1-.064.181-.158.232-.272a.7.7 0 0 0 .057-.366s0-.045-.026-.067l-.395.122z" fill="#1B2536"/><path d="M25.142 11.387v1.255c0 .567.598.877 1.262.394M25.34 14.147a2.537 2.537 0 0 0 1.636-.053c.528-.198.989-.567 1.322-1.058M27.863 12.764l.673.45" stroke="#422424" stroke-width=".46" stroke-miterlimit="10"/><path d="M26.074 9.021s1.454-.522 2.468-.127M22.735 9.793a2.41 2.41 0 0 1 1.94-.233" stroke="#732727" stroke-width=".97" stroke-linecap="round" stroke-linejoin="round"/><path d="m34.348 21.305-4.894 32.912a9.913 9.913 0 0 0 .293 4.26l1.936 6.563c.076.257.204.493.374.69.17.196.378.348.609.446a1.53 1.53 0 0 0 1.424-.12l9.576-6.053-4.15-6.919 5.497-21.24a6.608 6.608 0 0 0-.342-4.363c-.605-1.358-1.65-2.42-2.93-2.978l-7.393-3.198z" fill="#324B85"/><path d="m37.413 53.384-5.061 4.66M35.072 22.52l.462.773a8.348 8.348 0 0 1 1.149 3.986 8.423 8.423 0 0 1-.891 4.065L34.9 33.1l1.014 3.227a6.017 6.017 0 0 1-.304 4.28l-5.401 11.662" stroke="#1B2536" stroke-width=".46" stroke-miterlimit="10"/><path d="m39.516 53.068-6.389 13.2c.341.038.685-.041.983-.228l9.576-6.053-4.17-6.92zM39.663 36.753l.674 13.155 2.437-9.429-3.111-3.726z" fill="#1B2536"/><path d="m34.875 65.545 6.54 1.594-4.007-4.82-2.533 3.226z" fill="#BD5331"/><path d="m26.2 21.355-3.916 42.202a2.424 2.424 0 0 1-.691 1.5 2.032 2.032 0 0 1-1.432.605h-9.657s3.846-10.168 6.967-15.765l-.081-3.054-4.53 5.225c-.865.999-2.034 1.615-3.286 1.733-1.252.118-2.5-.272-3.508-1.094-1.045-.854-1.755-2.11-1.985-3.516a6.072 6.072 0 0 1 .744-4.053l9.804-16.62c1.108-1.88 2.725-3.333 4.626-4.154l6.946-3.01z" fill="#324B85"/><path d="M25.679 22.015c-1.12 1.833-4.12 4.593-1.804 10.329-2.401 4.637-2.883 10.895-1.135 18.564M12.49 49.042l.882-8.607" stroke="#1B2536" stroke-width=".46" stroke-miterlimit="10"/><path d="m28.881 48.148-15.21-.011-7.458-23.523 15.205.011 7.463 23.523z" fill="#DDD6D6"/><path d="m38.76 36.109 6.967 13.488-8.319 12.722 5.533 6.664 11.592-11.79c1.234-1.254 2.059-2.918 2.347-4.735a9.146 9.146 0 0 0-.75-5.326l-7.748-16.365c-1.29-2.723-3.432-4.846-6.034-5.98l-2.822-1.228-.765 12.55z" fill="#324B85"/><path d="m45.728 49.597 1.89-2.738" stroke="#1B2536" stroke-width=".46" stroke-miterlimit="10"/><path d="M6.993 37.558A9.14 9.14 0 0 1 8.99 35.31c.51-.381 1.043-.723 1.596-1.021a.697.697 0 0 1 .469-.078c.16.03.306.116.418.244l.76.883a.899.899 0 0 1 .101.994l-1.768 3.27s2.62-1.532 2.797-1.399c.177.134-.892 1.305-1.723 2.288-.334.402-.78.67-1.27.764a2.068 2.068 0 0 1-1.43-.247c-1.095-.639-2.275-1.744-1.946-3.449z" fill="#BD5331"/><path d="m8.548 37.23 3.066-2.61M9.648 38.724l2.533-3.376" stroke="#422424" stroke-width=".46" stroke-miterlimit="10"/></g><defs><filter id="a" x="0" y="0" width="93.149" height="174.393" filterUnits="userSpaceOnUse" color-interpolation-filters="sRGB"><feFlood flood-opacity="0" result="BackgroundImageFix"/><feColorMatrix in="SourceAlpha" values="0 0 0 0 0 0 0 0 0 0 0 0 0 0 0 0 0 0 127 0" result="hardAlpha"/><feOffset dy="4"/><feGaussianBlur stdDeviation="2"/><feComposite in2="hardAlpha" operator="out"/><feColorMatrix values="0 0 0 0 0 0 0 0 0 0 0 0 0 0 0 0 0 0 0.25 0"/><feBlend in2="BackgroundImageFix" result="effect1_dropShadow_99_996"/><feBlend in="SourceGraphic" in2="effect1_dropShadow_99_996" result="shape"/></filter></defs></svg>