<svg width="774" height="416" fill="none" xmlns="http://www.w3.org/2000/svg"><path d="M772.353 385.414c2.512 0-2.983-69.464-3.773-75.594-3.34-26.743-9.444-52.983-18.194-78.214-16.309-46.229-41.468-82.662-80.863-98.192-33.308-13.126-70.322-7.044-101.272 12.501-29.272 18.523-51.448 49.558-78.263 72.613-17.223 14.574-36.781 25.487-57.666 32.178-38.838 12.337-80.103 12.099-118.821-.686-61.164-20.746-111.406-75.401-183.615-62.155-3.082.565-6.131 1.202-9.147 2.031-48.662 12.765-69.62 48.08-87.058 85.499C17.263 310.59 6.756 348.008 0 385.414h772.353z" fill="#C0D76F"/><path d="M384.954 52.119h-.132a31.256 31.256 0 0 1-12.25-.373 52.823 52.823 0 0 1-11.077-3.966c-3.477-1.671-6.789-3.606-10.003-5.433l-9.563-5.698c-6.284-3.678-12.624-6.96-19.259-8.294-6.648-1.321-13.503-.512-19.741 2.332-6.331 2.823-11.755 7.643-15.585 13.847-3.853 6.25-6.03 13.558-6.284 21.095v.878c0 3.498.505 7.128.647 10.998.154 4.111-.274 8.643-2.621 12.43-1.171 1.922-2.851 3.407-4.815 4.254a7.85 7.85 0 0 1-6.273.096 6.247 6.247 0 0 1-2.654-2.187 8.405 8.405 0 0 1-1.349-3.222 8.13 8.13 0 0 1 .11-3.606c.307-1.219.979-2.29 1.908-3.04.232-.18.517-.253.798-.206.28.047.532.211.704.458.158.25.223.557.183.858a1.235 1.235 0 0 1-.402.764 4.117 4.117 0 0 0-1.054 1.92 4.404 4.404 0 0 0 .045 2.24c.141.765.456 1.48.916 2.076a4.274 4.274 0 0 0 1.716 1.337 5.528 5.528 0 0 0 4.387-.289c1.421-.675 2.619-1.812 3.433-3.257 1.689-2.933 2.029-6.743 1.755-10.481-.274-3.739-1.02-7.765-1.02-12.02-.012-8.418 2.155-16.667 6.251-23.788a41.779 41.779 0 0 1 7.502-9.616c4.435-4.162 9.632-7.236 15.24-9.017a37.512 37.512 0 0 1 17.278-1.308c7.732 1.262 14.773 4.651 21.342 8.197l9.728 5.313c3.236 1.743 6.427 3.402 9.652 4.808a44.796 44.796 0 0 0 9.519 3.173c3.101.614 6.277.614 9.377 0h.066a3.718 3.718 0 0 1 1.593-.012c.527.11 1.028.334 1.476.658.447.324.832.742 1.132 1.23.299.487.508 1.034.614 1.61v.084a4.868 4.868 0 0 1-.033 1.736 4.684 4.684 0 0 1-.637 1.59 4.25 4.25 0 0 1-1.144 1.201c-.45.314-.951.528-1.476.63z" fill="#142216"/><path d="M384.954 52.119h-.132a31.256 31.256 0 0 1-12.25-.373 52.828 52.828 0 0 1-11.077-3.966c-3.477-1.671-6.789-3.606-10.003-5.433l-9.563-5.698c-6.284-3.678-12.624-6.96-19.259-8.294-6.648-1.321-13.503-.512-19.741 2.332-6.331 2.823-11.755 7.643-15.585 13.847-3.853 6.25-6.03 13.558-6.284 21.095.086-9.302 2.79-18.348 7.743-25.903 5.342-8.027 13.366-13.411 22.319-14.977 9.256-1.43 18.644 1.743 27.078 6.07 8.434 4.328 16.451 9.82 25.159 13.487 7.907 3.305 16.78 5.024 24.896 2.668a4.787 4.787 0 0 1-.679 3.322c-.619.965-1.562 1.62-2.622 1.823z" fill="#BFD4EA" style="mix-blend-mode:multiply"/><path d="M383.265 52.119h.131c4.071.685 8.221.559 12.251-.373a52.849 52.849 0 0 0 11.077-3.966c3.476-1.671 6.789-3.606 10.002-5.433l9.563-5.698c6.285-3.678 12.624-6.96 19.259-8.294 6.648-1.321 13.503-.512 19.741 2.332 6.336 2.813 11.768 7.624 15.607 13.823 3.853 6.25 6.031 13.558 6.284 21.096v.877c0 3.498-.504 7.128-.647 10.998-.153 4.111.274 8.643 2.621 12.429 1.17 1.92 2.845 3.405 4.804 4.255a7.87 7.87 0 0 0 6.284.096 6.248 6.248 0 0 0 2.654-2.187 8.403 8.403 0 0 0 1.349-3.222 8.13 8.13 0 0 0-.109-3.606c-.298-1.183-.941-2.226-1.832-2.969a1.022 1.022 0 0 0-.792-.2 1.08 1.08 0 0 0-.699.453c-.158.25-.223.557-.183.858.041.302.185.575.402.764.51.518.875 1.184 1.054 1.92a4.404 4.404 0 0 1-.045 2.24 4.86 4.86 0 0 1-.919 2.074 4.29 4.29 0 0 1-1.713 1.339 5.558 5.558 0 0 1-4.387-.288c-1.418-.677-2.612-1.814-3.422-3.258-1.689-2.933-2.029-6.743-1.755-10.481.274-3.739 1.02-7.765 1.02-12.02.006-8.417-2.161-16.664-6.251-23.788a41.78 41.78 0 0 0-7.502-9.616c-4.436-4.162-9.632-7.236-15.24-9.017a37.514 37.514 0 0 0-17.278-1.308c-7.732 1.262-14.773 4.651-21.342 8.197l-9.729 5.313c-3.235 1.743-6.426 3.402-9.651 4.808a44.694 44.694 0 0 1-9.651 3.077 24.113 24.113 0 0 1-9.377 0h-.066a3.785 3.785 0 0 0-3.04.693c-.89.662-1.504 1.684-1.709 2.841v.084a4.819 4.819 0 0 0 .658 3.302c.604.964 1.53 1.63 2.578 1.855z" fill="#142216"/><path d="M383.265 52.119h.131c4.071.685 8.221.559 12.251-.373a52.828 52.828 0 0 0 11.077-3.966c3.477-1.671 6.789-3.606 10.002-5.433l9.564-5.698c6.284-3.678 12.623-6.96 19.258-8.294 6.648-1.321 13.503-.512 19.742 2.332 6.336 2.813 11.767 7.624 15.606 13.823 3.854 6.25 6.031 13.558 6.284 21.096-.085-9.303-2.789-18.35-7.743-25.904-5.342-8.027-13.366-13.411-22.318-14.977-9.257-1.43-18.645 1.743-27.078 6.07-8.434 4.328-16.451 9.82-25.16 13.487-7.863 3.33-16.736 5-24.863 2.692a4.814 4.814 0 0 0 .666 3.298c.607.962 1.533 1.625 2.581 1.847z" fill="#BFD4EA" style="mix-blend-mode:multiply"/><path d="M379.372 252.012h-.439c-28.12 0-2.797-116.594-2.797-116.594h.79l4.496-89.501h4.629v89.549s20.772 115.344-6.679 116.546z" fill="#142216"/><path d="M379.372 252.012c5.812-17.2 7.918-35.843 7.819-54.258a463.12 463.12 0 0 0-4.551-63.334l1.491-86.664h1.92v87.746s20.772 115.308-6.679 116.51z" fill="#BFD4EA" style="mix-blend-mode:multiply"/><path d="M381.532 146.681c7.45 0 13.49-6.62 13.49-14.785s-6.04-14.785-13.49-14.785-13.49 6.62-13.49 14.785 6.04 14.785 13.49 14.785z" fill="#D97C2F"/><path d="M395.022 131.896c.003 3.224-.957 6.361-2.732 8.932-1.776 2.571-4.27 4.434-7.103 5.306a12.368 12.368 0 0 1-8.584-.478c-2.737-1.182-5.047-3.312-6.576-6.067 2.11 1.425 4.541 2.174 7.019 2.163 2.395 0 4.746-.7 6.813-2.026 2.066-1.326 3.773-3.231 4.946-5.52a15.915 15.915 0 0 0 1.725-7.501 15.853 15.853 0 0 0-1.968-7.43c1.974 1.321 3.604 3.175 4.735 5.385a15.914 15.914 0 0 1 1.725 7.236z" fill="#BFD4EA" style="mix-blend-mode:multiply"/><path d="m385.919 104.442-8.269.205c-4.453.108-4.475 7.716 0 7.608l8.269-.204c4.453-.12 4.518-7.717 0-7.609zM384.131 58.754c5.543 0 10.035-4.924 10.035-10.998 0-6.075-4.492-10.999-10.035-10.999-5.542 0-10.035 4.925-10.035 10.999 0 6.074 4.493 10.998 10.035 10.998z" fill="#D97C2F"/><path d="M384.131 55.292a6.406 6.406 0 0 1-3.79-1.26c-1.121-.821-1.996-1.989-2.512-3.355a8.14 8.14 0 0 1-.388-4.32 7.722 7.722 0 0 1 1.867-3.828c.954-1.046 2.169-1.758 3.492-2.046a6.27 6.27 0 0 1 3.942.425c1.246.566 2.312 1.525 3.061 2.754a7.992 7.992 0 0 1 1.15 4.154c-.003 1.982-.723 3.881-2.001 5.283-1.279 1.401-3.012 2.19-4.821 2.193zm0-12.79c-.958 0-1.896.313-2.693.896a5.24 5.24 0 0 0-1.785 2.385 5.788 5.788 0 0 0-.276 3.07 5.487 5.487 0 0 0 1.327 2.72 4.726 4.726 0 0 0 2.482 1.453c.94.205 1.915.1 2.8-.302a4.975 4.975 0 0 0 2.176-1.957c.533-.873.817-1.9.817-2.951a5.77 5.77 0 0 0-.356-2.05 5.39 5.39 0 0 0-1.048-1.742c-.45-.5-.987-.897-1.578-1.168a4.492 4.492 0 0 0-1.866-.413v.06z" fill="#142216"/><path d="M431.598 263.744v22.009l-19.5-1.07-83.187-4.556.186-3.101.615-10.517.833-14.04s53.477-17.14 96.348 8.294a86.267 86.267 0 0 1 4.705 2.981z" fill="#D97C2F"/><path d="M431.598 269.153v16.6l-102.687-5.626.801-13.618c17.295.625 78.032 2.079 101.886 2.644z" fill="#FFB549"/><path d="m454.41 304.696-113.797 1.671-29.733.445 1.942-30.279 16.275.493 88.945 2.633 13.556.408 19.248.565 3.564 24.064z" fill="#142216"/><path d="m454.41 304.696-113.797 1.671-.713-2.055s48.794-3.318 72.198-19.629a38.01 38.01 0 0 0 5.944-5.024c4.387-4.604 7.162-11.287 8.851-18.896a86.654 86.654 0 0 1 4.705 2.981v16.323l19.248.565 3.564 24.064z" fill="#BFD4EA" style="mix-blend-mode:multiply"/><path d="M219.873 159.374a.919.919 0 0 1-.647-.265 1.071 1.071 0 0 1-.239-.331 1.182 1.182 0 0 1-.059-.827c.04-.135.104-.26.188-.368l51.832-66.35c.091-.118.203-.213.33-.279a.93.93 0 0 1 .405-.106c.139-.001.276.03.403.093.127.062.24.153.332.267l54.409 66.351c.175.216.265.498.25.786a1.135 1.135 0 0 1-.327.752.931.931 0 0 1-.712.274.955.955 0 0 1-.681-.358l-53.641-65.437-51.097 65.413a1.005 1.005 0 0 1-.335.282.926.926 0 0 1-.411.103z" fill="#142216"/><path d="M249.979 157.595a.935.935 0 0 1-.455-.13c-.14-.082-.26-.2-.35-.343a1.184 1.184 0 0 1-.117-.994l21.716-64.571c.044-.133.111-.256.199-.36a.983.983 0 0 1 .31-.248.904.904 0 0 1 .752-.03.97.97 0 0 1 .332.22 1.143 1.143 0 0 1 .321.755 1.19 1.19 0 0 1-.061.42l-21.715 64.56a1.077 1.077 0 0 1-.362.523.93.93 0 0 1-.57.198z" fill="#142216"/><path d="M278.285 204.341a78.528 78.528 0 0 1-4.825.144h-.768c-3.451 0-6.698-.156-9.739-.469-48.366-4.904-46.217-46.361-46.217-46.361s6.702-1.07 17.384-2.188a470.74 470.74 0 0 1 12.557-1.142c17.877-1.382 41.336-2.151 63.424.325 6.34.721 12.58 1.695 18.535 3.005 0-.024 2.282 43.765-50.351 46.686z" fill="#EA9B1C"/><path d="M273.898 204.341c30.237-8.618 32.475-33.837 31.806-49.679 6.339.721 12.568 1.695 18.524 3.005.022-.036 2.303 43.753-50.33 46.674z" fill="#DBC8AA" style="mix-blend-mode:multiply"/><path d="M269.084 204.449h-.779c-3.451 0-6.697-.156-9.739-.469-9.231-3.114-17.172-9.678-22.441-18.55-5.268-8.871-7.53-19.487-6.392-29.999 3.74-.384 7.973-.793 12.569-1.142-1.815 10.438-.182 21.244 4.606 30.483 4.932 9.326 12.827 16.331 22.176 19.677z" fill="#fff" style="mix-blend-mode:soft-light"/><path d="M445.077 159.374a.917.917 0 0 1-.647-.265 1.071 1.071 0 0 1-.239-.331 1.19 1.19 0 0 1-.06-.827c.041-.135.105-.26.189-.368l51.821-66.35a1.03 1.03 0 0 1 .336-.28.946.946 0 0 1 .41-.105.9.9 0 0 1 .402.093c.127.062.24.153.332.267l54.365 66.351c.175.216.266.498.251.786a1.135 1.135 0 0 1-.327.752.934.934 0 0 1-.713.274.953.953 0 0 1-.68-.358l-53.598-65.437-51.096 65.413a1.005 1.005 0 0 1-.335.282.93.93 0 0 1-.411.103z" fill="#142216"/><path d="M475.193 157.595a.927.927 0 0 1-.459-.126 1.027 1.027 0 0 1-.354-.343 1.16 1.16 0 0 1-.171-.483c-.02-.173-.003-.35.052-.515l21.704-64.571c.107-.247.294-.442.526-.545a.916.916 0 0 1 .723-.012c.234.095.427.282.541.526.114.243.14.524.074.788l-21.715 64.56c-.067.209-.192.39-.357.519a.93.93 0 0 1-.564.202z" fill="#142216"/><path d="M503.763 204.341a78.528 78.528 0 0 1-4.825.144h-.768c-3.458 0-6.705-.156-9.739-.469-48.366-4.904-46.216-46.361-46.216-46.361s6.701-1.07 17.383-2.188a466.57 466.57 0 0 1 12.557-1.142c17.877-1.382 41.336-2.151 63.425.325 6.339.721 12.579 1.695 18.523 3.005 0-.024 2.293 43.765-50.34 46.686z" fill="#EA9B1C"/><path d="M503.763 204.341c30.237-8.618 32.463-33.837 31.805-49.679 6.339.721 12.58 1.695 18.524 3.005.011-.036 2.303 43.753-50.329 46.674z" fill="#DBC8AA" style="mix-blend-mode:multiply"/><path d="M498.937 204.449h-.768c-3.458 0-6.704-.156-9.739-.469-9.233-3.11-17.177-9.673-22.446-18.546-5.269-8.872-7.53-19.491-6.387-30.003 3.729-.384 7.962-.793 12.558-1.142-1.804 10.439-.172 21.24 4.606 30.483 4.935 9.323 12.829 16.327 22.176 19.677z" fill="#fff" style="mix-blend-mode:soft-light"/><path d="m387.41 305.406-8.982 52.888-34.547-.77-5.988-.144-41.446-.937c-.098-.181-.186-.361-.274-.541-8.445-16.147-8.353-32.286.274-48.417l39.823-.901 5.834-.145 10.43-.228 34.876-.805z" fill="#BD4A2C"/><path d="M310.047 307.16s-15.53 21.528 0 49.571l15.804.361s-14.433-20.807 0-50.28l-15.804.348z" fill="#8A2C08"/><path d="m343.881 357.512-5.988-.144c-4.179-7.621-6.52-16.282-6.804-25.168-.284-8.886 1.499-17.705 5.181-25.629l5.834-.144c-4.247 7.79-6.34 16.764-6.024 25.832.315 9.068 3.025 17.841 7.801 25.253z" fill="#F7EEDF"/><path d="m387.41 305.406-8.982 52.888-34.547-.77-5.988-.144-41.446-.937c-.098-.181-.186-.361-.274-.541 13.061-.385 25.646-5.454 35.826-14.429 10.181-8.976 17.394-21.363 20.535-35.262l34.876-.805z" fill="#BFD4EA" style="mix-blend-mode:multiply"/><path d="m410.288 349.231 1.097-36.385h43.036v-8.955l-92.257 2.091c-4.03 7.943-6.145 16.882-6.145 25.97 0 9.088 2.115 18.026 6.145 25.969l92.257 2.092v-9.616l-44.133-1.166z" fill="#DB5633"/><path d="M443.585 333.484a71.729 71.729 0 0 0 2.928 16.672l-81.158-2.091c-2.343-4.899-3.623-10.325-3.74-15.855-.139-6.685 1.142-13.314 3.74-19.364h81.158c-2.469 6.523-3.473 13.601-2.928 20.638z" fill="#fff"/><path d="M370.795 319.12c5.476-.184 10.96-.264 16.451-.24 5.484 0 10.967.084 16.451.192 5.484.109 10.967.301 16.451.541 5.484.241 10.967.565 16.396.998a470.04 470.04 0 0 1-16.451.24c-5.484 0-10.967-.096-16.451-.204a627.56 627.56 0 0 1-16.451-.553c-5.484-.252-10.934-.553-16.396-.974zM400.845 327.486c2.973-.264 5.945-.372 8.917-.42 2.972-.048 5.933 0 8.894 0 2.962 0 5.934.18 8.895.372 2.961.193 5.922.421 8.883.806-2.972.264-5.944.372-8.905.42-2.961.048-5.933 0-8.905 0-2.973 0-5.923-.168-8.884-.36-2.961-.193-5.933-.433-8.895-.818zM390.865 341.694c2.314-.288 4.628-.421 6.953-.493 2.325-.072 4.628-.072 6.943 0 2.314.072 4.628.12 6.942.289 2.314.168 4.628.372 6.942.733-2.325.288-4.639.421-6.953.493-2.314.072-4.639.084-6.953.06a111.156 111.156 0 0 1-6.943-.301 84.05 84.05 0 0 1-6.931-.781zM372.89 335.131a263.79 263.79 0 0 1 12.316-.421c4.102-.048 8.204 0 12.294 0 4.091 0 8.204.181 12.306.373 4.102.192 8.192.433 12.294.805-4.102.241-8.214.385-12.316.421-4.102.036-8.193 0-12.295 0-4.101 0-8.203-.18-12.305-.373-4.102-.192-8.204-.432-12.294-.805z" fill="#7197D5"/><path d="m446.513 350.156-81.158-2.091c-2.343-4.899-3.623-10.325-3.74-15.855a2116.26 2116.26 0 0 0 81.981 1.274 71.724 71.724 0 0 0 2.917 16.672z" fill="#BFD4EA" style="mix-blend-mode:multiply"/><path d="M378.713 327.03h-9.87c5.231 8.233 6.58 17.369 3.992 26.444 2.873-1.791 5.845-3.606 8.719-5.397a25.603 25.603 0 0 0 4.08 5.637c.873-4.73.7-9.621-.504-14.263-1.204-4.642-3.404-8.901-6.417-12.421z" fill="#C12C22"/><path d="m480.71 357.272-96.601-2.404-98.706-2.404v4.063l38.309 1.671v23.258l-38.32.782v4.471l101.393-.985 93.925-.914c5.341-9.436 5.22-18.607 0-27.538z" fill="#0E537E"/><path d="m480.71 384.834-10.968.096-62.272.601h-2.413l-18.294.181.143-.433c5.67-15.831.395-26.048-2.83-30.375l16.199.397 5.659.132 48.608 1.202 14.762.361 11.373.276c5.253 8.931 5.374 18.102.033 27.562z" fill="#4A80BD"/><path d="M384.537 371.119c.045 3.215-.714 6.383-2.194 9.159l-88.21 1.803a28.092 28.092 0 0 0 2.534-9.543c.344-5.502-.932-10.98-3.642-15.627l89.318 3.691a27.682 27.682 0 0 1 2.194 10.517z" fill="#fff"/><path d="M299.957 360.998a404.365 404.365 0 0 1 15.573-.228c5.188 0 10.376.084 15.563.18 5.188.096 10.375.289 15.563.517 5.187.228 10.375.529 15.562.938-5.198.176-10.393.252-15.584.228-5.188 0-10.375-.084-15.563-.18a561.796 561.796 0 0 1-15.563-.529c-5.187-.241-10.375-.529-15.551-.926zM344.44 368.138c2.819-.252 5.627-.348 8.445-.397 2.819-.048 5.627 0 8.445 0 2.819 0 5.626.169 8.434.349 2.808.18 5.615.397 8.423.769-2.819.253-5.626.349-8.445.397-2.819.048-5.626 0-8.445 0-2.818 0-5.626-.168-8.434-.349-2.807-.18-5.615-.408-8.423-.769zM303.302 374.569c3.893-.228 7.776-.361 11.669-.397 3.894-.036 7.787 0 11.67 0 3.882 0 7.786.169 11.669.349 3.882.18 7.776.421 11.669.769a236.52 236.52 0 0 1-11.68.397c-3.894.036-7.787 0-11.669 0-3.883 0-7.787-.168-11.67-.349-3.882-.18-7.776-.42-11.658-.769z" fill="#7197D5"/><path d="m469.775 384.93-62.272.601c5.352-12.561 1.031-24.689-1.536-30.05l63.37 1.515c4.902 10.601 2.259 22.273.438 27.934z" fill="#0E537E"/><path d="M441.381 375.35c12.49 0 22.614-2.174 22.614-4.856s-10.124-4.856-22.614-4.856-22.615 2.174-22.615 4.856 10.125 4.856 22.615 4.856z" fill="#25669C"/><path d="M384.537 371.119c.045 3.215-.714 6.383-2.194 9.159l-88.21 1.803a28.092 28.092 0 0 0 2.534-9.543c29.29.176 58.58-.297 87.87-1.419zM480.709 384.834l-10.967.096-62.272.601h-2.413l-18.294.181.143-.433a34.472 34.472 0 0 0 9.026-6.852c-.975-8.031.572-16.186 4.387-23.126l5.659.132 48.607 1.202 14.762.361 11.373.276c5.21 8.931 5.331 18.102-.011 27.562z" fill="#BFD4EA" style="mix-blend-mode:multiply"/><path d="M371.31 365.638h4.804a20.521 20.521 0 0 1-.756 7.607 19.353 19.353 0 0 1-3.455 6.649c-1.569 1.9-3.485 3.418-5.624 4.453a15.421 15.421 0 0 1-6.792 1.557c.527-1.443.911-2.633 1.437-4.075a35.087 35.087 0 0 1-7.523.349c4.136-.777 8.1-2.409 11.68-4.808 1.776-1.317 3.259-3.055 4.338-5.086a16.714 16.714 0 0 0 1.891-6.646z" fill="#FFB549"/><path d="M646.634 375.458c.691 1.022 2.446 1.202 5.956.121 13.118-3.866 25.852-9.157 38.012-15.795l2.315-1.286a231.044 231.044 0 0 0 4.321-2.524 200.49 200.49 0 0 0 28.043-20.17l2.413-2.103c.548-.481 1.097-.974 1.656-1.479 9.655-8.667 18.179-18.746 25.335-29.954.493-.805.987-1.622 1.458-2.404 5.484-9.423 9.399-19.592 9.871-29.665v-2.104c.055-6.675-1.644-13.226-4.894-18.872-3.249-5.646-7.912-10.148-13.433-12.969-.515-.276-1.03-.553-1.568-.805a36.903 36.903 0 0 0-3.663-1.551 40.223 40.223 0 0 0-12.722-2.404h-1.722c-8.529.247-16.85 2.945-24.128 7.825-.538.337-1.097.697-1.601 1.07-7.876 5.601-14.5 13.074-19.38 21.865-.087.132-.153.276-.23.408l-.932 1.731c-6.339 12.02-10.968 24.785-14.828 37.887-.318 1.07-.636 2.164-.943 3.246-3.85 13.306-7.107 26.853-10.968 40.087-2.04 7.128-4.244 14.207-6.799 21.143a35.86 35.86 0 0 0-2.029 6.515c-.11.767.055 1.551.46 2.187z" fill="#3E3E15"/><path d="M642.434 379.245c1.415-1.202 2.808-2.513 4.2-3.787a420.495 420.495 0 0 0 16.55-15.962c9.919.599 19.866.266 29.733-.998a231.044 231.044 0 0 0 4.321-2.524 157.92 157.92 0 0 1-32.299 1.719 467.575 467.575 0 0 0 6.207-6.515 362.685 362.685 0 0 0 12.755-14.424h.154c4.818.152 9.633.216 14.444.192a339.668 339.668 0 0 0 26.782-1.202l2.413-2.103a356.927 356.927 0 0 1-42.257 1.202 423.024 423.024 0 0 0 19.544-25.242.994.994 0 0 0 .263.06c4.248 0 8.485-.169 12.711-.505a169.967 169.967 0 0 0 36.73-7.02c.493-.805.987-1.623 1.458-2.404a146.84 146.84 0 0 1-7.041 2.104 167.164 167.164 0 0 1-42.772 5.925 431.265 431.265 0 0 0 9.333-13.63 458.098 458.098 0 0 0 5.122-8.006.7.7 0 0 0 .713.169 233.66 233.66 0 0 0 11.866-3.246 219.394 219.394 0 0 0 32.694-12.981v-2.104c-1.623.817-3.29 1.587-4.87 2.404a215.123 215.123 0 0 1-39.307 13.919 445.967 445.967 0 0 0 25.85-48.08c-.515-.276-1.031-.553-1.568-.805a436.132 436.132 0 0 1-15.201 29.99c-.658 1.202-1.338 2.344-2.007 3.522.285-12.493.56-24.978.823-37.455h-1.722l-.834 38.993a.884.884 0 0 0 .106.483.766.766 0 0 0 .344.323 418.362 418.362 0 0 1-16.451 26.323c-.526-4.195-1.097-8.414-1.579-12.585l-5.703-45.676c-.538.337-1.097.697-1.601 1.07.471 3.678.921 7.368 1.381 11.046l5.978 47.792a.841.841 0 0 0 .142.397 424.101 424.101 0 0 1-14.257 19.689 400.827 400.827 0 0 0-2.084-13.066 380.998 380.998 0 0 0-10.573-43.993c-.087.132-.153.276-.23.408l-.932 1.731c.669 2.284 1.338 4.568 1.974 6.864a381.387 381.387 0 0 1 10.43 49.678.869.869 0 0 0 .066.157c-1.218 1.562-2.424 3.125-3.652 4.663a396.194 396.194 0 0 1-14.401 17.081 573.873 573.873 0 0 0-9.157-40.616c-.318 1.07-.636 2.164-.943 3.246a590.42 590.42 0 0 1 8.543 38.464c.034.164.11.314.219.432a430.457 430.457 0 0 1-12.524 13.391s-.077.06-.099.108a411.02 411.02 0 0 1-15.881 15.374 278.938 278.938 0 0 1-5.121 4.639c-.878.758.372 2.128 1.217 1.371z" fill="#142216"/><path d="m617.089 377.886 12.788.926 1.645.132 9.475.685c-.307-11.863 10.748-21.371 19.248-28.716 7.677-6.695 16.067-15.157 16.791-25.542.033-.641.033-1.283 0-1.923 0-.409-.022-.81-.066-1.202-.296-3.727-1.623-7.297-1.765-11.035-.34-9.291 6.58-16.828 13.259-22.513 5.232-4.436 10.967-9.015 14.258-15.11.435-.813.823-1.657 1.162-2.524.382-.972.69-1.977.921-3.005 2.633-11.539-4.869-23.295-5.933-34.858 0-.649-.099-1.31-.11-1.971a22.706 22.706 0 0 1 .68-6.275c1.887-7.308 7.678-12.681 10.167-19.749 1.777-4.988 1.788-10.325 1.207-15.698a39.363 39.363 0 0 0-.242-1.995c-.373-2.945-.899-5.902-1.36-8.799-1.404-8.823-1.952-18.799 3.115-25.819 2.555-3.606 6.273-5.902 8.938-9.339 2.666-3.438 4.069-8.931 1.349-12.321a6.129 6.129 0 0 0-1.36-1.202 6.375 6.375 0 0 0-1.721-.817 13.19 13.19 0 0 0-7.678.492c-8.662 2.864-16.29 8.626-21.814 16.48a40.182 40.182 0 0 0-1.316 1.971 46.934 46.934 0 0 0-4.716 9.7c-2.632 7.501-3.52 15.771-7.15 22.754a54.162 54.162 0 0 1-7.535 10.35c-.45.528-.921 1.045-1.382 1.574-5.407 6.154-10.792 12.165-11.515 20.434-.768 8.703 4.178 17.586 1.754 25.904a15.845 15.845 0 0 1-.603 1.694c-.26.628-.561 1.234-.899 1.815-4.278 7.441-13.841 10.734-19.38 17.694a24.267 24.267 0 0 0-3.531 6.13 27.996 27.996 0 0 0-1.097 2.993c-3.509 11.828-1.239 26.588-6.087 38.368-3.103 7.573-8.96 13.378-12.557 20.687-7.634 15.686-3.861 33.391 3.06 49.63z" fill="#676521"/><path d="M636.38 337.763c-5.758 12.684-8.018 26.932-6.504 41.001l1.645.132a79.076 79.076 0 0 1 .242-19.232 76.19 76.19 0 0 1 3.86-15.626 76.55 76.55 0 0 1 5.769-12.02.74.74 0 0 0 .23 0c3.718.01 7.434-.19 11.132-.601a96.937 96.937 0 0 0 24.282-6.01c.033-.641.033-1.283 0-1.923-11.117 4.409-22.845 6.686-34.668 6.731.121-.192.241-.385.351-.589 2.72-4.496 5.484-9.003 7.337-14.064 1.854-5.06 2.194-10.361 2.325-15.626.132-5.264.176-10.818 1.623-16.022.213-.736.462-1.458.746-2.164 4.208.475 8.44.643 12.668.505 12.151-.427 24.122-3.346 35.292-8.606.436-.814.824-1.657 1.163-2.525a93.222 93.222 0 0 1-4.211 1.984c-14.005 6.098-29.13 8.466-44.133 6.911 1.375-2.726 3.205-5.144 5.396-7.128 5.549-5.168 12.579-8.414 17.317-14.664 2.439-3.141 3.855-7.083 4.025-11.203a29.6 29.6 0 0 0-.658-6.96 68.195 68.195 0 0 0 17.307-6.875c0-.649-.099-1.31-.11-1.971a66.815 66.815 0 0 1-17.548 6.995c-.438-1.875-.943-3.738-1.447-5.577-1.273-4.7-2.611-9.616-2.051-14.58.559-4.965 3.213-9.316 5.878-13.222.713-1.07 1.448-2.128 2.194-3.198.165.075.35.075.515 0 8.673-2.686 16.934-6.769 24.512-12.116a39.363 39.363 0 0 0-.241-1.995c-7.233 5.206-15.116 9.234-23.404 11.96a38.57 38.57 0 0 0 3.707-7.212c1.963-5.277 2.489-11.011 3.07-16.612a62.45 62.45 0 0 1 3.345-16.287 51.75 51.75 0 0 1 7.316-12.729c4.967-6.207 10.551-11.787 16.648-16.636a6.381 6.381 0 0 0-1.722-.817l-.471.396c-7.327 6.239-14.455 12.994-19.566 21.516a49.28 49.28 0 0 0-4.519 9.82 52.748 52.748 0 0 1-4.88-14.784c-.45.637-.899 1.298-1.316 1.971a54.12 54.12 0 0 0 5.341 14.821.916.916 0 0 0 .175.228 39.835 39.835 0 0 0-.46 1.839c-1.251 5.566-1.492 11.299-2.26 16.949-.65 5.64-2.469 11.043-5.319 15.794-2.555 4.147-5.626 7.921-7.776 12.356a25.555 25.555 0 0 0-1.447 3.751c-3.61-7.172-6.199-14.906-7.677-22.935-.45.529-.922 1.046-1.382 1.575 1.621 8.213 4.38 16.106 8.181 23.403.071.124.165.23.275.313a24.688 24.688 0 0 0-.253 7.644c.593 5.073 2.314 9.869 3.444 14.797 1.097 4.688 1.568 9.616-.241 14.148-1.34 3.045-3.308 5.707-5.747 7.777a.307.307 0 0 0-.11-.108c-6.403-5.504-11.802-12.281-15.913-19.978a15.09 15.09 0 0 1-.9 1.815c4.111 7.434 9.4 14.004 15.618 19.401l-.066.06c-5.9 4.928-13.161 8.57-17.328 15.626-5.133 8.594-3.62 19.232-4.629 29.052a110.682 110.682 0 0 1-5.845-10.012c-4.871-9.476-8.441-19.686-10.595-30.303-.42.972-.787 1.972-1.096 2.993 3.283 14.272 9.068 27.707 17.032 39.558.06.071.126.135.197.192-1.798 11.023-9.19 19.196-13.665 28.896zM126.366 375.458c-.68 1.022-2.446 1.202-5.945.121-13.121-3.868-25.859-9.159-38.024-15.795l-2.336-1.286a227.87 227.87 0 0 1-4.32-2.524 201.806 201.806 0 0 1-28.044-20.17l-2.413-2.103c-.548-.481-1.097-.974-1.656-1.479-9.654-8.665-18.175-18.744-25.324-29.954-.504-.805-.987-1.622-1.47-2.404-5.483-9.423-9.398-19.592-9.87-29.665 0-.697-.055-1.407-.055-2.104-.06-6.678 1.635-13.233 4.883-18.884 3.248-5.65 7.911-10.157 13.433-12.981a33.44 33.44 0 0 1 1.579-.805 36.74 36.74 0 0 1 3.652-1.551 40.28 40.28 0 0 1 12.722-2.404h1.733c8.53.246 16.85 2.945 24.128 7.825.538.337 1.097.697 1.602 1.07 7.875 5.601 14.499 13.074 19.379 21.864.088.133.153.277.23.409l.943 1.731c6.328 12.02 10.913 24.785 14.817 37.887l.954 3.246c3.839 13.306 7.096 26.852 10.902 40.087 2.051 7.127 4.255 14.207 6.8 21.143a36.018 36.018 0 0 1 2.029 6.515 3.19 3.19 0 0 1-.329 2.211z" fill="#3E3E15"/><path d="M130.566 379.245a445.598 445.598 0 0 1-4.2-3.787 415.399 415.399 0 0 1-16.539-15.962c-9.93.601-19.888.267-29.766-.998a227.87 227.87 0 0 1-4.32-2.524 157.987 157.987 0 0 0 32.298 1.719 414.794 414.794 0 0 1-6.196-6.515 368.976 368.976 0 0 1-12.766-14.424h-.154c-4.818.152-9.633.216-14.444.192a340.3 340.3 0 0 1-26.782-1.202l-2.413-2.103a356.925 356.925 0 0 0 42.257 1.202 435.441 435.441 0 0 1-19.544-25.242.888.888 0 0 1-.263.06c-4.233 0-8.477-.181-12.71-.505a169.736 169.736 0 0 1-36.72-7.02c-.504-.805-.987-1.623-1.47-2.404 2.34.761 4.688 1.462 7.042 2.104a167.304 167.304 0 0 0 42.773 5.925c-3.181-4.483-6.307-9.015-9.334-13.63a458.675 458.675 0 0 1-5.121-8.006.737.737 0 0 1-.337.185.697.697 0 0 1-.376-.016 237.778 237.778 0 0 1-11.867-3.246A219.874 219.874 0 0 1 6.92 270.067c0-.698-.055-1.407-.055-2.104 1.624.817 3.29 1.587 4.87 2.404a215.461 215.461 0 0 0 39.307 13.919 448.086 448.086 0 0 1-25.85-48.08 33.44 33.44 0 0 1 1.58-.805 436.219 436.219 0 0 0 15.2 29.99c.658 1.202 1.327 2.344 1.996 3.522-.27-12.493-.545-24.978-.823-37.455h1.733l.91 38.993a.909.909 0 0 1-.111.479.8.8 0 0 1-.338.327 424.766 424.766 0 0 0 16.385 26.323c.538-4.195 1.097-8.414 1.58-12.585l5.702-45.676c.538.337 1.097.697 1.602 1.07l-1.382 11.046-5.977 47.792a.833.833 0 0 1-.132.397 413.166 413.166 0 0 0 14.258 19.689c.614-4.36 1.308-8.715 2.083-13.066a380.998 380.998 0 0 1 10.562-43.993c.088.132.153.276.23.408l.943 1.731a381.419 381.419 0 0 0-12.36 56.542.946.946 0 0 1-.066.157c1.218 1.562 2.424 3.125 3.653 4.663 4.65 5.842 9.475 11.528 14.4 17.081a574.654 574.654 0 0 1 9.157-40.616l.955 3.246a567.274 567.274 0 0 0-8.544 38.488.841.841 0 0 1-.23.433 407.17 407.17 0 0 0 12.535 13.39c.035.03.065.067.088.108a433.855 433.855 0 0 0 15.881 15.374 275.75 275.75 0 0 0 5.122 4.639c.921.734-.362 2.104-1.218 1.347z" fill="#142216"/><path d="m155.923 377.886-12.799.926-1.645.132-9.465.685c.296-11.863-10.759-21.371-19.259-28.716-7.677-6.695-16.067-15.157-16.79-25.542a18.576 18.576 0 0 1 0-1.923c0-.409.021-.81.065-1.202.296-3.727 1.634-7.297 1.766-11.035.34-9.291-6.58-16.828-13.249-22.513-5.231-4.436-10.967-9.015-14.257-15.11a23.37 23.37 0 0 1-1.174-2.524 21.904 21.904 0 0 1-.921-3.005c-2.632-11.539 4.87-23.295 5.933-34.858.066-.649.099-1.31.11-1.971a22.642 22.642 0 0 0-.67-6.275c-1.896-7.308-7.676-12.681-10.177-19.749-1.776-4.988-1.788-10.325-1.206-15.698.066-.673.142-1.334.241-1.995.384-2.945.9-5.902 1.36-8.799 1.404-8.823 1.952-18.799-3.115-25.819-2.555-3.606-6.262-5.902-8.938-9.339-2.676-3.438-4.113-8.931-1.393-12.333a6.155 6.155 0 0 1 1.36-1.202 6.751 6.751 0 0 1 1.722-.817c2.553-.6 5.206-.43 7.677.492 8.658 2.867 16.281 8.629 21.803 16.48.46.637.9 1.298 1.316 1.971a46.878 46.878 0 0 1 4.716 9.7c2.632 7.501 3.52 15.771 7.162 22.754a54.138 54.138 0 0 0 7.523 10.35c.45.528.922 1.045 1.382 1.574 5.407 6.154 10.792 12.164 11.516 20.434.768 8.703-4.179 17.586-1.755 25.904a16.067 16.067 0 0 0 1.503 3.509c4.288 7.441 13.841 10.734 19.379 17.694a24.24 24.24 0 0 1 3.532 6.13 31.08 31.08 0 0 1 1.096 2.993c3.499 11.828 1.229 26.588 6.076 38.368 3.115 7.573 8.961 13.378 12.569 20.687 7.699 15.698 3.915 33.403-2.994 49.642z" fill="#676521"/><path d="M136.62 337.763c5.764 12.682 8.024 26.932 6.504 41.001l-1.645.132a79.076 79.076 0 0 0-.242-19.232 76.19 76.19 0 0 0-3.86-15.626 76.55 76.55 0 0 0-5.769-12.02.74.74 0 0 1-.23 0c-3.718.01-7.433-.19-11.132-.601a96.931 96.931 0 0 1-24.282-6.01 18.576 18.576 0 0 1 0-1.923c11.118 4.409 22.845 6.686 34.668 6.731a10.053 10.053 0 0 1-.351-.589c-2.72-4.496-5.484-9.003-7.326-14.064-1.843-5.06-2.194-10.361-2.336-15.626-.143-5.264-.165-10.818-1.623-16.022a26.039 26.039 0 0 0-.735-2.164 87.602 87.602 0 0 1-12.667.505c-12.152-.424-24.124-3.344-35.293-8.606a23.495 23.495 0 0 1-1.174-2.525 91.62 91.62 0 0 0 4.223 1.984c14.004 6.099 29.13 8.468 44.132 6.911a24.682 24.682 0 0 0-5.407-7.128c-5.549-5.168-12.58-8.414-17.317-14.664-2.44-3.14-3.853-7.083-4.014-11.203-.054-2.34.163-4.679.647-6.96a68.185 68.185 0 0 1-17.307-6.875c.066-.649.1-1.31.11-1.971a66.821 66.821 0 0 0 17.548 6.995c.438-1.875.943-3.738 1.447-5.577 1.284-4.7 2.61-9.616 2.051-14.58-.559-4.965-3.213-9.316-5.878-13.222a184.759 184.759 0 0 0-2.194-3.198.619.619 0 0 1-.515 0c-8.672-2.688-16.933-6.771-24.512-12.116.066-.673.143-1.334.241-1.995 7.236 5.208 15.123 9.237 23.416 11.96a38.578 38.578 0 0 1-3.718-7.212c-1.963-5.277-2.479-11.011-3.071-16.612a62.419 62.419 0 0 0-3.334-16.323 51.711 51.711 0 0 0-7.326-12.693c-4.968-6.207-10.552-11.787-16.649-16.636a6.749 6.749 0 0 1 1.722-.817l.472.396c7.304 6.239 14.465 12.994 19.587 21.516a49.256 49.256 0 0 1 4.519 9.82 52.394 52.394 0 0 0 4.88-14.784c.46.637.9 1.298 1.316 1.971a53.754 53.754 0 0 1-5.34 14.821c-.04.091-.1.17-.176.228.168.609.321 1.222.46 1.839 1.25 5.566 1.503 11.299 2.27 16.949.643 5.64 2.459 11.044 5.309 15.794 2.555 4.147 5.626 7.921 7.776 12.356a24.302 24.302 0 0 1 1.447 3.751c3.61-7.172 6.199-14.906 7.677-22.935.45.529.922 1.046 1.382 1.575-1.621 8.213-4.38 16.106-8.181 23.403a.915.915 0 0 1-.274.313 24.67 24.67 0 0 1 .252 7.644c-.582 5.073-2.314 9.869-3.444 14.797-1.097 4.688-1.568 9.616.241 14.148 1.344 3.046 3.315 5.708 5.758 7.777a.228.228 0 0 1 .099-.108c6.403-5.504 11.802-12.281 15.913-19.978.261.628.562 1.234.9 1.815-4.111 7.434-9.4 14.004-15.618 19.401l.066.06c5.901 4.928 13.161 8.57 17.329 15.626 5.132 8.594 3.63 19.232 4.628 29.052a110.682 110.682 0 0 0 5.845-10.012c4.891-9.461 8.483-19.659 10.661-30.267.415.975.782 1.974 1.096 2.993-3.287 14.272-9.075 27.708-17.043 39.558-.06.071-.126.135-.197.192 1.722 10.987 9.114 19.16 13.588 28.86z" fill="#3E3E15"/><path d="M618.558 340.42c-.065.252-.142.517-.219.781l-6.997 1.875c-2.242-.197-4.375-1.145-6.109-2.716a7.882 7.882 0 0 1-1.749-2.791 8.478 8.478 0 0 1-.51-3.339 18.228 18.228 0 0 1 1.031-5.542s-5.824-1.574-2.72-6.731c0 0-38.386-54.98-28.263-60.509a3.028 3.028 0 0 1 2.457-.144c11.055 3.606 31.366 57.804 31.366 57.804s6.581 1.202 3.466 6.696c.044 0 11.538 1.815 8.247 14.616z" fill="#0E537E"/><path d="M618.558 340.42h-13.325a7.898 7.898 0 0 1-1.75-2.791 8.514 8.514 0 0 1-.51-3.339c2.495-1.797 5.331-2.948 8.292-3.366a7.598 7.598 0 0 0-1.663-2.484 6.816 6.816 0 0 0-2.428-1.555 4.064 4.064 0 0 0 .836-1.809 4.283 4.283 0 0 0-.101-2.025 4.23 4.23 0 0 0-1.186-1.657 3.705 3.705 0 0 0-1.765-.831c-7.104-21.221-17.038-41.171-29.48-59.199 11.055 3.606 31.367 57.804 31.367 57.804s6.58 1.202 3.466 6.696c.043-.06 11.537 1.755 8.247 14.556z" fill="#BFD4EA" style="mix-blend-mode:multiply"/><path d="M656.44 357.705c-.505-11.323-6.175-20.518-13.293-22.514a11.906 11.906 0 0 0-8.675 0l.483 1.07c-6.153 3.414-10.31 12.597-9.871 23.151.493 11.13 5.977 20.193 12.919 22.393l-1.096.769a9.296 9.296 0 0 0 7.03-.601c7.6-2.067 13.007-12.284 12.503-24.268z" fill="#7197D5"/><path d="M637.632 382.558c8.663-.46 15.217-11.459 14.639-24.568-.579-13.109-8.071-23.363-16.735-22.904-8.664.46-15.218 11.459-14.639 24.568.579 13.109 8.071 23.363 16.735 22.904z" fill="#002638"/><path d="M647.523 363.739c-.605 4.687-2.532 9.049-5.511 12.476-2.98 3.427-6.862 5.747-11.105 6.636a79.371 79.371 0 0 1-25.378.985 104.81 104.81 0 0 1-11.614-1.923l-1.865-42.07c12.395-4.956 25.776-6.177 38.748-3.534a22.6 22.6 0 0 1 1.809.469c4.048 1.231 7.658 3.783 10.35 7.317 2.692 3.534 4.338 7.883 4.719 12.468a34.914 34.914 0 0 1-.153 7.176z" fill="#25669C"/><path d="M647.523 363.739c-.605 4.687-2.532 9.049-5.512 12.476-2.979 3.427-6.861 5.747-11.104 6.636a79.372 79.372 0 0 1-25.378.985c10.331-1.697 19.69-7.625 26.19-16.587 2.635-3.519 4.546-7.619 5.604-12.02 1.035-4.447.648-9.147-1.097-13.319a15.5 15.5 0 0 0-3.608-5.048c4.048 1.231 7.658 3.783 10.35 7.317 2.691 3.535 4.338 7.883 4.719 12.468a34.952 34.952 0 0 1-.164 7.092z" fill="#BFD4EA" style="mix-blend-mode:multiply"/><path d="M613.952 359.965c-.505-11.335-6.164-20.519-13.281-22.514h-.055a11.96 11.96 0 0 0-8.676 0l.483 1.07c-6.153 3.425-10.309 12.609-9.871 23.15.494 11.143 5.967 20.206 12.909 22.406l-1.097.757a9.231 9.231 0 0 0 7.03-.601c7.656-2.067 13.084-12.284 12.558-24.268z" fill="#002638"/><path d="M609.784 360.181c.582 13.114-5.966 24.112-14.63 24.569-3.298.098-6.504-1.192-8.96-3.606a19.514 19.514 0 0 1-2.512-2.873 23.748 23.748 0 0 1-1.919-3.149 31.65 31.65 0 0 1-3.137-10.662 39.93 39.93 0 0 1-.208-2.62c-.582-13.114 5.966-24.113 14.641-24.569.859-.047 1.719.01 2.566.168 2.729.596 5.234 2.069 7.195 4.231a21.376 21.376 0 0 1 2.194 2.729 27.864 27.864 0 0 1 2.017 3.606 33.113 33.113 0 0 1 2.753 12.176z" fill="#25669C"/><path d="M606.319 359.099c.493 11.179-5.045 21.828-12.437 22.225-7.392.397-13.742-7.597-14.258-18.787-.515-11.191 5.056-21.312 12.448-21.708 7.392-.397 13.742 7.091 14.247 18.27z" fill="#7197D5"/><g style="mix-blend-mode:soft-light" opacity=".5" fill="#fff"><path d="m602.842 341.682-21.057 33.452a31.628 31.628 0 0 1-3.137-10.662l16.999-27.021c2.729.596 5.233 2.069 7.195 4.231zM607.031 348.065l-20.838 33.091a19.566 19.566 0 0 1-2.511-2.873l21.309-33.872a27.681 27.681 0 0 1 2.04 3.654z"/></g><path d="M522.539 339.146v21.059a14.183 14.183 0 0 0 .691 4.399 62.737 62.737 0 0 1 3.093 20.543h-44.276s2.589-6.431 14.324-10.374a15.56 15.56 0 0 0 5.648-3.462l4.321-4.026c1.177-1.093 2.07-2.505 2.59-4.096.52-1.592.648-3.305.371-4.967l-3.115-19.052 16.353-.024z" fill="#BD5331"/><path d="m524.239 368.03-10.737 5.613-7.908-5.697-3.575 3.329a15.56 15.56 0 0 1-5.648 3.462c-11.735 3.943-14.324 10.374-14.324 10.374h44.276a61.471 61.471 0 0 0-2.084-17.081z" fill="#D97C2F"/><path d="m558.238 339.182 3.849 23.619a12.174 12.174 0 0 1 0 3.606l-2.544 18.812h33.9s-.461-5.554-2.073-7.068c-1.612-1.515-6.219-5.313-6.219-5.313l-6.92-7.885c-1.56-1.772-2.493-4.094-2.632-6.551l-1.097-19.232-16.264.012z" fill="#BD5331"/><path d="M578.582 365.241a15.483 15.483 0 0 0-6.475 1.902c-2.017 1.109-3.807 2.659-5.26 4.553l-5.001-2.873-2.193 16.36h33.9s-.461-5.554-2.073-7.068c-1.612-1.515-6.219-5.313-6.219-5.313l-6.679-7.561z" fill="#D97C2F"/><path d="m505.671 88.36 14.543-17.045 17.635-.108 9.849 17.2-8.379 56.988-32.825-.024-.823-57.012z" fill="#D4B5A5"/><path d="m516.968 90.21 10.101-9.219 11.976 12.898M527.069 85.354l-6.482 54.583" stroke="#fff" stroke-width=".46" stroke-miterlimit="10"/><path d="m556.45 174.399 27.199 167.463-31.136-.036-31.959-150.142 9.476 152.017-31.477-.024-8.73-176.478 14.335-21.54 45.163 1.31 7.129 27.43z" fill="#142216"/><path d="m556.45 174.399-7.129-27.43-45.163-1.31-14.335 21.54.22 4.399c9.793.217 42.07 1.839 68.107 13.294l-1.7-10.493z" fill="#215681" style="mix-blend-mode:multiply" opacity=".57"/><path d="m520.28 191.756-3.334-14.484.011-.06 2.347-28.139.548.048-2.347 28.103 3.312 14.388-.537.144z" fill="#F7EEDF"/><path d="m507.152 180.108 29.634.024" stroke="#BFD4EA" stroke-miterlimit="10" style="mix-blend-mode:multiply"/><path d="m517.187 174.387-1.689-25.278.548-.036 1.7 25.266-.559.048zM507.963 343.701l-8.159-183.738.559-.036 8.16 183.738-.56.036zM569.194 341.898l-30.149-181.863.537-.108 30.161 181.863-.549.108z" fill="#F7EEDF"/><path d="M546.601 143.159h-43.277v7.56h43.277v-7.56z" fill="#1B2536"/><path d="M526.038 25.735c3.512.652 6.796 2.34 9.501 4.88 2.704 2.54 4.728 5.84 5.853 9.544 1.382 4.075 1.634 8.246 4.914 10.818 1.228.905 2.207 2.16 2.831 3.63.625 1.47.87 3.1.711 4.712a8.463 8.463 0 0 0 .445 3.811 7.791 7.791 0 0 0 2.056 3.113h-48.158s2.676-4.448 2.193-8.234c-.482-3.787-2.193-6.359-.943-10.241 1.25-3.883 2.852-5.638.527-8.907-3.367-4.808 1.919-16.648 20.07-13.126z" fill="#142216"/><path d="M524.502 34.365c0 1.635 1.261 10.987 8.182 14.665l.515 5.24 4.65 16.937-10.901 8.774-6.734-8.666v-7.609c-4.497.445-8.237-2.404-8.522-7.717-.285-5.313-.054-9.916-1.436-12.765 0-.036 7.041-.156 14.246-8.859z" fill="#BD5331"/><path d="M528.297 53.61a2.91 2.91 0 0 1-.418 1.509c-.272.446-.66.795-1.112 1a2.28 2.28 0 0 1-1.433.155 2.424 2.424 0 0 1-1.269-.744 2.814 2.814 0 0 1-.678-1.39 2.952 2.952 0 0 1 .141-1.57c.188-.496.505-.92.913-1.22a2.328 2.328 0 0 1 1.377-.457c.657 0 1.288.286 1.753.796.464.509.726 1.2.726 1.92z" fill="#D65353"/><path d="M520.949 63.55a10.238 10.238 0 0 0 4.454-1.35 11.264 11.264 0 0 0 3.552-3.242" stroke="#422424" stroke-width=".46" stroke-miterlimit="10"/><path d="M537.477 50.34c-1.218 3.005-3.905 4.616-6.022 3.606-2.116-1.01-2.84-4.291-1.634-7.284 1.207-2.993 3.905-4.616 6.01-3.606 2.106 1.01 2.852 4.291 1.646 7.284z" fill="#BD5331"/><path d="M531.126 50.484s.779-4.555 4.387-5.445M534.197 48.777l-.548-2.812" stroke="#422424" stroke-width=".46" stroke-miterlimit="10"/><path d="M537.158 53.333c0 .364-.098.72-.283 1.023a1.724 1.724 0 0 1-.755.677 1.542 1.542 0 0 1-.971.103 1.638 1.638 0 0 1-.859-.507 1.908 1.908 0 0 1-.457-.945 2.015 2.015 0 0 1 .1-1.063c.129-.336.346-.622.623-.823a1.576 1.576 0 0 1 1.576-.164c.203.093.387.228.542.4.155.17.278.373.361.596.083.223.125.462.123.703z" stroke="#fff" stroke-width=".46" stroke-miterlimit="10"/><path d="m515.059 50.016.56-.89a1.277 1.277 0 0 0-.503-.354 1.176 1.176 0 0 0-.594-.067c-.244.044-.47.166-.651.35a1.418 1.418 0 0 0-.368.685c-.059.263-.046.539.037.794.083.255.233.477.43.64a1.176 1.176 0 0 0 1.387.094c.214-.135.387-.336.498-.578.111-.242.155-.514.126-.783v-.156l-.922.265zM522.89 48.657l.548-.89a1.256 1.256 0 0 0-.5-.363 1.158 1.158 0 0 0-.597-.069 1.226 1.226 0 0 0-.661.348 1.417 1.417 0 0 0-.376.692c-.061.266-.049.545.035.803.084.259.235.484.435.649a1.184 1.184 0 0 0 1.403.091c.216-.137.391-.342.502-.587.11-.246.153-.522.121-.794 0 0 0-.096-.055-.144l-.855.264z" fill="#1B2536"/><path d="M517.922 49.739v2.717c0 1.226 1.294 1.899 2.731.853M518.35 55.713a5.49 5.49 0 0 0 3.542-.115c1.143-.429 2.141-1.227 2.863-2.29M523.811 52.72l1.459.974" stroke="#422424" stroke-width=".46" stroke-miterlimit="10"/><path d="M519.94 44.618s3.147-1.13 5.341-.276M512.712 46.29a5.22 5.22 0 0 1 4.201-.506" stroke="#732727" stroke-width=".97" stroke-linecap="round" stroke-linejoin="round"/><path d="m537.85 71.207-10.595 71.243a21.456 21.456 0 0 0 .636 9.219l4.19 14.208c.165.557.442 1.067.81 1.492.368.425.818.755 1.317.966a3.305 3.305 0 0 0 1.568.252 3.371 3.371 0 0 0 1.514-.511l20.729-13.101-8.983-14.977 11.9-45.977c.833-3.14.569-6.508-.741-9.446-1.31-2.938-3.572-5.236-6.344-6.445l-16.001-6.923z" fill="#324B85"/><path d="m544.485 140.647-10.957 10.084M539.418 73.84l.998 1.67c1.529 2.575 2.389 5.559 2.487 8.63a18.227 18.227 0 0 1-1.928 8.799l-1.93 3.798 2.193 6.984c.461 1.515.64 3.115.527 4.707a12.825 12.825 0 0 1-1.185 4.56l-11.691 25.243" stroke="#1B2536" stroke-width=".46" stroke-miterlimit="10"/><path d="m549.036 139.962-13.83 28.571a3.276 3.276 0 0 0 2.128-.493l20.728-13.102-9.026-14.976zM549.354 104.647l1.459 28.475 5.275-20.41-6.734-8.065z" fill="#1B2536"/><path d="m538.99 166.971 14.159 3.449-8.675-10.433-5.484 6.984z" fill="#BD5331"/><path d="m520.214 71.315-8.478 91.352c-.114 1.249-.647 2.407-1.497 3.248-.849.842-1.953 1.308-3.098 1.308h-20.904s8.324-22.009 15.08-34.125l-.175-6.611-9.805 11.311c-1.873 2.162-4.404 3.496-7.114 3.751-2.71.255-5.412-.588-7.593-2.369-2.262-1.847-3.798-4.567-4.297-7.61-.499-3.042.077-6.179 1.61-8.773l21.222-35.976c2.398-4.07 5.9-7.214 10.013-8.991l15.036-6.515z" fill="#324B85"/><path d="M519.084 72.745c-2.424 3.967-8.916 9.94-3.904 22.358-5.199 10.036-6.241 23.583-2.457 40.183M490.536 131.247l1.909-18.631" stroke="#1B2536" stroke-width=".46" stroke-miterlimit="10"/><path d="m526.016 129.312-32.924-.024-16.144-50.917 32.913.024 16.155 50.917z" fill="#fff"/><path d="m547.402 103.252 15.08 29.197-18.008 27.538 11.976 14.424 25.093-25.519c2.671-2.715 4.456-6.317 5.08-10.251.624-3.934.053-7.984-1.625-11.529l-16.769-35.423c-2.794-5.895-7.431-10.49-13.062-12.946l-6.109-2.656-1.656 27.165z" fill="#324B85"/><path d="m562.482 132.449 4.091-5.926" stroke="#1B2536" stroke-width=".46" stroke-miterlimit="10"/><path d="M478.637 106.39a19.79 19.79 0 0 1 4.321-4.869 27.642 27.642 0 0 1 3.455-2.211 1.508 1.508 0 0 1 1.014-.168c.345.065.663.25.905.528l1.645 1.911a1.942 1.942 0 0 1 .219 2.152l-3.827 7.08s5.67-3.318 6.054-3.029c.384.288-1.93 2.825-3.729 4.952-.724.87-1.691 1.452-2.749 1.654a4.478 4.478 0 0 1-3.097-.536c-2.369-1.382-4.924-3.774-4.211-7.464z" fill="#BD5331"/><path d="m482.004 105.68 6.635-5.649M484.384 108.914l5.483-7.308" stroke="#422424" stroke-width=".46" stroke-miterlimit="10"/><path d="M247.522 276.593H141.654l23.766-28.403c3.247-3.872 7.192-6.964 11.585-9.081 4.392-2.116 9.138-3.211 13.936-3.215h7.294c4.794.01 9.535 1.108 13.923 3.224s8.33 5.205 11.576 9.072l23.788 28.403zm-100.45-2.608h95.021l-20.103-24.04c-3.023-3.603-6.695-6.48-10.784-8.449-4.089-1.97-8.505-2.989-12.971-2.994h-7.294c-4.472.013-8.894 1.043-12.985 3.026-4.09 1.982-7.762 4.872-10.781 8.489l-20.103 23.968z" fill="#F7EEDF"/><path d="M269.018 268.3h-148.86v55.881h148.86V268.3z" fill="#324B85"/><path d="M269.018 324.193h-148.86v61.29h148.86v-61.29z" fill="#142216"/><path d="M243.475 310.442h-9.871v51.037h9.871v-51.037zM155.572 310.442h-9.871v51.037h9.871v-51.037z" stroke="#fff" stroke-width=".66" stroke-miterlimit="10"/><path d="M282.453 386.745c-60.474-36.18-47.829-92.662-47.829-92.662 33.012-.674 47.829-34.859 47.829-34.859s14.806 34.149 47.817 34.859c0 0 12.657 56.482-47.817 92.662z" fill="#B14F18"/><path d="M282.453 379.762c-11.757-7.429-21.288-16.215-28.362-26.156-5.894-8.182-10.218-17.586-12.711-27.646a79.531 79.531 0 0 1-1.963-26.048c13.161-1.478 25.345-8.029 35.435-19.148a79.98 79.98 0 0 0 7.601-9.868 78.68 78.68 0 0 0 7.589 9.868c10.101 11.119 22.264 17.67 35.436 19.148a79.431 79.431 0 0 1-1.942 26c-2.496 10.061-6.824 19.465-12.722 27.646-7.085 9.989-16.615 18.775-28.361 26.204z" fill="#D77C2F"/><path d="M282.453 356.31c14.628 0 26.486-12.996 26.486-29.028 0-16.032-11.858-29.028-26.486-29.028s-26.486 12.996-26.486 29.028c0 16.032 11.858 29.028 26.486 29.028z" fill="#B14F18"/><path d="M282.453 352.103c-5.243.003-10.324-1.988-14.377-5.632-4.054-3.643-6.829-8.715-7.854-14.35-1.024-5.635-.233-11.485 2.237-16.553 2.471-5.068 6.468-9.04 11.311-11.24 4.844-2.199 10.233-2.49 15.25-.823 5.017 1.668 9.351 5.19 12.264 9.968 2.913 4.777 4.224 10.514 3.71 16.232-.514 5.718-2.821 11.064-6.529 15.126-2.097 2.313-4.593 4.146-7.341 5.395a20.795 20.795 0 0 1-8.671 1.877z" fill="#D77C2F"/><path d="M282.585 311.56c7.249 0 12.173 4.808 13.292 11.852h-9.07a5.022 5.022 0 0 0-1.753-2.308 4.364 4.364 0 0 0-2.634-.83c-2.906 0-4.694 2.585-4.694 6.587 0 4.003 1.788 6.587 4.694 6.587a4.365 4.365 0 0 0 2.636-.834 5.03 5.03 0 0 0 1.751-2.315h9.07c-1.097 7.092-6.043 11.852-13.292 11.852-8.412 0-13.567-6.335-13.567-15.29 0-8.955 5.166-15.301 13.567-15.301zM245.262 304.913c0 .335-.091.664-.261.943-.17.279-.413.496-.696.624s-.594.16-.895.094a1.51 1.51 0 0 1-.791-.467 1.75 1.75 0 0 1-.421-.871 1.846 1.846 0 0 1 .093-.98c.118-.31.318-.574.574-.758a1.446 1.446 0 0 1 1.452-.151c.187.085.357.21.5.368.142.158.255.344.332.55.076.206.115.426.113.648zM323.021 304.913c0 .335-.091.663-.261.941-.17.279-.411.496-.694.625a1.424 1.424 0 0 1-.893.096 1.507 1.507 0 0 1-.792-.464 1.755 1.755 0 0 1-.423-.868 1.844 1.844 0 0 1 .088-.979c.117-.31.315-.574.569-.76a1.427 1.427 0 0 1 1.451-.157c.188.085.359.21.502.367.144.158.258.344.335.55.078.206.118.426.118.649zM283.988 279.382c0 .335-.09.663-.26.942-.17.278-.412.496-.694.624a1.42 1.42 0 0 1-.894.096 1.51 1.51 0 0 1-.792-.463 1.755 1.755 0 0 1-.423-.868 1.852 1.852 0 0 1 .088-.979c.117-.31.315-.575.57-.761.254-.186.553-.286.859-.286.41 0 .803.179 1.093.497.29.318.453.749.453 1.198zM283.988 375.242c0 .335-.09.663-.26.942-.17.278-.412.496-.694.624a1.42 1.42 0 0 1-.894.096 1.504 1.504 0 0 1-.792-.464 1.756 1.756 0 0 1-.423-.867 1.856 1.856 0 0 1 .088-.98c.117-.309.315-.574.57-.76.254-.186.553-.286.859-.286.41 0 .803.179 1.093.497.29.317.453.749.453 1.198z" fill="#B14F18"/><path d="M493.421 353.065c17.989 0 32.573-15.983 32.573-35.7 0-19.716-14.584-35.699-32.573-35.699-17.99 0-32.573 15.983-32.573 35.699 0 19.717 14.583 35.7 32.573 35.7z" fill="#CC6017"/><path d="M498.937 353.065c17.99 0 32.573-15.983 32.573-35.7 0-19.716-14.583-35.699-32.573-35.699-17.99 0-32.573 15.983-32.573 35.699 0 19.717 14.583 35.7 32.573 35.7z" fill="#EA9B1C"/><path d="M523.013 323.521c3.11-14.59-5.161-29.181-18.473-32.59-13.313-3.408-26.626 5.656-29.736 20.246-3.11 14.59 5.161 29.181 18.473 32.59 13.312 3.409 26.626-5.656 29.736-20.246z" fill="#CC6017"/><path d="M498.937 340.468c11.642 0 21.079-10.343 21.079-23.103 0-12.759-9.437-23.102-21.079-23.102-11.642 0-21.079 10.343-21.079 23.102 0 12.76 9.437 23.103 21.079 23.103z" fill="#CC6017" style="mix-blend-mode:multiply" opacity=".58"/><path d="M507.405 315.575c0 1.484-.539 2.782-1.617 3.895-1.06 1.096-2.579 1.82-4.558 2.173v2.942h-3.736v-2.809a17.93 17.93 0 0 1-3.816-.61c-1.202-.335-2.2-.751-2.995-1.245l2.014-4.558c.883.512 1.873.927 2.968 1.245 1.095.301 2.147.451 3.154.451.865 0 1.484-.08 1.855-.239.371-.176.556-.433.556-.768 0-.389-.247-.68-.742-.875-.477-.194-1.272-.406-2.385-.636-1.431-.3-2.623-.618-3.577-.954a6.258 6.258 0 0 1-2.491-1.696c-.707-.795-1.06-1.864-1.06-3.206 0-1.555.556-2.889 1.669-4.002 1.131-1.113 2.747-1.819 4.85-2.12v-2.888h3.736v2.835c2.12.195 3.913.707 5.38 1.537l-1.882 4.532c-1.82-.919-3.542-1.378-5.167-1.378-1.608 0-2.412.388-2.412 1.166 0 .371.239.653.716.848.477.176 1.263.371 2.358.583 1.413.265 2.606.574 3.578.927a6.01 6.01 0 0 1 2.517 1.67c.724.777 1.087 1.837 1.087 3.18z" fill="#EA9B1C"/><path d="M172.65 192.992c16.67-7.411 24.702-28.23 17.94-46.501-6.762-18.27-25.758-27.073-42.428-19.662-16.671 7.412-24.703 28.231-17.94 46.501 6.762 18.271 25.758 27.073 42.428 19.662z" fill="#CC6017"/><path d="M188.948 185.17c12.721-13.942 12.721-36.546 0-50.487-12.72-13.942-33.344-13.942-46.065 0-12.72 13.941-12.72 36.545 0 50.487 12.721 13.941 33.345 13.941 46.065 0z" fill="#EA9B1C"/><path d="M165.914 187.056c13.671 0 24.753-12.146 24.753-27.129s-11.082-27.129-24.753-27.129-24.753 12.146-24.753 27.129 11.082 27.129 24.753 27.129z" fill="#CC6017"/><path d="M169.26 182.748c11.493-2.032 19.308-13.89 17.455-26.486-1.853-12.596-12.673-21.161-24.166-19.13-11.493 2.031-19.308 13.889-17.455 26.485 1.853 12.597 12.673 21.162 24.166 19.131z" fill="#CC6017" style="mix-blend-mode:multiply" opacity=".58"/><path d="M174.392 158.136c0 1.484-.538 2.783-1.616 3.896-1.06 1.095-2.579 1.819-4.558 2.173v2.941h-3.737v-2.809a17.93 17.93 0 0 1-3.816-.609c-1.201-.336-2.199-.751-2.994-1.246l2.014-4.558c.883.513 1.873.928 2.968 1.246 1.095.3 2.146.45 3.153.45.866 0 1.484-.079 1.855-.238.371-.177.557-.433.557-.769 0-.388-.247-.68-.742-.874-.477-.195-1.272-.407-2.385-.636-1.431-.301-2.624-.619-3.578-.954a6.286 6.286 0 0 1-2.491-1.696c-.706-.795-1.06-1.864-1.06-3.207 0-1.554.557-2.888 1.67-4.001 1.131-1.113 2.747-1.82 4.849-2.12v-2.889h3.737v2.836c2.12.194 3.913.706 5.379 1.537l-1.881 4.531c-1.82-.918-3.542-1.378-5.168-1.378-1.607 0-2.411.389-2.411 1.166 0 .371.238.654.715.848.477.177 1.264.371 2.359.583 1.413.265 2.606.574 3.577.928a6.005 6.005 0 0 1 2.518 1.669c.724.778 1.086 1.838 1.086 3.18zM636.468 28.644h33.637v19.893c0 4.489-1.627 8.793-4.523 11.967-2.896 3.174-6.824 4.957-10.919 4.957h-2.709c-4.096 0-8.024-1.783-10.919-4.957-2.896-3.174-4.523-7.478-4.523-11.967V28.644h-.044z" fill="#EA9B1C"/><path d="m645.669 44.883 5.045 5.53 10.134-11.107" stroke="#fff" stroke-width="5" stroke-miterlimit="10"/><path d="M636.468 121.703h33.637v19.893c0 4.489-1.627 8.794-4.523 11.967-2.896 3.174-6.824 4.957-10.919 4.957h-2.709c-4.096 0-8.024-1.783-10.919-4.957-2.896-3.173-4.523-7.478-4.523-11.967v-19.893h-.044z" fill="#CC6017"/><path d="M652.158 142.411c-1.627 0-3.087-.343-4.381-1.029-1.293-.686-2.303-1.637-3.028-2.852-.725-1.235-1.088-2.627-1.088-4.175s.363-2.93 1.088-4.145a7.631 7.631 0 0 1 2.999-2.852c1.293-.686 2.763-1.029 4.41-1.029 1.548 0 2.901.313 4.057.941a6.083 6.083 0 0 1 2.646 2.704l-2.822 1.647c-.451-.725-1.02-1.264-1.706-1.617a4.435 4.435 0 0 0-2.205-.559c-1.372 0-2.508.451-3.41 1.353-.902.882-1.352 2.067-1.352 3.557 0 1.49.441 2.685 1.323 3.587.901.882 2.048 1.323 3.439 1.323.804 0 1.539-.177 2.205-.529.686-.373 1.255-.922 1.706-1.647l2.822 1.647a6.43 6.43 0 0 1-2.675 2.734c-1.157.627-2.499.941-4.028.941zM636.468 74.8h33.637v19.894c0 4.489-1.627 8.793-4.523 11.967-2.896 3.174-6.824 4.957-10.919 4.957h-2.709c-4.096 0-8.024-1.783-10.919-4.957-2.896-3.174-4.523-7.478-4.523-11.967V74.801h-.044z" fill="#EA9B1C"/><path d="M653.643 82.025h-.757c-2.423 0-4.387 2.152-4.387 4.808v3.293c0 2.656 1.964 4.808 4.387 4.808h.757c2.423 0 4.387-2.152 4.387-4.808v-3.293c0-2.656-1.964-4.808-4.387-4.808z" stroke="#fff" stroke-width="3" stroke-miterlimit="10"/><path d="M658.435 86.773h-10.353c-1.859 0-3.367 1.652-3.367 3.69v8.186c0 2.038 1.508 3.69 3.367 3.69h10.353c1.86 0 3.367-1.652 3.367-3.69v-8.186c0-2.038-1.507-3.69-3.367-3.69z" fill="#CC6017"/><path d="M653.423 91.1h-.329c-1.078 0-1.952.958-1.952 2.14v.36c0 1.182.874 2.14 1.952 2.14h.329c1.078 0 1.952-.958 1.952-2.14v-.36c0-1.182-.874-2.14-1.952-2.14z" fill="#EA9B1C"/><path d="M97.642 104.382c21.987 0 39.812-14.68 39.812-32.79S119.629 38.8 97.642 38.8 57.831 53.48 57.831 71.59s17.824 32.791 39.811 32.791z" fill="#D6E3A6"/><path d="m109.673 95.992 1.525 27.177-26.31-27.177h24.785z" fill="#D6E3A6"/><path d="M112.569 55.99H82.705M112.569 64.716H82.705M112.569 73.442H82.705M112.569 82.157H82.705" stroke="#fff" stroke-width=".97" stroke-miterlimit="10"/><path d="M424.886 159.734a1.05 1.05 0 0 1-.776-.352 1.265 1.265 0 0 1-.321-.85v-17.669c0-.319.116-.625.321-.85.206-.225.485-.352.776-.352.291 0 .57.127.775.352.206.225.322.531.322.85v17.669c0 .319-.116.625-.322.85a1.046 1.046 0 0 1-.775.352z" fill="#B34F18"/><path d="M432.947 150.9h-16.122a1.05 1.05 0 0 1-.775-.352 1.263 1.263 0 0 1-.322-.85c0-.319.116-.625.322-.85.205-.226.484-.352.775-.352h16.122c.291 0 .57.126.776.352.205.225.321.531.321.85 0 .319-.116.624-.321.85a1.053 1.053 0 0 1-.776.352zM198.509 99.358c-.291 0-.57-.127-.776-.352a1.266 1.266 0 0 1-.321-.85V80.534c0-.318.116-.624.321-.85.206-.225.485-.352.776-.352.291 0 .57.127.775.352.206.226.322.532.322.85v17.67c-.012.31-.132.604-.337.819a1.047 1.047 0 0 1-.76.335z" fill="#B34F18"/><path d="M206.548 90.523h-16.122c-.291 0-.57-.127-.776-.352a1.266 1.266 0 0 1-.321-.85c0-.319.116-.624.321-.85.206-.225.485-.352.776-.352h16.122c.291 0 .57.127.775.352.206.225.322.531.322.85 0 .319-.116.625-.322.85a1.048 1.048 0 0 1-.775.352zM619.918 205.639a1.05 1.05 0 0 1-.775-.352 1.261 1.261 0 0 1-.322-.85v-17.645c0-.319.116-.625.322-.85.205-.226.484-.352.775-.352.291 0 .57.126.776.352.205.225.321.531.321.85v17.669a1.264 1.264 0 0 1-.329.835 1.05 1.05 0 0 1-.768.343z" fill="#B34F18"/><path d="M627.979 196.792h-16.122a1.085 1.085 0 0 1-.613-.422 1.277 1.277 0 0 1-.24-.75c0-.272.085-.536.24-.749.155-.213.371-.362.613-.423h16.122a.995.995 0 0 1 .488.001c.161.04.311.119.44.232.129.112.233.255.304.418a1.29 1.29 0 0 1 0 1.043 1.19 1.19 0 0 1-.304.418 1.052 1.052 0 0 1-.44.232c-.16.04-.327.04-.488 0zM253.938 245.906a1.05 1.05 0 0 1-.776-.352 1.265 1.265 0 0 1-.321-.85v-17.645a1.339 1.339 0 0 1 0-.535c.037-.176.109-.341.212-.482.103-.141.233-.255.382-.333a1.008 1.008 0 0 1 .951 0c.149.078.279.192.382.333.103.141.175.306.212.482.036.176.036.359 0 .535v17.669a1.261 1.261 0 0 1-.309.814 1.058 1.058 0 0 1-.733.364z" fill="#B34F18"/><path d="M261.999 237.072h-16.122a1.05 1.05 0 0 1-.776-.353 1.264 1.264 0 0 1-.321-.849c0-.319.116-.625.321-.85a1.05 1.05 0 0 1 .776-.353h16.122c.291 0 .57.127.776.353.205.225.321.531.321.85 0 .318-.116.624-.321.849a1.05 1.05 0 0 1-.776.353zM575.523 20.013c-.291 0-.57-.126-.776-.352a1.261 1.261 0 0 1-.321-.85V1.202c0-.319.115-.625.321-.85.206-.225.485-.352.776-.352.29 0 .569.127.775.352.206.225.321.531.321.85v17.67a1.255 1.255 0 0 1-.34.81 1.046 1.046 0 0 1-.756.331z" fill="#B34F18"/><path d="M583.583 11.179h-16.122c-.29 0-.569-.127-.775-.352a1.261 1.261 0 0 1-.321-.85c0-.32.115-.625.321-.85.206-.226.485-.352.775-.352h16.122c.291 0 .57.126.776.352.206.225.321.53.321.85 0 .318-.115.624-.321.85a1.052 1.052 0 0 1-.776.352z" fill="#B34F18"/></svg>