<svg width="397" height="210" fill="none" xmlns="http://www.w3.org/2000/svg"><path d="M395.874 194.046c1.288 0-1.529-34.973-1.933-38.059a190.482 190.482 0 0 0-9.326-39.379c-8.359-23.276-21.255-41.618-41.447-49.437-17.072-6.609-36.044-3.547-51.907 6.293-15.004 9.326-26.37 24.952-40.115 36.559-8.827 7.338-18.852 12.833-29.557 16.201-19.906 6.212-41.057 6.092-60.902-.345-31.35-10.445-57.102-37.963-94.113-31.294-1.58.285-3.142.605-4.688 1.023-24.942 6.427-35.685 24.207-44.623 43.046-8.415 17.72-13.8 36.559-17.263 55.392h395.874z" fill="#C0D76F"/><path d="M197.31 26.24h-.067a16.305 16.305 0 0 1-6.279-.187 27.39 27.39 0 0 1-5.678-1.997c-1.782-.841-3.479-1.816-5.126-2.736l-4.902-2.868c-3.221-1.852-6.47-3.504-9.871-4.176a16.809 16.809 0 0 0-10.119 1.174c-3.245 1.422-6.025 3.848-7.988 6.972-1.975 3.146-3.091 6.826-3.221 10.62v.443c0 1.76.259 3.588.332 5.537.078 2.07-.141 4.351-1.344 6.258a5.392 5.392 0 0 1-2.468 2.142 4.089 4.089 0 0 1-3.215.048 3.187 3.187 0 0 1-1.36-1.101 4.2 4.2 0 0 1-.692-1.622c-.12-.601-.1-1.224.056-1.816a2.855 2.855 0 0 1 .979-1.53.529.529 0 0 1 .408-.104.559.559 0 0 1 .362.23.64.64 0 0 1-.113.817c-.261.261-.448.596-.54.967-.091.37-.084.761.023 1.127.072.386.234.746.47 1.046.236.3.538.532.879.673a2.88 2.88 0 0 0 2.249-.145 3.985 3.985 0 0 0 1.759-1.64c.866-1.477 1.04-3.395.9-5.277-.141-1.883-.523-3.91-.523-6.052-.006-4.238 1.105-8.391 3.204-11.977a21.064 21.064 0 0 1 3.845-4.841c2.274-2.095 4.937-3.643 7.812-4.54a19.556 19.556 0 0 1 8.855-.659c3.964.636 7.572 2.342 10.94 4.128l4.986 2.675c1.658.877 3.294 1.712 4.947 2.42 1.57.714 3.205 1.25 4.879 1.598 1.589.309 3.217.309 4.806 0h.034c.269-.06.547-.062.817-.007.27.056.527.169.756.332.229.163.426.373.58.619.154.245.261.521.315.811v.042a2.4 2.4 0 0 1-.017.874c-.059.288-.17.56-.327.8a2.14 2.14 0 0 1-.586.606c-.23.158-.487.265-.757.317z" fill="#142216"/><path d="M197.31 26.24h-.067a16.303 16.303 0 0 1-6.279-.187 27.39 27.39 0 0 1-5.678-1.997c-1.782-.841-3.479-1.816-5.126-2.736l-4.902-2.868c-3.221-1.852-6.47-3.504-9.871-4.176a16.809 16.809 0 0 0-10.119 1.174c-3.245 1.422-6.025 3.848-7.988 6.972-1.975 3.146-3.091 6.826-3.221 10.62.044-4.683 1.43-9.237 3.969-13.04 2.738-4.042 6.851-6.753 11.439-7.541 4.745-.72 9.557.877 13.879 3.056 4.323 2.178 8.433 4.944 12.896 6.79 4.053 1.664 8.601 2.53 12.76 1.344a2.375 2.375 0 0 1-.347 1.672 2.072 2.072 0 0 1-1.345.918z" fill="#BFD4EA" style="mix-blend-mode:multiply"/><path d="M196.444 26.24h.068c2.086.346 4.213.282 6.279-.187a27.388 27.388 0 0 0 5.677-1.997c1.782-.841 3.48-1.816 5.127-2.736l4.902-2.868c3.221-1.852 6.47-3.504 9.871-4.176a16.81 16.81 0 0 1 10.119 1.174c3.247 1.416 6.031 3.838 7.999 6.96 1.975 3.146 3.091 6.826 3.221 10.62v.442c0 1.761-.259 3.59-.332 5.538-.078 2.07.141 4.351 1.344 6.257a5.406 5.406 0 0 0 2.462 2.143 4.1 4.1 0 0 0 3.221.048 3.193 3.193 0 0 0 1.36-1.101 4.2 4.2 0 0 0 .692-1.622c.12-.601.1-1.225-.056-1.816a2.845 2.845 0 0 0-.939-1.494.532.532 0 0 0-.406-.101.557.557 0 0 0-.359.228.64.64 0 0 0 .113.817c.261.26.448.595.54.966.091.37.083.762-.023 1.127a2.42 2.42 0 0 1-.471 1.045c-.236.3-.538.532-.878.674a2.896 2.896 0 0 1-2.249-.145 3.973 3.973 0 0 1-1.754-1.64c-.865-1.477-1.04-3.395-.899-5.277.14-1.882.523-3.91.523-6.052.003-4.238-1.108-8.39-3.205-11.977a21.065 21.065 0 0 0-3.845-4.841c-2.273-2.095-4.936-3.643-7.811-4.54a19.56 19.56 0 0 0-8.856-.659c-3.963.636-7.572 2.343-10.939 4.128l-4.986 2.675c-1.659.877-3.294 1.712-4.947 2.42a23.219 23.219 0 0 1-4.947 1.55 12.574 12.574 0 0 1-4.806 0h-.034a1.967 1.967 0 0 0-1.558.349 2.264 2.264 0 0 0-.876 1.43v.042a2.39 2.39 0 0 0 .337 1.663c.31.485.784.82 1.321.934z" fill="#142216"/><path d="M196.445 26.24h.067c2.087.346 4.214.282 6.279-.187a27.39 27.39 0 0 0 5.678-1.997c1.782-.841 3.479-1.816 5.126-2.736l4.902-2.868c3.221-1.852 6.471-3.504 9.871-4.176a16.809 16.809 0 0 1 10.119 1.174c3.248 1.416 6.032 3.839 7.999 6.96 1.975 3.146 3.091 6.826 3.221 10.62-.044-4.683-1.43-9.237-3.968-13.04-2.739-4.042-6.851-6.753-11.44-7.541-4.744-.72-9.556.877-13.879 3.056-4.323 2.178-8.432 4.944-12.896 6.79-4.03 1.676-8.578 2.517-12.743 1.355-.093.58.03 1.177.341 1.66.311.485.786.819 1.323.93z" fill="#BFD4EA" style="mix-blend-mode:multiply"/><path d="M194.449 126.882h-.225c-14.413 0-1.433-58.703-1.433-58.703h.404l2.305-45.061h2.372v45.086s10.647 58.073-3.423 58.678z" fill="#142216"/><path d="M194.449 126.882c2.98-8.66 4.059-18.046 4.008-27.318a228.928 228.928 0 0 0-2.333-31.887l.765-43.633h.984v44.178s10.647 58.055-3.424 58.66z" fill="#BFD4EA" style="mix-blend-mode:multiply"/><path d="M195.556 73.85c3.819 0 6.915-3.333 6.915-7.444 0-4.11-3.096-7.443-6.915-7.443-3.818 0-6.914 3.332-6.914 7.443s3.096 7.444 6.914 7.444z" fill="#D97C2F"/><path d="M202.471 66.406a7.816 7.816 0 0 1-1.401 4.497c-.91 1.295-2.188 2.233-3.64 2.672a6.448 6.448 0 0 1-4.4-.24c-1.403-.596-2.587-1.669-3.37-3.055a6.447 6.447 0 0 0 3.597 1.089 6.542 6.542 0 0 0 3.492-1.02 7.218 7.218 0 0 0 2.535-2.78 7.895 7.895 0 0 0 .884-3.776 7.866 7.866 0 0 0-1.008-3.741 7.237 7.237 0 0 1 2.427 2.711 7.893 7.893 0 0 1 .884 3.643z" fill="#BFD4EA" style="mix-blend-mode:multiply"/><path d="m197.805 52.584-4.238.103c-2.283.054-2.294 3.885 0 3.83l4.238-.102c2.283-.06 2.316-3.885 0-3.831zM196.889 29.581c2.841 0 5.143-2.479 5.143-5.537s-2.302-5.538-5.143-5.538c-2.841 0-5.144 2.48-5.144 5.538 0 3.058 2.303 5.537 5.144 5.537z" fill="#D97C2F"/><path d="M196.889 27.838c-.692 0-1.368-.22-1.943-.634a3.721 3.721 0 0 1-1.288-1.69 4.037 4.037 0 0 1-.198-2.174c.134-.73.467-1.401.956-1.928a3.427 3.427 0 0 1 1.791-1.03 3.265 3.265 0 0 1 2.02.214 3.564 3.564 0 0 1 1.569 1.387c.384.619.589 1.346.589 2.091a3.92 3.92 0 0 1-1.025 2.66c-.656.705-1.544 1.103-2.471 1.104zm0-6.439c-.492 0-.972.157-1.381.45a2.646 2.646 0 0 0-.915 1.201 2.865 2.865 0 0 0-.141 1.546c.096.519.332.995.68 1.37.347.374.79.628 1.272.732.482.103.982.05 1.436-.153a2.533 2.533 0 0 0 1.115-.985c.273-.44.418-.957.418-1.486a2.87 2.87 0 0 0-.182-1.032 2.715 2.715 0 0 0-.537-.877 2.49 2.49 0 0 0-.809-.588 2.338 2.338 0 0 0-.956-.208v.03z" fill="#142216"/><path d="M221.218 132.789v11.08l-9.995-.538-42.638-2.294.096-1.561.314-5.296.428-7.068s27.409-8.63 49.383 4.176c.81.468 1.614.968 2.412 1.501z" fill="#D97C2F"/><path d="M221.218 135.512v8.357l-52.633-2.832.41-6.857c8.865.315 39.996 1.047 52.223 1.332z" fill="#FFB549"/><path d="m232.911 153.407-58.328.841-15.239.224.995-15.244 8.342.248 45.589 1.325 6.948.206 9.866.284 1.827 12.116z" fill="#142216"/><path d="m232.911 153.407-58.328.841-.365-1.035s25.01-1.67 37.006-9.882a19.44 19.44 0 0 0 3.046-2.53c2.249-2.318 3.671-5.683 4.537-9.513a44.09 44.09 0 0 1 2.411 1.501v8.218l9.866.284 1.827 12.116z" fill="#BFD4EA" style="mix-blend-mode:multiply"/><path d="M112.697 80.24a.476.476 0 0 1-.332-.132.546.546 0 0 1-.122-.167.58.58 0 0 1 .066-.602l26.567-33.406a.51.51 0 0 1 .377-.194.47.47 0 0 1 .206.047.501.501 0 0 1 .17.135l27.888 33.406c.09.109.136.25.128.396a.563.563 0 0 1-.168.379.483.483 0 0 1-.365.137.492.492 0 0 1-.348-.18l-27.495-32.946-26.19 32.934a.51.51 0 0 1-.171.142.477.477 0 0 1-.211.052z" fill="#142216"/><path d="M128.128 79.345a.484.484 0 0 1-.233-.065.533.533 0 0 1-.18-.173.588.588 0 0 1-.059-.5l11.13-32.51a.552.552 0 0 1 .102-.181.507.507 0 0 1 .159-.125.47.47 0 0 1 .386-.015.504.504 0 0 1 .287.283.581.581 0 0 1 .016.42l-11.13 32.503a.546.546 0 0 1-.185.263.483.483 0 0 1-.293.1z" fill="#142216"/><path d="M142.637 102.881c-.798.048-1.625.072-2.473.072h-.394c-1.769 0-3.433-.079-4.992-.236-24.79-2.469-23.688-23.342-23.688-23.342s3.435-.538 8.91-1.101c1.917-.194 4.081-.4 6.436-.575 9.163-.696 21.187-1.083 32.509.163 3.249.364 6.447.854 9.5 1.513 0-.012 1.169 22.035-25.808 23.506z" fill="#EA9B1C"/><path d="M140.388 102.881c15.498-4.34 16.645-17.036 16.302-25.013 3.249.364 6.442.854 9.495 1.513.011-.018 1.18 22.029-25.797 23.5z" fill="#DBC8AA" style="mix-blend-mode:multiply"/><path d="M137.921 102.935h-.399c-1.769 0-3.433-.079-4.992-.236-4.731-1.568-8.802-4.873-11.502-9.34-2.701-4.466-3.86-9.81-3.276-15.103 1.916-.194 4.086-.4 6.442-.575-.93 5.255-.093 10.695 2.361 15.347 2.527 4.695 6.574 8.222 11.366 9.907z" fill="#fff" style="mix-blend-mode:soft-light"/><path d="M228.127 80.24a.476.476 0 0 1-.332-.132.557.557 0 0 1-.176-.372.57.57 0 0 1 .12-.397L254.3 45.933a.53.53 0 0 1 .172-.14.491.491 0 0 1 .21-.054c.071 0 .142.016.207.047a.501.501 0 0 1 .17.135l27.865 33.406a.578.578 0 0 1-.039.775.486.486 0 0 1-.365.137.492.492 0 0 1-.349-.18l-27.472-32.946-26.19 32.934a.51.51 0 0 1-.171.142.477.477 0 0 1-.211.052z" fill="#142216"/><path d="M243.563 79.345a.483.483 0 0 1-.235-.063.52.52 0 0 1-.181-.173.579.579 0 0 1-.062-.502l11.125-32.51a.531.531 0 0 1 .269-.275.479.479 0 0 1 .371-.006c.12.048.219.142.277.265a.59.59 0 0 1 .039.397l-11.131 32.504a.536.536 0 0 1-.183.262.48.48 0 0 1-.289.101z" fill="#142216"/><path d="M258.207 102.881c-.799.048-1.625.072-2.474.072h-.393c-1.773 0-3.437-.079-4.992-.236-24.79-2.469-23.689-23.342-23.689-23.342s3.435-.538 8.91-1.101c1.912-.194 4.081-.4 6.437-.575 9.163-.696 21.187-1.083 32.508.163 3.249.364 6.448.854 9.495 1.513 0-.012 1.175 22.035-25.802 23.506z" fill="#EA9B1C"/><path d="M258.207 102.881c15.498-4.34 16.639-17.036 16.302-25.013 3.249.364 6.448.854 9.495 1.513.005-.018 1.18 22.029-25.797 23.5z" fill="#DBC8AA" style="mix-blend-mode:multiply"/><path d="M255.733 102.935h-.393c-1.773 0-3.437-.079-4.992-.236-4.732-1.566-8.804-4.87-11.505-9.337-2.701-4.468-3.859-9.814-3.274-15.106 1.912-.194 4.082-.4 6.437-.575-.925 5.255-.088 10.693 2.361 15.347 2.529 4.694 6.576 8.22 11.366 9.907z" fill="#fff" style="mix-blend-mode:soft-light"/><path d="m198.569 153.764-4.604 26.628-17.707-.387-3.069-.073-21.243-.472c-.051-.091-.096-.182-.141-.272-4.328-8.13-4.282-16.255.141-24.377l20.411-.454 2.99-.073 5.346-.114 17.876-.406z" fill="#BD4A2C"/><path d="M158.916 154.648s-7.96 10.838 0 24.957l8.101.182s-7.398-10.476 0-25.315l-8.101.176z" fill="#8A2C08"/><path d="m176.258 179.999-3.069-.073c-2.142-3.837-3.342-8.198-3.487-12.672a28.081 28.081 0 0 1 2.655-12.903l2.99-.073c-2.177 3.922-3.249 8.44-3.088 13.006.162 4.565 1.551 8.982 3.999 12.715z" fill="#F7EEDF"/><path d="m198.57 153.764-4.604 26.628-17.708-.387-3.069-.073-21.243-.472c-.051-.091-.096-.182-.141-.272 6.695-.194 13.145-2.746 18.363-7.265s8.916-10.755 10.526-17.753l17.876-.406z" fill="#BFD4EA" style="mix-blend-mode:multiply"/><path d="m210.296 175.829.562-18.319h22.058v-4.508l-47.287 1.053c-2.065 3.999-3.149 8.499-3.149 13.074 0 4.576 1.084 9.076 3.149 13.075l47.287 1.053v-4.841l-22.62-.587z" fill="#DB5633"/><path d="M227.362 167.901a35.512 35.512 0 0 0 1.501 8.394l-41.598-1.053a19.202 19.202 0 0 1-1.917-7.983 23.15 23.15 0 0 1 1.917-9.749h41.598a23.768 23.768 0 0 0-1.501 10.391z" fill="#fff"/><path d="M190.053 160.669c2.807-.093 5.618-.133 8.432-.121 2.811 0 5.622.042 8.432.097 2.811.054 5.622.151 8.432.272 2.811.121 5.622.285 8.404.503-2.81.088-5.621.129-8.432.121-2.81 0-5.621-.049-8.432-.103-2.81-.055-5.621-.152-8.432-.279-2.81-.127-5.604-.278-8.404-.49zM205.456 164.881a64.66 64.66 0 0 1 4.57-.212c1.523-.024 3.041 0 4.559 0 1.517 0 3.041.091 4.559.188 1.517.097 3.035.212 4.553.405a63.508 63.508 0 0 1-4.565.212c-1.517.024-3.041 0-4.564 0-1.524 0-3.036-.084-4.553-.181a72.252 72.252 0 0 1-4.559-.412zM200.341 172.034a39.357 39.357 0 0 1 3.564-.248 58.622 58.622 0 0 1 3.558 0c1.186.037 2.372.061 3.558.146 1.186.084 2.372.187 3.559.369a39.662 39.662 0 0 1-3.564.248 88.243 88.243 0 0 1-3.564.03 58.813 58.813 0 0 1-3.559-.151 43.876 43.876 0 0 1-3.552-.394zM191.127 168.73c2.102-.121 4.21-.188 6.313-.212 2.102-.024 4.204 0 6.301 0 2.097 0 4.205.091 6.307.188 2.103.097 4.199.218 6.302.405-2.103.121-4.211.194-6.313.212-2.102.018-4.199 0-6.302 0-2.102 0-4.204-.091-6.307-.187a145.735 145.735 0 0 1-6.301-.406z" fill="#7197D5"/><path d="m228.863 176.295-41.598-1.053a19.202 19.202 0 0 1-1.917-7.982c14.005.48 28.011.693 42.02.641a35.504 35.504 0 0 0 1.495 8.394z" fill="#BFD4EA" style="mix-blend-mode:multiply"/><path d="M194.112 164.651h-5.06c2.682 4.146 3.373 8.745 2.047 13.314 1.472-.902 2.996-1.815 4.469-2.717a12.868 12.868 0 0 0 2.091 2.838 16.362 16.362 0 0 0-.258-7.181 15.564 15.564 0 0 0-3.289-6.254z" fill="#C12C22"/><path d="m246.391 179.878-49.513-1.211-50.593-1.21v2.045l19.636.841v11.711l-19.641.393v2.251l51.969-.496 48.142-.46c2.737-4.75 2.675-9.368 0-13.864z" fill="#0E537E"/><path d="m246.391 193.754-5.622.049-31.918.302h-1.237l-9.376.091.073-.218c2.906-7.97.202-13.114-1.45-15.293l8.302.2 2.901.067 24.914.605 7.566.181 5.83.14c2.692 4.496 2.754 9.114.017 13.876z" fill="#4A80BD"/><path d="M197.097 186.849a9.402 9.402 0 0 1-1.125 4.612l-45.212.908a13.928 13.928 0 0 0 1.298-4.806c.177-2.77-.477-5.527-1.866-7.867l45.78 1.858a13.729 13.729 0 0 1 1.125 5.295z" fill="#fff"/><path d="M153.745 181.754c2.661-.089 5.322-.127 7.982-.115 2.659 0 5.318.042 7.977.09 2.659.049 5.318.146 7.977.261 2.659.115 5.318.266 7.977.472-2.665.088-5.328.127-7.988.115-2.659 0-5.318-.043-7.977-.091a295.1 295.1 0 0 1-7.977-.266 271.711 271.711 0 0 1-7.971-.466zM176.545 185.348c1.445-.127 2.884-.175 4.328-.199 1.445-.025 2.884 0 4.329 0 1.445 0 2.884.084 4.323.175 1.439.091 2.878.2 4.317.387-1.445.128-2.884.176-4.329.2-1.444.024-2.883 0-4.328 0-1.445 0-2.884-.085-4.323-.175a69.111 69.111 0 0 1-4.317-.388zM155.459 188.586c1.996-.115 3.986-.182 5.981-.2 1.996-.018 3.992 0 5.982 0 1.989 0 3.991.085 5.981.176 1.99.091 3.985.212 5.981.387-2.001.115-3.991.182-5.987.2-1.996.018-3.991 0-5.981 0-1.99 0-3.991-.085-5.981-.176-1.99-.09-3.986-.211-5.976-.387z" fill="#7197D5"/><path d="m240.786 193.803-31.918.302c2.743-6.324.528-12.43-.787-15.129l32.48.762c2.513 5.338 1.158 11.214.225 14.065z" fill="#0E537E"/><path d="M226.232 188.98c6.402 0 11.591-1.095 11.591-2.445 0-1.351-5.189-2.445-11.591-2.445-6.402 0-11.591 1.094-11.591 2.445 0 1.35 5.189 2.445 11.591 2.445z" fill="#25669C"/><path d="M197.097 186.849a9.402 9.402 0 0 1-1.125 4.612l-45.212.907a13.939 13.939 0 0 0 1.298-4.805c15.013.089 30.026-.149 45.039-.714zM246.391 193.754l-5.622.049-31.918.302h-1.237l-9.376.091.073-.218a17.631 17.631 0 0 0 4.626-3.449c-.499-4.044.294-8.15 2.249-11.644l2.9.067 24.914.605 7.567.181 5.829.14c2.67 4.496 2.732 9.114-.005 13.876z" fill="#BFD4EA" style="mix-blend-mode:multiply"/><path d="M190.317 184.09h2.463a10.17 10.17 0 0 1-.388 3.83 9.68 9.68 0 0 1-1.771 3.347 8.582 8.582 0 0 1-2.883 2.242 8.006 8.006 0 0 1-3.48.784c.269-.726.466-1.325.736-2.052a18.232 18.232 0 0 1-3.856.176 16.242 16.242 0 0 0 5.986-2.421 7.665 7.665 0 0 0 2.224-2.56 8.298 8.298 0 0 0 .969-3.346z" fill="#FFB549"/><path d="M331.437 189.034c.354.514 1.253.605 3.052.06a100.153 100.153 0 0 0 19.484-7.952l1.186-.647c.742-.418 1.478-.835 2.215-1.271a102.71 102.71 0 0 0 14.373-10.155l1.237-1.059c.281-.242.562-.49.849-.744 4.949-4.364 9.318-9.439 12.985-15.081.253-.406.506-.817.748-1.211 2.811-4.744 4.818-9.864 5.059-14.936v-1.059c.028-3.36-.842-6.659-2.508-9.502-1.665-2.842-4.056-5.109-6.885-6.529-.264-.139-.528-.278-.804-.405a18.906 18.906 0 0 0-1.877-.781 20.943 20.943 0 0 0-6.521-1.21h-.883c-4.372.124-8.636 1.482-12.367 3.939-.275.17-.562.351-.821.539-4.036 2.82-7.431 6.582-9.933 11.008-.045.067-.078.139-.118.206l-.477.871c-3.25 6.052-5.622 12.479-7.601 19.076-.163.538-.326 1.089-.483 1.634-1.973 6.699-3.643 13.519-5.621 20.182-1.046 3.589-2.176 7.154-3.486 10.645a17.982 17.982 0 0 0-1.04 3.28c-.056.387.029.781.237 1.102z" fill="#3E3E15"/><path d="M329.283 190.94c.726-.605 1.439-1.265 2.153-1.906a213.54 213.54 0 0 0 8.483-8.037 82.771 82.771 0 0 0 15.24-.502c.742-.418 1.478-.835 2.214-1.271a82.356 82.356 0 0 1-16.555.865 229.542 229.542 0 0 0 3.182-3.28 183.415 183.415 0 0 0 6.538-7.262h.079c2.469.077 4.937.109 7.403.097 4.583-.024 9.159-.226 13.727-.605l1.237-1.059c-7.204.622-14.435.824-21.659.605a213.248 213.248 0 0 0 10.017-12.709.455.455 0 0 0 .135.03c2.177 0 4.349-.084 6.515-.254a88.534 88.534 0 0 0 18.826-3.534c.253-.406.506-.817.748-1.21a76.668 76.668 0 0 1-3.609 1.059 87.124 87.124 0 0 1-21.923 2.983 216.561 216.561 0 0 0 4.783-6.863c.889-1.331 1.765-2.68 2.626-4.03a.362.362 0 0 0 .365.085c2.042-.493 4.07-1.037 6.082-1.634a113.762 113.762 0 0 0 16.758-6.536v-1.059c-.832.411-1.687.799-2.496 1.21a111.59 111.59 0 0 1-20.147 7.008 223.25 223.25 0 0 0 13.249-24.207c-.264-.139-.528-.279-.804-.406a218.4 218.4 0 0 1-7.791 15.1c-.337.605-.686 1.18-1.029 1.773.147-6.29.287-12.576.422-18.858h-.882l-.428 19.632a.424.424 0 0 0 .055.243c.041.073.103.13.176.163a210.384 210.384 0 0 1-8.432 13.253c-.27-2.112-.562-4.236-.81-6.336l-2.923-22.997c-.275.17-.562.351-.821.539.242 1.852.473 3.71.709 5.561l3.063 24.062a.425.425 0 0 0 .073.2 213.746 213.746 0 0 1-7.307 9.913 200.482 200.482 0 0 0-1.068-6.578 189.117 189.117 0 0 0-5.419-22.15c-.045.067-.079.139-.119.206l-.477.871c.343 1.15.685 2.3 1.011 3.456a188.96 188.96 0 0 1 5.346 25.012.553.553 0 0 0 .034.079c-.624.786-1.242 1.573-1.872 2.348a200.165 200.165 0 0 1-7.381 8.599 284.934 284.934 0 0 0-4.693-20.449c-.163.539-.327 1.09-.484 1.634a292.853 292.853 0 0 1 4.379 19.366.462.462 0 0 0 .113.218 219.236 219.236 0 0 1-6.42 6.742s-.039.03-.051.054a208.488 208.488 0 0 1-8.139 7.74 137.36 137.36 0 0 1-2.626 2.336c-.449.382.192 1.071.624.69z" fill="#142216"/><path d="m316.292 190.256 6.555.466.843.067 4.857.345c-.157-5.973 5.509-10.76 9.866-14.458 3.935-3.371 8.235-7.631 8.606-12.86a9.193 9.193 0 0 0 0-.968 5.22 5.22 0 0 0-.034-.605c-.152-1.876-.832-3.674-.905-5.556-.174-4.678 3.373-8.472 6.796-11.335 2.682-2.233 5.622-4.539 7.308-7.607.223-.41.422-.834.596-1.271.196-.489.354-.995.472-1.513 1.349-5.81-2.496-11.728-3.041-17.55 0-.327-.051-.66-.056-.993a11.228 11.228 0 0 1 .348-3.159c.967-3.679 3.935-6.384 5.211-9.943.911-2.511.917-5.198.619-7.903a19.4 19.4 0 0 0-.124-1.005c-.191-1.483-.461-2.971-.697-4.43-.72-4.442-1.001-9.465 1.596-13 1.31-1.815 3.216-2.97 4.582-4.701 1.366-1.731 2.085-4.497.691-6.204a3.107 3.107 0 0 0-.697-.605 3.326 3.326 0 0 0-.882-.411 6.875 6.875 0 0 0-3.935.248c-4.44 1.441-8.35 4.343-11.181 8.297-.231.32-.461.654-.675.992a23.44 23.44 0 0 0-2.417 4.884c-1.349 3.777-1.804 7.94-3.665 11.456a27.3 27.3 0 0 1-3.862 5.21c-.23.267-.472.527-.708.794-2.772 3.098-5.532 6.124-5.903 10.288-.393 4.381 2.142 8.854.9 13.041a7.972 7.972 0 0 1-.77 1.767c-2.193 3.747-7.095 5.405-9.933 8.909a12.138 12.138 0 0 0-1.81 3.086c-.216.49-.404.993-.563 1.507-1.798 5.955-.635 13.387-3.119 19.317-1.591 3.813-4.593 6.736-6.437 10.416-3.912 7.897-1.979 16.811 1.568 24.987z" fill="#676521"/><path d="M326.181 170.055c-2.951 6.386-4.11 13.56-3.334 20.643l.844.067a39.122 39.122 0 0 1 .123-9.683 37.832 37.832 0 0 1 1.979-7.868 38.295 38.295 0 0 1 2.957-6.051.389.389 0 0 0 .118 0c1.905.005 3.81-.096 5.706-.303a50.436 50.436 0 0 0 12.445-3.026 9.193 9.193 0 0 0 0-.968 49.419 49.419 0 0 1-17.769 3.389c.062-.097.124-.194.18-.297 1.394-2.263 2.811-4.532 3.761-7.08.95-2.548 1.124-5.217 1.192-7.868.067-2.65.089-5.446.832-8.067.108-.37.236-.734.382-1.089 2.156.239 4.325.324 6.492.254a46.89 46.89 0 0 0 18.09-4.333c.223-.41.422-.834.596-1.271-.712.351-1.432.684-2.159.999-7.178 3.07-14.93 4.263-22.62 3.48a12.322 12.322 0 0 1 2.766-3.589c2.844-2.602 6.447-4.236 8.876-7.383 1.25-1.582 1.976-3.566 2.063-5.641a14.722 14.722 0 0 0-.337-3.504 35.308 35.308 0 0 0 8.87-3.461c0-.327-.051-.66-.056-.993a34.594 34.594 0 0 1-8.994 3.522 77.035 77.035 0 0 0-.742-2.808c-.652-2.366-1.338-4.841-1.052-7.34.287-2.5 1.648-4.691 3.013-6.657.366-.539.743-1.072 1.125-1.61a.328.328 0 0 0 .264 0 45.147 45.147 0 0 0 12.564-6.1 19.4 19.4 0 0 0-.124-1.005 44.461 44.461 0 0 1-11.996 6.022 19.323 19.323 0 0 0 1.9-3.632c1.006-2.656 1.276-5.543 1.574-8.363.199-2.809.777-5.57 1.715-8.2a25.93 25.93 0 0 1 3.749-6.41 53.522 53.522 0 0 1 8.533-8.375 3.326 3.326 0 0 0-.882-.411l-.242.2c-3.755 3.14-7.409 6.541-10.028 10.832a24.584 24.584 0 0 0-2.317 4.944 26.233 26.233 0 0 1-2.501-7.443c-.231.32-.461.653-.675.992a26.947 26.947 0 0 0 2.738 7.462.451.451 0 0 0 .09.115c-.086.307-.165.615-.236.926-.641 2.802-.765 5.689-1.158 8.533a19.674 19.674 0 0 1-2.727 7.952c-1.309 2.088-2.883 3.988-3.985 6.221a12.694 12.694 0 0 0-.742 1.888 42.501 42.501 0 0 1-3.935-11.546c-.231.266-.472.526-.708.792a43.43 43.43 0 0 0 4.193 11.783.535.535 0 0 0 .141.158 12.213 12.213 0 0 0-.13 3.849c.304 2.553 1.187 4.968 1.766 7.449.562 2.361.803 4.842-.124 7.123a10.871 10.871 0 0 1-2.946 3.916.155.155 0 0 0-.056-.055c-3.282-2.77-6.049-6.183-8.157-10.058a7.446 7.446 0 0 1-.461.914c2.108 3.743 4.818 7.051 8.005 9.768l-.033.03c-3.025 2.481-6.746 4.315-8.882 7.867-2.631 4.327-1.855 9.683-2.372 14.627a55.346 55.346 0 0 1-2.997-5.041 58.391 58.391 0 0 1-5.43-15.256 14.1 14.1 0 0 0-.562 1.507c1.683 7.185 4.648 13.949 8.73 19.916a.77.77 0 0 0 .101.097c-.922 5.549-4.711 9.665-7.004 14.548zM64.77 189.034c-.35.514-1.254.605-3.047.06a100.334 100.334 0 0 1-19.49-7.952l-1.197-.647c-.742-.418-1.479-.835-2.215-1.271a103.41 103.41 0 0 1-14.374-10.155l-1.236-1.059c-.281-.242-.563-.49-.85-.744-4.948-4.363-9.315-9.438-12.98-15.081-.258-.406-.505-.817-.752-1.211-2.811-4.744-4.818-9.864-5.06-14.936 0-.351-.028-.708-.028-1.059-.03-3.362.838-6.662 2.503-9.507 1.665-2.845 4.055-5.114 6.885-6.536.264-.139.534-.278.81-.406a19.002 19.002 0 0 1 1.871-.78 20.97 20.97 0 0 1 6.521-1.211h.888c4.372.124 8.637 1.483 12.367 3.94.276.17.563.351.821.539 4.037 2.82 7.432 6.582 9.933 11.008.045.067.079.139.118.206l.484.871c3.243 6.052 5.593 12.479 7.594 19.075l.49 1.634c1.967 6.7 3.636 13.52 5.587 20.183 1.051 3.589 2.18 7.153 3.485 10.645.45 1.053.798 2.152 1.04 3.28.082.381.022.781-.169 1.114z" fill="#3E3E15"/><path d="M66.922 190.94a211.002 211.002 0 0 1-10.63-9.943 82.772 82.772 0 0 1-15.256-.502c-.742-.418-1.479-.835-2.215-1.271a82.359 82.359 0 0 0 16.555.865 207.09 207.09 0 0 1-3.176-3.28 186.833 186.833 0 0 1-6.544-7.262h-.078c-2.47.077-4.938.109-7.404.097a177.523 177.523 0 0 1-13.727-.605l-1.237-1.059c7.204.622 14.435.824 21.66.605a219.478 219.478 0 0 1-10.018-12.709.45.45 0 0 1-.135.03c-2.17 0-4.345-.09-6.515-.254a88.362 88.362 0 0 1-18.82-3.534c-.259-.406-.506-.817-.754-1.21 1.2.383 2.403.736 3.61 1.059a87.217 87.217 0 0 0 21.923 2.983 226.783 226.783 0 0 1-4.784-6.863 227.36 227.36 0 0 1-2.625-4.03.38.38 0 0 1-.173.093.361.361 0 0 1-.193-.008 124.426 124.426 0 0 1-6.082-1.634 113.984 113.984 0 0 1-16.757-6.536c0-.351-.028-.708-.028-1.059.832.411 1.686.799 2.495 1.21a111.762 111.762 0 0 0 20.148 7.008 224.331 224.331 0 0 1-13.25-24.207c.264-.139.534-.279.81-.406a218.27 218.27 0 0 0 7.79 15.1c.338.605.68 1.18 1.024 1.773-.139-6.29-.28-12.576-.422-18.858h.888l.467 19.632a.448.448 0 0 1-.058.241.401.401 0 0 1-.173.165 213.01 213.01 0 0 0 8.399 13.253c.275-2.112.562-4.236.81-6.336.973-7.666 1.948-15.331 2.922-22.997.276.17.562.351.821.539l-.708 5.561-3.064 24.062a.415.415 0 0 1-.067.2 208.169 208.169 0 0 0 7.307 9.913c.315-2.195.671-4.388 1.069-6.578 1.36-7.501 3.169-14.9 5.413-22.15.045.067.079.139.118.206l.483.871a189.058 189.058 0 0 0-6.335 28.468.474.474 0 0 1-.034.079c.624.786 1.243 1.573 1.872 2.348a212.95 212.95 0 0 0 7.381 8.599 284.67 284.67 0 0 1 4.694-20.449l.489 1.634a281.65 281.65 0 0 0-4.379 19.378.422.422 0 0 1-.118.218c2.095 2.3 4.237 4.547 6.425 6.742a.196.196 0 0 1 .045.054 219.845 219.845 0 0 0 8.14 7.74 137.62 137.62 0 0 0 2.625 2.336c.472.37-.185 1.059-.624.678z" fill="#142216"/><path d="m79.919 190.256-6.56.466-.844.067-4.85.345c.15-5.973-5.516-10.76-9.872-14.458-3.935-3.371-8.235-7.631-8.606-12.86a9.193 9.193 0 0 1 0-.968c0-.206.01-.408.033-.605.152-1.876.838-3.674.905-5.556.175-4.678-3.373-8.472-6.79-11.335-2.682-2.233-5.622-4.539-7.308-7.607-.225-.41-.426-.834-.602-1.271-.193-.49-.35-.996-.472-1.513-1.349-5.81 2.496-11.728 3.041-17.55.034-.327.051-.66.057-.993a11.203 11.203 0 0 0-.343-3.159c-.973-3.679-3.935-6.384-5.217-9.943-.91-2.511-.916-5.198-.618-7.903.034-.34.073-.672.123-1.005.197-1.483.461-2.971.698-4.43.719-4.442 1-9.465-1.597-13-1.31-1.815-3.21-2.97-4.581-4.701-1.372-1.731-2.108-4.497-.714-6.21.203-.237.438-.44.697-.605.276-.179.572-.317.882-.411a6.897 6.897 0 0 1 3.935.248c4.438 1.443 8.345 4.344 11.176 8.297.236.32.46.653.674.992a23.415 23.415 0 0 1 2.417 4.884c1.35 3.777 1.805 7.94 3.671 11.456a27.267 27.267 0 0 0 3.856 5.21c.23.267.473.527.709.794 2.771 3.098 5.531 6.124 5.902 10.288.394 4.381-2.142 8.853-.9 13.041a7.973 7.973 0 0 0 .77 1.767c2.199 3.746 7.095 5.405 9.934 8.909a12.153 12.153 0 0 1 1.81 3.086c.213.491.4.994.562 1.507 1.793 5.955.63 13.387 3.114 19.317 1.597 3.813 4.593 6.736 6.442 10.415 3.947 7.904 2.007 16.818-1.534 24.994z" fill="#676521"/><path d="M70.025 170.055c2.954 6.385 4.113 13.56 3.334 20.643l-.844.067c.36-3.219.319-6.476-.123-9.683a37.843 37.843 0 0 0-1.979-7.868c-.81-2.11-1.8-4.136-2.957-6.051a.39.39 0 0 1-.118 0 51.319 51.319 0 0 1-5.706-.303 50.433 50.433 0 0 1-12.445-3.026 9.193 9.193 0 0 1 0-.968 49.42 49.42 0 0 0 17.769 3.389 5.035 5.035 0 0 1-.18-.297c-1.394-2.263-2.81-4.532-3.755-7.08-.944-2.548-1.124-5.217-1.197-7.868-.073-2.65-.085-5.446-.832-8.067a12.836 12.836 0 0 0-.377-1.089 45.577 45.577 0 0 1-6.493.254 46.837 46.837 0 0 1-18.09-4.333c-.224-.41-.425-.834-.6-1.271a47.63 47.63 0 0 0 2.163.999c7.178 3.071 14.931 4.264 22.62 3.48a12.441 12.441 0 0 0-2.77-3.589c-2.845-2.602-6.448-4.236-8.877-7.383-1.25-1.581-1.974-3.566-2.057-5.641a14.948 14.948 0 0 1 .332-3.504 35.304 35.304 0 0 1-8.871-3.461c.034-.327.05-.66.056-.993a34.593 34.593 0 0 0 8.994 3.522c.225-.944.484-1.882.742-2.808.658-2.366 1.338-4.841 1.052-7.34-.287-2.5-1.647-4.691-3.013-6.657a89.088 89.088 0 0 0-1.125-1.61.328.328 0 0 1-.264 0 45.188 45.188 0 0 1-12.564-6.1c.034-.34.073-.672.124-1.005a44.415 44.415 0 0 0 12.002 6.022 19.311 19.311 0 0 1-1.906-3.632c-1.006-2.656-1.27-5.543-1.574-8.363a30.947 30.947 0 0 0-1.709-8.218 25.932 25.932 0 0 0-3.755-6.391 53.54 53.54 0 0 0-8.533-8.376c.276-.179.572-.317.882-.411l.242.2c3.744 3.14 7.415 6.541 10.04 10.832a24.586 24.586 0 0 1 2.316 4.944 26.063 26.063 0 0 0 2.501-7.443c.237.32.461.653.675.992a26.754 26.754 0 0 1-2.738 7.462.293.293 0 0 1-.09.115c.087.307.165.615.236.926.641 2.802.77 5.689 1.164 8.533.33 2.84 1.26 5.56 2.72 7.952 1.31 2.088 2.885 3.988 3.986 6.221.299.605.547 1.237.742 1.888a42.491 42.491 0 0 0 3.935-11.546c.23.266.473.526.709.792a43.414 43.414 0 0 1-4.194 11.783.457.457 0 0 1-.14.158c.246 1.265.29 2.567.129 3.849-.298 2.553-1.186 4.968-1.765 7.449-.562 2.361-.804 4.842.123 7.123a10.886 10.886 0 0 0 2.952 3.916.117.117 0 0 1 .05-.055c3.282-2.77 6.05-6.183 8.157-10.058.133.316.288.621.46.914-2.106 3.743-4.817 7.051-8.004 9.768l.034.03c3.024 2.481 6.745 4.315 8.881 7.867 2.631 4.327 1.861 9.683 2.373 14.627a55.385 55.385 0 0 0 2.996-5.041 58.346 58.346 0 0 0 5.464-15.238c.213.491.4.994.562 1.507-1.685 7.186-4.652 13.95-8.736 19.916a.73.73 0 0 1-.1.097c.882 5.531 4.67 9.647 6.964 14.53z" fill="#3E3E15"/><path d="M317.046 171.393c-.034.127-.073.26-.113.393l-3.586.944a5.415 5.415 0 0 1-3.131-1.367 3.963 3.963 0 0 1-.897-1.405 4.216 4.216 0 0 1-.261-1.682 9.056 9.056 0 0 1 .528-2.79s-2.985-.792-1.394-3.389c0 0-19.675-27.681-14.486-30.464a1.574 1.574 0 0 1 1.259-.073c5.666 1.816 16.077 29.103 16.077 29.103s3.373.605 1.777 3.371c.022 0 5.913.914 4.227 7.359z" fill="#0E537E"/><path d="M317.046 171.393h-6.83a3.966 3.966 0 0 1-.896-1.405 4.192 4.192 0 0 1-.262-1.681 9.644 9.644 0 0 1 4.25-1.695 3.825 3.825 0 0 0-.853-1.251 3.483 3.483 0 0 0-1.244-.782c.215-.258.363-.572.429-.911a2.122 2.122 0 0 0-.052-1.02 2.14 2.14 0 0 0-.608-.834 1.921 1.921 0 0 0-.904-.419c-3.642-10.684-8.734-20.728-15.111-29.805 5.667 1.816 16.078 29.103 16.078 29.103s3.372.606 1.776 3.371c.022-.03 5.914.884 4.227 7.329z" fill="#BFD4EA" style="mix-blend-mode:multiply"/><path d="M336.462 180.095c-.258-5.7-3.165-10.33-6.813-11.335a6.207 6.207 0 0 0-4.446 0l.247.539c-3.154 1.719-5.284 6.342-5.059 11.656.253 5.604 3.063 10.167 6.622 11.274l-.562.388a4.849 4.849 0 0 0 3.603-.303c3.896-1.041 6.667-6.185 6.408-12.219z" fill="#7197D5"/><path d="M326.822 192.608c4.44-.231 7.8-5.769 7.503-12.369-.296-6.6-4.137-11.763-8.577-11.532-4.441.232-7.8 5.77-7.504 12.37.297 6.6 4.137 11.763 8.578 11.531z" fill="#002638"/><path d="M331.892 183.133c-.31 2.36-1.298 4.556-2.825 6.282-1.527 1.725-3.517 2.893-5.691 3.341a41.435 41.435 0 0 1-13.008.496 54.832 54.832 0 0 1-5.953-.968l-.956-21.182c6.353-2.495 13.212-3.109 19.86-1.779.323.069.632.147.928.236 2.075.62 3.925 1.905 5.304 3.684 1.38 1.78 2.224 3.969 2.42 6.277.1 1.204.073 2.416-.079 3.613z" fill="#25669C"/><path d="M331.892 183.133c-.31 2.36-1.298 4.556-2.825 6.282-1.527 1.725-3.517 2.893-5.691 3.341a41.435 41.435 0 0 1-13.008.496c5.295-.855 10.092-3.839 13.424-8.351a16.425 16.425 0 0 0 2.872-6.052 10.813 10.813 0 0 0-.562-6.706 7.806 7.806 0 0 0-1.85-2.541c2.075.619 3.925 1.904 5.305 3.684 1.38 1.779 2.224 3.969 2.419 6.277.096 1.19.067 2.387-.084 3.57z" fill="#BFD4EA" style="mix-blend-mode:multiply"/><path d="M314.685 181.233c-.259-5.707-3.159-10.33-6.808-11.335h-.028a6.228 6.228 0 0 0-4.446 0l.247.539c-3.154 1.724-5.284 6.348-5.059 11.655.253 5.61 3.058 10.174 6.616 11.281l-.562.381a4.81 4.81 0 0 0 3.603-.302c3.924-1.041 6.707-6.185 6.437-12.219z" fill="#002638"/><path d="M312.549 181.342c.298 6.603-3.058 12.14-7.499 12.37-1.691.049-3.334-.6-4.593-1.816a9.867 9.867 0 0 1-1.287-1.446 11.903 11.903 0 0 1-.984-1.586 15.725 15.725 0 0 1-1.608-5.367 19.92 19.92 0 0 1-.106-1.32c-.298-6.602 3.058-12.14 7.504-12.37a5.63 5.63 0 0 1 1.315.085 7.04 7.04 0 0 1 3.688 2.13c.41.424.786.883 1.124 1.374.388.576.734 1.183 1.035 1.816a16.436 16.436 0 0 1 1.411 6.13z" fill="#25669C"/><path d="M310.772 180.797c.253 5.629-2.585 10.99-6.374 11.19-3.789.2-7.044-3.825-7.308-9.459-.264-5.634 2.591-10.73 6.38-10.929 3.789-.2 7.044 3.57 7.302 9.198z" fill="#7197D5"/><g style="mix-blend-mode:soft-light" opacity=".5" fill="#fff"><path d="m308.99 172.028-10.793 16.843a15.713 15.713 0 0 1-1.607-5.368l8.713-13.605a7.04 7.04 0 0 1 3.687 2.13zM311.138 175.242l-10.681 16.66a9.867 9.867 0 0 1-1.287-1.446l10.922-17.054c.393.583.743 1.198 1.046 1.84z"/></g><path d="M267.831 170.751v10.603a7.034 7.034 0 0 0 .354 2.215 31.1 31.1 0 0 1 1.585 10.343h-22.694s1.327-3.238 7.342-5.223a8 8 0 0 0 2.895-1.743l2.215-2.027a4.863 4.863 0 0 0 1.327-2.063 5.193 5.193 0 0 0 .191-2.5l-1.597-9.592 8.382-.013z" fill="#BD5331"/><path d="m268.702 185.294-5.503 2.826-4.053-2.868-1.833 1.676a8 8 0 0 1-2.895 1.743c-6.015 1.985-7.342 5.223-7.342 5.223h22.694a30.45 30.45 0 0 0-1.068-8.6z" fill="#D97C2F"/><path d="m286.128 170.77 1.973 11.891a6.009 6.009 0 0 1 0 1.816l-1.304 9.471h17.376s-.237-2.796-1.063-3.558c-.826-.763-3.187-2.675-3.187-2.675l-3.547-3.97a5.408 5.408 0 0 1-1.349-3.299l-.563-9.682-8.336.006z" fill="#BD5331"/><path d="M296.556 183.89a8.045 8.045 0 0 0-3.319.957 8.645 8.645 0 0 0-2.696 2.293l-2.563-1.447-1.124 8.237h17.375s-.236-2.796-1.062-3.559c-.827-.762-3.188-2.675-3.188-2.675l-3.423-3.806z" fill="#D97C2F"/><path d="m259.185 44.487 7.454-8.582 9.039-.054 5.048 8.66-4.295 28.691-16.824-.012-.422-28.703z" fill="#D4B5A5"/><path d="m264.975 45.419 5.177-4.642 6.138 6.494M270.152 42.974l-3.322 27.481" stroke="#fff" stroke-width=".46" stroke-miterlimit="10"/><path d="m285.212 87.805 13.941 84.314-15.959-.018-16.381-75.593 4.857 76.537-16.133-.012-4.475-88.852 7.347-10.845 23.149.66 3.654 13.81z" fill="#142216"/><path d="m285.212 87.805-3.654-13.81-23.149-.66-7.347 10.846.112 2.214c5.02.11 21.564.926 34.909 6.694l-.871-5.284z" fill="#215681" style="mix-blend-mode:multiply" opacity=".57"/><path d="m266.673 96.544-1.709-7.292.005-.03 1.203-14.168.282.025-1.203 14.149 1.697 7.244-.275.072z" fill="#F7EEDF"/><path d="m259.944 90.68 15.189.012" stroke="#BFD4EA" stroke-miterlimit="10" style="mix-blend-mode:multiply"/><path d="m265.088 87.8-.866-12.727.281-.019.871 12.721-.286.024zM260.36 173.045l-4.183-92.508.287-.018 4.182 92.508-.286.018zM291.744 172.137l-15.453-91.563.275-.055 15.459 91.564-.281.054z" fill="#F7EEDF"/><path d="M280.164 72.077h-22.182v3.806h22.182v-3.806z" fill="#1B2536"/><path d="M269.624 12.957a9.773 9.773 0 0 1 4.87 2.457c1.386 1.28 2.423 2.94 3 4.805.708 2.052.838 4.152 2.518 5.447a4.402 4.402 0 0 1 1.452 1.827c.32.74.446 1.56.364 2.373-.074.65.004 1.31.228 1.918a3.912 3.912 0 0 0 1.054 1.567h-24.684s1.372-2.239 1.125-4.145c-.248-1.906-1.125-3.201-.484-5.156.641-1.955 1.462-2.838.27-4.485-1.726-2.42.984-8.381 10.287-6.608z" fill="#142216"/><path d="M268.837 17.302c0 .823.646 5.531 4.193 7.383l.264 2.639 2.384 8.527-5.588 4.418-3.451-4.364v-3.83c-2.305.223-4.222-1.21-4.368-3.886-.146-2.675-.028-4.992-.737-6.427 0-.018 3.609-.078 7.303-4.46z" fill="#BD5331"/><path d="M270.782 26.991c0 .27-.075.535-.214.76-.14.225-.338.4-.57.504-.233.103-.488.13-.734.077a1.246 1.246 0 0 1-.651-.374 1.4 1.4 0 0 1-.348-.7 1.467 1.467 0 0 1 .073-.79 1.35 1.35 0 0 1 .468-.614c.209-.15.454-.23.705-.23.337 0 .66.143.899.4.238.256.372.604.372.967z" fill="#D65353"/><path d="M267.015 31.996a5.32 5.32 0 0 0 2.284-.68 5.745 5.745 0 0 0 1.82-1.632" stroke="#422424" stroke-width=".46" stroke-miterlimit="10"/><path d="M275.487 25.345c-.624 1.513-2.001 2.324-3.086 1.816-1.085-.509-1.456-2.161-.838-3.668.618-1.507 2.001-2.324 3.081-1.815 1.079.508 1.461 2.16.843 3.667z" fill="#BD5331"/><path d="M272.232 25.418s.399-2.294 2.249-2.742M273.806 24.558l-.281-1.416" stroke="#422424" stroke-width=".46" stroke-miterlimit="10"/><path d="M275.324 26.852c0 .183-.05.363-.145.515a.881.881 0 0 1-.387.34.805.805 0 0 1-.498.052.842.842 0 0 1-.44-.255.987.987 0 0 1-.183-1.011.915.915 0 0 1 .319-.414.819.819 0 0 1 1.086.119.942.942 0 0 1 .248.654z" stroke="#fff" stroke-width=".46" stroke-miterlimit="10"/><path d="m263.997 25.181.286-.447a.648.648 0 0 0-.257-.179.615.615 0 0 0-.305-.033.63.63 0 0 0-.334.176.714.714 0 0 0-.188.345.744.744 0 0 0 .019.4c.043.128.119.24.22.322a.61.61 0 0 0 .711.047.67.67 0 0 0 .255-.29.74.74 0 0 0 .065-.395v-.079l-.472.134zM268.011 24.498l.281-.448a.65.65 0 0 0-.257-.183.599.599 0 0 0-.305-.035.636.636 0 0 0-.34.175.717.717 0 0 0-.192.348.752.752 0 0 0 .018.405c.043.13.12.244.222.327a.615.615 0 0 0 .72.046c.111-.07.2-.173.257-.296a.749.749 0 0 0 .062-.4s0-.048-.028-.073l-.438.134z" fill="#1B2536"/><path d="M265.464 25.042v1.368c0 .617.663.956 1.399.43M265.683 28.05c.597.178 1.23.158 1.816-.058a3.093 3.093 0 0 0 1.467-1.152M268.482 26.543l.748.49" stroke="#422424" stroke-width=".46" stroke-miterlimit="10"/><path d="M266.499 22.464s1.613-.569 2.737-.139M262.794 23.305a2.717 2.717 0 0 1 2.153-.254" stroke="#732727" stroke-width=".97" stroke-linecap="round" stroke-linejoin="round"/><path d="m275.678 35.85-5.43 35.87a10.616 10.616 0 0 0 .326 4.642l2.147 7.153c.085.28.227.537.416.751.188.214.419.38.674.486a1.726 1.726 0 0 0 1.58-.13l10.625-6.596-4.604-7.54 6.099-23.149a7.081 7.081 0 0 0-.38-4.756c-.671-1.479-1.83-2.636-3.251-3.244l-8.202-3.486z" fill="#324B85"/><path d="m279.079 70.812-5.616 5.078M276.482 37.176l.512.841a8.99 8.99 0 0 1 1.275 4.345 9.051 9.051 0 0 1-.989 4.43l-.989 1.913 1.124 3.516a6.45 6.45 0 0 1-.337 4.666l-5.993 12.709" stroke="#1B2536" stroke-width=".46" stroke-miterlimit="10"/><path d="m281.412 70.467-7.089 14.385c.379.043.76-.044 1.091-.248l10.624-6.596-4.626-7.541zM281.575 52.687l.747 14.337 2.704-10.276-3.451-4.061z" fill="#1B2536"/><path d="m276.263 84.066 7.257 1.736-4.447-5.253-2.81 3.516z" fill="#BD5331"/><path d="M266.639 35.905 262.293 81.9a2.619 2.619 0 0 1-.767 1.635 2.274 2.274 0 0 1-1.588.659h-10.714s4.266-11.081 7.729-17.181l-.09-3.329-5.025 5.695c-.96 1.088-2.258 1.76-3.647 1.888a5.413 5.413 0 0 1-3.892-1.192c-1.159-.93-1.946-2.3-2.202-3.832a6.516 6.516 0 0 1 .825-4.417l10.877-18.113c1.23-2.049 3.025-3.632 5.133-4.527l7.707-3.28z" fill="#324B85"/><path d="M266.06 36.626c-1.242 1.997-4.57 5.004-2.001 11.256-2.665 5.053-3.199 11.873-1.26 20.231M251.427 66.08l.979-9.38" stroke="#1B2536" stroke-width=".46" stroke-miterlimit="10"/><path d="m269.613 65.105-16.876-.012-8.274-25.635 16.869.012 8.281 25.635z" fill="#F0F0F0"/><path d="m280.574 51.985 7.73 14.7-9.231 13.864 6.139 7.262 12.862-12.847c1.369-1.368 2.283-3.181 2.603-5.162.32-1.98.027-4.02-.833-5.804l-8.595-17.835c-1.432-2.968-3.808-5.282-6.695-6.518l-3.131-1.337-.849 13.677z" fill="#324B85"/><path d="M288.304 66.685 290.4 63.7" stroke="#1B2536" stroke-width=".46" stroke-miterlimit="10"/><path d="M245.328 53.564a10.045 10.045 0 0 1 2.215-2.45A14.212 14.212 0 0 1 249.314 50a.785.785 0 0 1 .52-.084.82.82 0 0 1 .464.266l.843.962a.966.966 0 0 1 .112 1.083l-1.962 3.565s2.907-1.67 3.103-1.526c.197.146-.989 1.423-1.911 2.494a2.44 2.44 0 0 1-1.409.832 2.33 2.33 0 0 1-1.587-.27c-1.214-.695-2.524-1.9-2.159-3.758z" fill="#BD5331"/><path d="m247.054 53.207 3.401-2.844M248.274 54.835l2.811-3.68" stroke="#422424" stroke-width=".46" stroke-miterlimit="10"/><path d="M126.869 139.258H72.606l12.181-14.3a17.867 17.867 0 0 1 5.938-4.572 16.706 16.706 0 0 1 7.143-1.619h3.738c2.458.005 4.888.558 7.137 1.623a17.912 17.912 0 0 1 5.933 4.568l12.193 14.3zm-51.486-1.313h48.703l-10.304-12.104a16.645 16.645 0 0 0-5.527-4.254 15.568 15.568 0 0 0-6.649-1.507h-3.738a15.564 15.564 0 0 0-6.655 1.523 16.665 16.665 0 0 0-5.526 4.274l-10.304 12.068z" fill="#F7EEDF"/><path d="M137.887 135.082h-76.3v28.135h76.3v-28.135z" fill="#324B85"/><path d="M137.887 163.223h-76.3v30.858h76.3v-30.858z" fill="#142216"/><path d="M124.795 156.3h-5.059v25.696h5.059V156.3zM79.739 156.3h-5.06v25.696h5.06V156.3z" stroke="#fff" stroke-width=".66" stroke-miterlimit="10"/><path d="M144.773 194.717c-30.996-18.216-24.515-46.654-24.515-46.654 16.921-.339 24.515-17.55 24.515-17.55s7.589 17.193 24.509 17.55c0 0 6.487 28.438-24.509 46.654z" fill="#B14F18"/><path d="M144.773 191.2c-6.026-3.74-10.911-8.163-14.537-13.168-3.021-4.12-5.238-8.854-6.515-13.919a39.333 39.333 0 0 1-1.006-13.115c6.745-.744 12.991-4.042 18.162-9.64a40.36 40.36 0 0 0 3.896-4.969 39.716 39.716 0 0 0 3.89 4.969c5.177 5.598 11.411 8.896 18.163 9.64a39.311 39.311 0 0 1-.995 13.09c-1.28 5.066-3.498 9.801-6.521 13.92-3.632 5.029-8.517 9.452-14.537 13.192z" fill="#D77C2F"/><path d="M144.773 179.393c7.498 0 13.576-6.543 13.576-14.615 0-8.071-6.078-14.615-13.576-14.615-7.497 0-13.575 6.544-13.575 14.615 0 8.072 6.078 14.615 13.575 14.615z" fill="#B14F18"/><path d="M144.773 177.275c-2.687.001-5.292-1.001-7.369-2.835-2.078-1.835-3.501-4.388-4.025-7.225a13.348 13.348 0 0 1 1.146-8.334c1.266-2.552 3.315-4.552 5.798-5.659a10.843 10.843 0 0 1 7.816-.415c2.571.84 4.793 2.613 6.286 5.019 1.493 2.405 2.165 5.293 1.901 8.172-.263 2.879-1.446 5.57-3.346 7.616a11.526 11.526 0 0 1-3.763 2.716c-1.409.628-2.919.95-4.444.945z" fill="#D77C2F"/><path d="M144.841 156.863c3.715 0 6.239 2.42 6.813 5.967h-4.649a2.534 2.534 0 0 0-.899-1.162 2.268 2.268 0 0 0-1.35-.418c-1.489 0-2.406 1.301-2.406 3.317 0 2.015.917 3.316 2.406 3.316.48.009.95-.137 1.351-.42s.714-.689.898-1.166h4.649c-.562 3.571-3.098 5.967-6.813 5.967-4.312 0-6.954-3.189-6.954-7.697 0-4.509 2.648-7.704 6.954-7.704zM125.711 153.516a.906.906 0 0 1-.134.475.82.82 0 0 1-.357.314.74.74 0 0 1-.459.047.77.77 0 0 1-.405-.235.872.872 0 0 1-.216-.438.924.924 0 0 1 .047-.494.85.85 0 0 1 .295-.382.747.747 0 0 1 .744-.075.788.788 0 0 1 .256.185.9.9 0 0 1 .229.603zM165.566 153.516a.9.9 0 0 1-.133.474.805.805 0 0 1-.356.314.737.737 0 0 1-.458.049.774.774 0 0 1-.406-.234.883.883 0 0 1-.217-.437.92.92 0 0 1 .046-.493.844.844 0 0 1 .291-.383.74.74 0 0 1 .744-.078.763.763 0 0 1 .257.185.856.856 0 0 1 .172.276.91.91 0 0 1 .06.327zM145.56 140.662a.9.9 0 0 1-.133.474.805.805 0 0 1-.356.314.737.737 0 0 1-.458.049.774.774 0 0 1-.406-.234.875.875 0 0 1-.217-.437.92.92 0 0 1 .045-.493.846.846 0 0 1 .292-.383.76.76 0 0 1 .441-.143c.21 0 .412.089.56.249a.89.89 0 0 1 .232.604zM145.56 188.925a.9.9 0 0 1-.133.474.805.805 0 0 1-.356.314.737.737 0 0 1-.458.049.774.774 0 0 1-.406-.234.875.875 0 0 1-.217-.437.92.92 0 0 1 .045-.493.844.844 0 0 1 .292-.382.755.755 0 0 1 .441-.144c.21 0 .412.09.56.25.149.16.232.377.232.603z" fill="#B14F18"/><path d="M252.905 177.759c9.221 0 16.696-8.047 16.696-17.973 0-9.927-7.475-17.974-16.696-17.974-9.22 0-16.695 8.047-16.695 17.974 0 9.926 7.475 17.973 16.695 17.973z" fill="#CC6017"/><path d="M255.733 177.759c9.221 0 16.696-8.047 16.696-17.973 0-9.927-7.475-17.974-16.696-17.974-9.221 0-16.695 8.047-16.695 17.974 0 9.926 7.474 17.973 16.695 17.973z" fill="#EA9B1C"/><path d="M268.073 162.885c1.595-7.346-2.645-14.692-9.468-16.408-6.823-1.716-13.647 2.847-15.241 10.193-1.594 7.346 2.645 14.692 9.468 16.408 6.824 1.716 13.647-2.847 15.241-10.193z" fill="#CC6017"/><path d="M255.733 171.417c5.967 0 10.805-5.207 10.805-11.631s-4.838-11.632-10.805-11.632-10.804 5.208-10.804 11.632c0 6.424 4.837 11.631 10.804 11.631z" fill="#CC6017" style="mix-blend-mode:multiply" opacity=".58"/><path d="M268.392 168.899c0 1.484-.538 2.782-1.616 3.895-1.06 1.096-2.579 1.82-4.558 2.173v2.942h-3.737V175.1a17.93 17.93 0 0 1-3.816-.61c-1.201-.335-2.199-.75-2.994-1.245l2.014-4.558c.883.512 1.873.927 2.968 1.245 1.095.301 2.146.451 3.153.451.866 0 1.484-.08 1.855-.239.371-.176.557-.432.557-.768 0-.389-.247-.68-.742-.875-.477-.194-1.272-.406-2.385-.636-1.431-.3-2.624-.618-3.578-.954a6.265 6.265 0 0 1-2.491-1.696c-.706-.795-1.06-1.863-1.06-3.206 0-1.555.557-2.889 1.67-4.002 1.131-1.113 2.747-1.819 4.849-2.12v-2.888h3.737v2.835c2.12.195 3.913.707 5.379 1.537l-1.881 4.532c-1.82-.919-3.542-1.378-5.168-1.378-1.607 0-2.411.389-2.411 1.166 0 .371.238.654.715.848.477.177 1.264.371 2.359.583 1.413.265 2.606.574 3.577.927a6.017 6.017 0 0 1 2.518 1.67c.724.777 1.086 1.837 1.086 3.18z" fill="#EA9B1C"/><path d="M88.492 97.167c8.545-3.732 12.661-14.214 9.195-23.412-3.466-9.199-13.202-13.631-21.746-9.9-8.545 3.732-12.662 14.214-9.196 23.412 3.466 9.2 13.203 13.631 21.747 9.9z" fill="#CC6017"/><path d="M96.847 93.228c6.52-7.019 6.52-18.4 0-25.419-6.52-7.019-17.091-7.019-23.611 0-6.52 7.02-6.52 18.4 0 25.42 6.52 7.018 17.09 7.019 23.61 0z" fill="#EA9B1C"/><path d="M85.04 94.178c7.007 0 12.687-6.115 12.687-13.659 0-7.544-5.68-13.659-12.687-13.659s-12.688 6.115-12.688 13.66c0 7.543 5.68 13.658 12.688 13.658z" fill="#CC6017"/><path d="M86.755 92.009c5.891-1.023 9.897-6.993 8.947-13.335-.95-6.342-6.496-10.654-12.387-9.632-5.89 1.023-9.896 6.993-8.946 13.335.95 6.342 6.495 10.654 12.386 9.632z" fill="#CC6017" style="mix-blend-mode:multiply" opacity=".58"/><path d="M89.127 79.997c0 .56-.203 1.05-.61 1.47-.4.414-.973.687-1.72.82v1.11h-1.41v-1.06c-.5-.026-.98-.103-1.44-.23a4.37 4.37 0 0 1-1.13-.47l.76-1.72c.334.194.707.35 1.12.47.414.114.81.17 1.19.17.327 0 .56-.03.7-.09.14-.066.21-.163.21-.29 0-.146-.093-.256-.28-.33-.18-.073-.48-.153-.9-.24-.54-.113-.99-.233-1.35-.36a2.368 2.368 0 0 1-.94-.64c-.266-.3-.4-.703-.4-1.21 0-.586.21-1.09.63-1.51.427-.42 1.037-.686 1.83-.8v-1.09h1.41v1.07c.8.074 1.477.267 2.03.58l-.71 1.71c-.686-.346-1.336-.52-1.95-.52-.606 0-.91.147-.91.44 0 .14.09.247.27.32.18.067.477.14.89.22a8.7 8.7 0 0 1 1.35.35c.367.127.684.337.95.63.274.294.41.694.41 1.2zM326.226 14.421h17.24v10.016c0 2.26-.834 4.427-2.318 6.025-1.484 1.598-3.497 2.496-5.597 2.496h-1.388c-2.099 0-4.112-.898-5.597-2.496-1.484-1.598-2.318-3.765-2.318-6.025V14.421h-.022z" fill="#EA9B1C"/><path d="m330.942 22.597 2.586 2.784 5.194-5.592" stroke="#fff" stroke-miterlimit="10"/><path d="M326.226 61.274h17.24V71.29c0 2.26-.834 4.427-2.318 6.025-1.484 1.598-3.497 2.496-5.597 2.496h-1.388c-2.099 0-4.112-.898-5.597-2.496-1.484-1.598-2.318-3.765-2.318-6.025V61.274h-.022z" fill="#CC6017"/><path d="M334.899 74.115c-.941 0-1.785-.198-2.533-.595a4.385 4.385 0 0 1-1.751-1.65c-.419-.713-.629-1.518-.629-2.413 0-.895.21-1.694.629-2.397a4.412 4.412 0 0 1 1.734-1.65c.748-.396 1.598-.594 2.55-.594.895 0 1.677.181 2.346.544a3.52 3.52 0 0 1 1.53 1.564l-1.632.952a2.509 2.509 0 0 0-.986-.935 2.568 2.568 0 0 0-1.275-.323c-.793 0-1.451.26-1.972.782-.521.51-.782 1.195-.782 2.057 0 .861.255 1.553.765 2.074.521.51 1.184.765 1.989.765.465 0 .89-.102 1.275-.306a2.64 2.64 0 0 0 .986-.952l1.632.952a3.715 3.715 0 0 1-1.547 1.58c-.669.364-1.445.545-2.329.545zM326.226 37.66h17.24v10.016c0 2.26-.834 4.427-2.318 6.025-1.484 1.598-3.497 2.496-5.597 2.496h-1.388c-2.099 0-4.112-.898-5.597-2.496-1.484-1.598-2.318-3.765-2.318-6.025V37.66h-.022z" fill="#EA9B1C"/><path d="M335.029 41.297h-.388c-1.242 0-2.249 1.084-2.249 2.421v1.658c0 1.337 1.007 2.421 2.249 2.421h.388c1.242 0 2.248-1.084 2.248-2.42v-1.659c0-1.337-1.006-2.42-2.248-2.42z" stroke="#fff" stroke-width="3" stroke-miterlimit="10"/><path d="M337.485 43.688h-5.307c-.953 0-1.725.832-1.725 1.858v4.121c0 1.026.772 1.858 1.725 1.858h5.307c.953 0 1.726-.832 1.726-1.858v-4.121c0-1.026-.773-1.858-1.726-1.858z" fill="#CC6017"/><path d="M334.916 45.867h-.168c-.553 0-1.001.482-1.001 1.077v.181c0 .595.448 1.078 1.001 1.078h.168c.553 0 1.001-.483 1.001-1.078v-.181c0-.595-.448-1.078-1.001-1.078z" fill="#EA9B1C"/><path d="M50.047 52.554c11.27 0 20.406-7.392 20.406-16.51 0-9.117-9.136-16.509-20.406-16.509s-20.405 7.392-20.405 16.51c0 9.117 9.136 16.509 20.405 16.509z" fill="#D6E3A6"/><path d="m56.214 48.33.781 13.683L43.509 48.33h12.705z" fill="#D6E3A6"/><path d="M57.698 28.19H42.39M57.698 32.583H42.39M57.698 36.977H42.39M57.698 41.364H42.39" stroke="#fff" stroke-width=".97" stroke-miterlimit="10"/><path d="M217.778 80.422a.545.545 0 0 1-.398-.177.631.631 0 0 1-.164-.428v-8.896a.63.63 0 0 1 .164-.428.545.545 0 0 1 .398-.177c.149 0 .292.064.397.177a.627.627 0 0 1 .165.428v8.896c0 .16-.059.315-.165.428a.541.541 0 0 1-.397.177z" fill="#B34F18"/><path d="M221.909 75.974h-8.263a.545.545 0 0 1-.398-.177.631.631 0 0 1-.164-.428.63.63 0 0 1 .164-.428.545.545 0 0 1 .398-.177h8.263c.149 0 .292.064.398.177a.63.63 0 0 1 .164.428c0 .16-.059.315-.164.428a.545.545 0 0 1-.398.177zM101.747 50.024a.541.541 0 0 1-.397-.177.627.627 0 0 1-.165-.428v-8.872c0-.16.059-.314.165-.428a.541.541 0 0 1 .397-.177c.149 0 .292.064.398.177a.63.63 0 0 1 .164.428v8.896a.621.621 0 0 1-.172.413.543.543 0 0 1-.39.168z" fill="#B34F18"/><path d="M105.868 45.576h-8.264a.543.543 0 0 1-.397-.177.63.63 0 0 1-.165-.428c0-.16.06-.314.165-.428a.543.543 0 0 1 .397-.177h8.264c.149 0 .292.063.397.177a.632.632 0 0 1 .165.428c0 .16-.06.314-.165.428a.541.541 0 0 1-.397.177zM317.743 103.534a.543.543 0 0 1-.397-.177.63.63 0 0 1-.165-.428v-8.884c0-.16.059-.314.165-.428a.541.541 0 0 1 .397-.177c.149 0 .292.064.398.177a.63.63 0 0 1 .164.428v8.896a.63.63 0 0 1-.168.42.543.543 0 0 1-.394.173z" fill="#B34F18"/><path d="M321.875 99.08h-8.263a.555.555 0 0 1-.315-.213.638.638 0 0 1 0-.754.556.556 0 0 1 .315-.213h8.263a.523.523 0 0 1 .475.117c.066.057.12.129.156.21a.638.638 0 0 1-.156.736.523.523 0 0 1-.475.117zM130.158 123.808a.544.544 0 0 1-.398-.178.63.63 0 0 1-.164-.428v-8.884a.642.642 0 0 1 .108-.511.573.573 0 0 1 .196-.168.521.521 0 0 1 .488 0 .57.57 0 0 1 .195.168.625.625 0 0 1 .109.511v8.897a.63.63 0 0 1-.159.409.543.543 0 0 1-.375.184z" fill="#B34F18"/><path d="M134.289 119.36h-8.263a.544.544 0 0 1-.398-.178.63.63 0 0 1-.164-.428c0-.16.059-.314.164-.428a.546.546 0 0 1 .398-.177h8.263c.149 0 .292.064.398.177a.633.633 0 0 1 .164.428.63.63 0 0 1-.164.428.544.544 0 0 1-.398.178zM294.988 10.076a.545.545 0 0 1-.398-.177.63.63 0 0 1-.164-.428V.605a.63.63 0 0 1 .164-.428.545.545 0 0 1 .398-.177c.149 0 .292.064.397.177a.627.627 0 0 1 .165.428v8.896a.628.628 0 0 1-.174.409.543.543 0 0 1-.388.166z" fill="#B34F18"/><path d="M299.12 5.628h-8.264a.541.541 0 0 1-.397-.177.627.627 0 0 1-.165-.428c0-.16.059-.314.165-.428a.541.541 0 0 1 .397-.177h8.264c.149 0 .292.064.397.177a.632.632 0 0 1 .165.428c0 .16-.06.314-.165.428a.541.541 0 0 1-.397.177z" fill="#B34F18"/></svg>