<svg aria-hidden="true" style="position:absolute;width:0;height:0;overflow:hidden" xmlns="http://www.w3.org/2000/svg">
  <defs>
    <symbol id="icon-menu_open" viewBox="0 0 32 32">
      <path d="M6.4 11.733v-2.133h19.2v2.133h-19.2zM6.4 17.067h19.2v-2.133h-19.2v2.133zM6.4 22.4h19.2v-2.133h-19.2v2.133z"></path>
    </symbol>
    <symbol id="icon-menu_close" viewBox="0 0 32 32">
      <path d="M23.733 10.304l-1.504-1.504-5.963 5.963-5.963-5.963-1.504 1.504 5.963 5.963-5.963 5.963 1.504 1.504 5.963-5.963 5.963 5.963 1.504-1.504-5.963-5.963 5.963-5.963z"></path>
    </symbol>
  <symbol id="icon-avatar" viewBox="0 0 32 32">
      <path d="M15.624 0c-8.659 0-15.624 6.965-15.624 15.624s6.965 15.624 15.624 15.624c8.659 0 15.624-6.965 15.624-15.624s-7.059-15.624-15.624-15.624zM15.529 6.306c2.165 0 3.859 1.788 3.859 3.859s-1.694 3.953-3.859 3.953c-2.165 0-3.859-1.788-3.859-3.859s1.694-3.953 3.859-3.953zM20.8 24.847h-10.635c-1.035 0-1.882-0.847-1.882-1.882 0-3.953 3.2-7.247 7.247-7.247s7.247 3.2 7.247 7.247c0 1.035-0.847 1.882-1.976 1.882z"></path>
  </symbol>
<symbol id="icon-arrow" viewBox="0 0 64 32">
<path d="M61.254 3.198c0.002 0.326-0.060 0.649-0.184 0.951s-0.305 0.576-0.535 0.807l-20.244 20.23c-1.151 1.153-2.518 2.068-4.023 2.692s-3.119 0.945-4.748 0.945c-1.63 0-3.243-0.321-4.749-0.945s-2.872-1.539-4.023-2.692l-20.244-20.23c-0.231-0.231-0.414-0.505-0.539-0.807s-0.189-0.625-0.189-0.951c0-0.327 0.064-0.65 0.189-0.951s0.308-0.576 0.539-0.807c0.231-0.231 0.505-0.414 0.807-0.539s0.625-0.189 0.952-0.189c0.327 0 0.65 0.064 0.952 0.189s0.576 0.308 0.807 0.539l20.245 20.23c1.394 1.391 3.283 2.173 5.253 2.173s3.859-0.781 5.253-2.173l20.244-20.23c0.23-0.232 0.505-0.416 0.806-0.542s0.626-0.19 0.953-0.19c0.327 0 0.651 0.065 0.953 0.19s0.576 0.31 0.806 0.542c0.23 0.231 0.411 0.506 0.535 0.807s0.186 0.625 0.184 0.951z"></path>
</symbol>
  <symbol id="icon-search" viewBox="0 0 32 32">
    <path d="M31.448 28.364l-6.437-6.364c1.839-2.364 2.759-5.091 2.759-8.182 0-7.636-6.253-13.818-13.977-13.818-7.54 0-13.793 6.182-13.793 13.818s6.253 13.818 13.977 13.818c2.943 0 5.885-0.909 8.092-2.546l6.437 6.364c0.368 0.364 0.919 0.545 1.471 0.545s1.103-0.182 1.471-0.545c0.736-0.909 0.736-2.364 0-3.091zM13.977 23.273c-5.333 0-9.747-4.364-9.747-9.636s4.414-9.636 9.747-9.636c5.333 0 9.747 4.364 9.747 9.636-0.184 5.455-4.414 9.636-9.747 9.636z"></path>
  </symbol>
<symbol id="icon-star" viewBox="0 0 35 32">
<path d="M17.5 0l3.929 12.092h12.714l-10.286 7.473 3.929 12.092-10.286-7.473-10.286 7.473 3.929-12.092-10.286-7.473h12.714l3.929-12.092z"></path>
</symbol>
  </defs>
</svg>
