<svg width="468" height="329" fill="none" xmlns="http://www.w3.org/2000/svg"><path d="M467.57 103.38c0-47.56-39.62-99.68-88.91-102.83-.86-.06-1.74-.11-2.62-.15-70.66-3.29-76.05 82.9-140 92.62-63.95 9.72-130-36.8-189.48-5.09C-19.14 123-40.52 276 161.36 282.49c161.51 5.19 306.23-37.19 306.21-179.11z" fill="#C0D76F"/><path d="M330.34 76.67h-.06c-1.824.282-3.684.23-5.49-.15a25.011 25.011 0 0 1-5-1.63c-1.56-.68-3-1.45-4.49-2.22l-4.28-2.33a30.446 30.446 0 0 0-8.64-3.39 15.72 15.72 0 0 0-8.88.95 15.43 15.43 0 0 0-7 5.66 16.383 16.383 0 0 0-2.82 8.63v.36c0 1.43.23 2.92.29 4.5a8.324 8.324 0 0 1-1.17 5.09 4.683 4.683 0 0 1-2.16 1.74 3.86 3.86 0 0 1-2.82 0c-.47-.189-.881-.5-1.19-.9a3.245 3.245 0 0 1-.6-1.32 2.863 2.863 0 0 1 .05-1.45c.161-.496.485-.923.92-1.21a.479.479 0 0 1 .737.459.48.48 0 0 1-.167.311 1.62 1.62 0 0 0-.45 1.7 1.905 1.905 0 0 0 1.18 1.4 2.67 2.67 0 0 0 1.94-.12 3.43 3.43 0 0 0 1.54-1.33 7.102 7.102 0 0 0 .79-4.29c-.11-1.55-.46-3.18-.46-4.91a18.273 18.273 0 0 1 2.8-9.73 17.699 17.699 0 0 1 7.73-6.7 18.17 18.17 0 0 1 10.22-1.45 32.902 32.902 0 0 1 9.58 3.35l4.36 2.18c1.45.71 2.88 1.39 4.32 2a21.44 21.44 0 0 0 4.33 1.26 11.9 11.9 0 0 0 4.21 0 1.83 1.83 0 0 1 2.13 1.45 1.82 1.82 0 0 1-1.45 2.09z" fill="#142216"/><path d="M330.34 76.67h-.06a15.29 15.29 0 0 1-5.49-.15 25.011 25.011 0 0 1-5-1.63c-1.56-.68-3-1.45-4.49-2.22l-4.28-2.33a30.446 30.446 0 0 0-8.64-3.39 15.72 15.72 0 0 0-8.88.95 15.43 15.43 0 0 0-7 5.66 16.383 16.383 0 0 0-2.82 8.63 18.491 18.491 0 0 1 3.47-10.6 15.43 15.43 0 0 1 10-6.13c4.15-.58 8.34.72 12.14 2.48 3.8 1.76 7.38 4 11.29 5.52 3.55 1.36 7.53 2.06 11.17 1.1a1.817 1.817 0 0 1-1.41 2.11z" fill="#BFD4EA" style="mix-blend-mode:multiply"/><path d="M329.57 76.67h.05c1.827.281 3.691.23 5.5-.15a25.005 25.005 0 0 0 5-1.63c1.56-.68 3-1.45 4.48-2.22l4.29-2.33A30.44 30.44 0 0 1 357.5 67a15.69 15.69 0 0 1 8.87.95 15.398 15.398 0 0 1 7 5.66 16.383 16.383 0 0 1 2.82 8.63v.36c0 1.43-.22 2.92-.28 4.5a8.324 8.324 0 0 0 1.17 5.09 4.683 4.683 0 0 0 2.16 1.74 3.86 3.86 0 0 0 2.82 0 2.899 2.899 0 0 0 1.19-.9c.297-.39.502-.84.6-1.32.098-.48.081-.978-.05-1.45a2.299 2.299 0 0 0-.86-1.25.479.479 0 0 0-.737.459.48.48 0 0 0 .167.31 1.62 1.62 0 0 1 .45 1.7 1.925 1.925 0 0 1-1.18 1.4 2.67 2.67 0 0 1-1.94-.12 3.43 3.43 0 0 1-1.54-1.33 7.006 7.006 0 0 1-.79-4.29c.11-1.55.46-3.18.46-4.91A18.202 18.202 0 0 0 375 72.5a17.224 17.224 0 0 0-3.36-3.92 17.703 17.703 0 0 0-4.37-2.78 18.14 18.14 0 0 0-10.21-1.45 32.908 32.908 0 0 0-9.58 3.35l-4.36 2.18c-1.45.71-2.88 1.39-4.33 2a21.434 21.434 0 0 1-4.33 1.26 11.84 11.84 0 0 1-4.2 0 1.83 1.83 0 0 0-2.13 1.45 1.821 1.821 0 0 0 1.44 2.08z" fill="#142216"/><path d="M329.57 76.67h.05c1.827.281 3.691.23 5.5-.15a25.011 25.011 0 0 0 5-1.63c1.56-.68 3-1.45 4.48-2.22l4.29-2.33A30.44 30.44 0 0 1 357.5 67a15.691 15.691 0 0 1 8.87.95 15.403 15.403 0 0 1 7 5.66 16.383 16.383 0 0 1 2.82 8.63 18.491 18.491 0 0 0-3.47-10.6 15.432 15.432 0 0 0-10-6.13c-4.15-.58-8.34.72-12.14 2.48-3.8 1.76-7.38 4-11.29 5.52-3.55 1.36-7.53 2.06-11.17 1.1a1.82 1.82 0 0 0 1.45 2.06z" fill="#BFD4EA" style="mix-blend-mode:multiply"/><path d="M327.82 158.48h-.2c-12.61 0-1.25-47.7-1.25-47.7h.35l2-36.63h2.09v36.63s9.32 47.22-2.99 47.7z" fill="#142216"/><path d="M327.82 158.48a63.111 63.111 0 0 0 3.51-22.21 173.028 173.028 0 0 0-2-25.92l.67-35.46h.87v35.9s9.26 47.21-3.05 47.69z" fill="#BFD4EA" style="mix-blend-mode:multiply"/><path d="M334.84 109.32a6.05 6.05 0 1 1-12.1.1 6.05 6.05 0 0 1 12.1-.1z" fill="#D97C2F"/><path d="M334.84 109.32a5.999 5.999 0 0 1-11.21 3.15 6.065 6.065 0 0 0 6.109.1 6.058 6.058 0 0 0 3.091-5.27 5.999 5.999 0 0 0-.89-3.15 6.058 6.058 0 0 1 2.9 5.17z" fill="#BFD4EA" style="mix-blend-mode:multiply"/><path d="m330.75 98.08-3.7.09c-2 0-2 3.16 0 3.11l3.7-.08c2-.05 2.01-3.2 0-3.12zM334.46 74.88a4.512 4.512 0 0 1-5.384 4.434 4.514 4.514 0 0 1-3.549-3.54 4.517 4.517 0 0 1 1.916-4.633 4.512 4.512 0 0 1 7.017 3.739z" fill="#D97C2F"/><path d="M330 77.94a3.06 3.06 0 1 1 3.06-3.06 3.073 3.073 0 0 1-3.06 3.06zm0-5.23a2.177 2.177 0 0 0-2.015 1.348 2.177 2.177 0 0 0 .477 2.377A2.18 2.18 0 1 0 330 72.71z" fill="#142216"/><path d="M351.24 163.27v9l-8.74-.44-37.31-1.83.08-1.27.28-4.31.37-5.74s24-7 43.21 3.39c.71.36 1.42.77 2.11 1.2z" fill="#D97C2F"/><path d="M351.24 165.49v6.79L305.19 170l.36-5.58c7.76.24 35 .83 45.69 1.07z" fill="#FFB549"/><path d="m361.47 180.03-51.03.69-13.34.18.87-12.39 7.3.2 39.89 1.08 6.08.16 8.64.24 1.59 9.84z" fill="#B34F18"/><path d="m361.47 180-51 .69-.32-.84s21.88-1.36 32.38-8a16.095 16.095 0 0 0 2.66-2 15.674 15.674 0 0 0 4-7.74c.71.38 1.42.79 2.11 1.22V170l8.64.24 1.53 9.76z" fill="#BFD4EA" style="mix-blend-mode:multiply"/><path d="M256.28 120.56a.442.442 0 0 1-.445-.502.44.44 0 0 1 .105-.228l23.25-27.15a.412.412 0 0 1 .33-.16.48.48 0 0 1 .33.15l24.38 27.15a.451.451 0 0 1-.068.588.45.45 0 0 1-.592.012l-24-26.78-22.92 26.77a.447.447 0 0 1-.37.15z" fill="#142216"/><path d="M269.79 119.83h-.15a.443.443 0 0 1-.27-.56l9.74-26.43a.442.442 0 0 1 .818-.029.442.442 0 0 1 .012.339l-9.74 26.42a.425.425 0 0 1-.165.193.424.424 0 0 1-.245.067z" fill="#142216"/><path d="M282.48 139c-.7.04-1.42.06-2.16.06H280c-1.55 0-3-.07-4.37-.2-21.69-2-20.72-19-20.72-19s3-.44 7.79-.9c1.68-.15 3.58-.32 5.64-.46 9.467-.744 18.98-.701 28.44.13 2.85.3 5.64.7 8.31 1.23-.03-.01 1 17.91-22.61 19.14z" fill="#EA9B1C"/><path d="M280.52 139c13.56-3.53 14.56-13.85 14.27-20.33 2.84.3 5.64.7 8.31 1.23 0-.05 1.02 17.87-22.58 19.1z" fill="#DBC8AA" style="mix-blend-mode:multiply"/><path d="M278.35 139H278c-1.55 0-3-.07-4.37-.2a18.477 18.477 0 0 1-12.92-19.8c1.67-.15 3.57-.32 5.63-.46a18.31 18.31 0 0 0 2.07 12.46 17.932 17.932 0 0 0 9.94 8z" fill="#fff" style="mix-blend-mode:soft-light"/><path d="M357.29 120.56a.43.43 0 0 1-.4-.236.437.437 0 0 1 .06-.494l23.24-27.15a.453.453 0 0 1 .34-.16.453.453 0 0 1 .33.15l24.38 27.15a.436.436 0 0 1 0 .63.45.45 0 0 1-.63 0l-24-26.78-22.92 26.77a.432.432 0 0 1-.4.12z" fill="#142216"/><path d="M370.79 119.83h-.15a.428.428 0 0 1-.288-.391.423.423 0 0 1 .028-.169l9.73-26.43a.448.448 0 0 1 .231-.25.439.439 0 0 1 .339-.01.452.452 0 0 1 .27.57l-9.74 26.42a.456.456 0 0 1-.42.26z" fill="#142216"/><path d="M383.61 139c-.667.04-1.387.06-2.16.06h-.35c-1.55 0-3-.07-4.37-.2-21.69-2-20.72-19-20.72-19s3-.44 7.79-.9c1.68-.15 3.57-.32 5.64-.46 9.467-.744 18.98-.701 28.44.13 2.84.3 5.64.7 8.31 1.23 0-.01 1.03 17.91-22.58 19.14z" fill="#EA9B1C"/><path d="M383.61 139c13.56-3.53 14.56-13.85 14.27-20.33 2.84.3 5.64.7 8.31 1.23 0-.05 1.03 17.87-22.58 19.1z" fill="#DBC8AA" style="mix-blend-mode:multiply"/><path d="M381.45 139h-.35c-1.55 0-3-.07-4.37-.2A18.512 18.512 0 0 1 363.8 119c1.68-.15 3.57-.32 5.64-.46A18.307 18.307 0 0 0 371.5 131a18.002 18.002 0 0 0 9.95 8z" fill="#fff" style="mix-blend-mode:soft-light"/><path d="M216.11 139.47h-3.39l-12.88 40.51h52.87l12.88-40.51h-49.48z" fill="#142216"/><path d="M239 165.16h-12.61c-2.62 0-4.08-2.13-3.24-4.76l.43-1.35a7.072 7.072 0 0 1 6.26-4.75h12.59c2.62 0 4.07 2.12 3.24 4.75l-.43 1.35a7.095 7.095 0 0 1-6.24 4.76z" stroke="#6E9296" stroke-miterlimit="10"/><path d="m214.22 141.61-11.51 36.18" stroke="#6E9296" stroke-width=".4" stroke-miterlimit="10"/><path d="M241.05 177.79h-78.21v2.19h78.21v-2.19z" fill="#142216"/><path d="M389.39 179.61H78.61v10.54h310.78v-10.54zM378.7 190.15H89.3v130.9h289.4v-130.9z" fill="#576B99"/><path d="M378.7 190.15H89.3l.54 15.25 288.89 13.01-.03-28.26z" fill="#1B2536"/><path d="M116.77 263.46h261.91M116.77 277.63h261.91M116.77 291.8h261.91M116.77 305.96h261.91" stroke="#fff" stroke-miterlimit="10"/><path d="M60.74 257.73c-.25-5.26.38-11-2.63-15.32-1.25-1.79-3-3.14-4.42-4.83-2.87-3.5-3.86-8.25-3.63-12.77.23-4.52 1.55-8.9 2.86-13.23-1.6 4.27.89 8.89 3.29 12.77 1.32 2.13 2.69 4.32 4.76 5.73 2.07 1.41 4.9 2 7.29 3.12 5.63 2.72 8.84 9.12 9 15.37.18 5.39-1.53 11 .44 16.05 2 5.22 12.65 19.86-1.5 16.14-10.32-2.76-15-13.12-15.46-23.03z" fill="#3E3E15"/><path d="M52.92 211.58c-1.55 22 12.87 22.78 13.17 36.57C66.5 266.39 76.24 280.76 82 281" stroke="#A2A34A" stroke-miterlimit="10"/><path d="M73.12 247.15c2.93-5.35 7-10.66 6.62-16.75-.16-2.53-1.11-4.94-1.46-7.45-.74-5.19 1.14-10.48 4.08-14.82 2.94-4.34 6.9-7.89 10.81-11.38-4.16 3.26-4.47 9.34-4.43 14.62 0 2.9.07 5.9 1.26 8.54 1.26 2.8 3.67 4.91 5.34 7.48 3.94 6.08 3.27 14.36-.29 20.66-3.07 5.44-8.16 10-9.23 16.15-1.12 6.41.57 27.28-11.21 15.09-8.61-8.93-6.99-22.05-1.49-32.14z" fill="#6B671F"/><path d="M93.17 196.75c-14.78 20.85-1 30.3-9 44.14-10.57 18.3-9.58 38.4-4.06 42.11" stroke="#A2A34A" stroke-miterlimit="10"/><path d="M85.59 254.1c3.75-3.7 8.45-7.07 9.64-12.19.5-2.13.32-4.36.65-6.52.69-4.48 3.56-8.38 7.07-11.23 3.51-2.85 7.66-4.8 11.76-6.71-4.25 1.66-6 6.6-7.3 11-.71 2.4-1.42 4.88-1.09 7.36.33 2.48 1.81 5 2.55 7.52 1.74 6-.88 12.67-5.39 17-3.89 3.73-9.23 6.23-11.65 11.05-2.52 5-6.33 22.68-13 9.66-4.91-9.55-.3-19.98 6.76-26.94z" fill="#3E3E15"/><path d="M114.71 217.45c-17.41 13.54-8.35 24.79-18.41 34.23C83 264.16 78.81 281 82.44 285.46" stroke="#A2A34A" stroke-miterlimit="10"/><path d="m99.44 272.18-5.05 31.71-3.12 19.59H68.86l-6.3-39.5-1.87-11.8h38.75z" fill="#142216"/><path d="m94.39 303.89-3.12 19.59H68.86l-6.3-39.5 31.83 19.91z" fill="#CC6017" style="mix-blend-mode:multiply" opacity=".58"/><path d="M407.26 257.73c.25-5.26-.38-11 2.63-15.32 1.25-1.79 3-3.14 4.42-4.83 2.87-3.5 3.86-8.25 3.63-12.77-.23-4.52-1.55-8.9-2.86-13.23 1.6 4.27-.89 8.89-3.29 12.77-1.32 2.13-2.69 4.32-4.76 5.73-2.07 1.41-4.9 2-7.29 3.12-5.63 2.72-8.84 9.12-9 15.37-.18 5.39 1.53 11-.44 16.05-2 5.22-12.65 19.86 1.5 16.14 10.32-2.76 15-13.12 15.46-23.03z" fill="#3E3E15"/><path d="M415.08 211.58c1.55 22-12.87 22.78-13.17 36.57-.41 18.24-10.15 32.61-15.91 32.85" stroke="#A2A34A" stroke-miterlimit="10"/><path d="M394.88 247.15c-2.93-5.35-7-10.66-6.62-16.75.16-2.53 1.11-4.94 1.46-7.45.74-5.19-1.14-10.48-4.08-14.82-2.94-4.34-6.9-7.89-10.81-11.38 4.16 3.26 4.47 9.34 4.43 14.62 0 2.9-.07 5.9-1.26 8.54-1.26 2.8-3.67 4.91-5.34 7.48-3.94 6.08-3.27 14.36.29 20.66 3.07 5.44 8.16 10 9.23 16.15 1.12 6.41-.57 27.28 11.21 15.09 8.61-8.93 6.99-22.05 1.49-32.14z" fill="#6B671F"/><path d="M374.83 196.75c14.78 20.85 1 30.3 9 44.14 10.57 18.3 9.58 38.4 4.06 42.11" stroke="#A2A34A" stroke-miterlimit="10"/><path d="M382.41 254.1c-3.75-3.7-8.45-7.07-9.64-12.19-.5-2.13-.32-4.36-.65-6.52-.69-4.48-3.55-8.38-7.07-11.23-3.52-2.85-7.66-4.8-11.76-6.71 4.25 1.66 6 6.6 7.3 11 .71 2.4 1.42 4.88 1.09 7.36-.33 2.48-1.81 5-2.55 7.52-1.74 6 .88 12.67 5.39 17 3.89 3.73 9.23 6.23 11.65 11.05 2.52 5 6.33 22.68 13 9.66 4.91-9.55.3-19.98-6.76-26.94z" fill="#3E3E15"/><path d="M353.29 217.45c17.41 13.54 8.35 24.79 18.41 34.23 13.3 12.48 17.49 29.33 13.86 33.78" stroke="#A2A34A" stroke-miterlimit="10"/><path d="m368.56 272.18 5.05 31.71 3.12 19.59h22.41l6.3-39.5 1.87-11.8h-38.75z" fill="#142216"/><path d="m373.61 303.89 3.12 19.59h22.41l6.3-39.5-31.83 19.91z" fill="#CC6017" style="mix-blend-mode:multiply" opacity=".58"/><path d="M235.43 304.15v22.2H332a11.103 11.103 0 0 0 11.1-11.1 11.103 11.103 0 0 0-11.1-11.1h-96.57z" fill="#BD4A2C"/><path d="M235.43 304.15v22.2h86.4a11.103 11.103 0 0 0 11.1-11.1 11.103 11.103 0 0 0-11.1-11.1h-86.4z" fill="#8A2C08"/><path d="M235.57 322.88H322a7.629 7.629 0 1 0 0-15.26h-86.43a.14.14 0 0 0-.14.14v15a.145.145 0 0 0 .047.086.144.144 0 0 0 .093.034z" fill="#fff"/><path d="m322.1 311.69-86.67-.11v-1.14l86.67.11a.555.555 0 0 1 .406.164.554.554 0 0 1 .164.406.57.57 0 0 1-.57.57zM322.1 315.5l-86.67-.1v-1.14l86.67.1a.57.57 0 0 1 .57.57.564.564 0 0 1-.57.57zM322.1 319.49l-86.67-.11v-1.13l86.67.1a.57.57 0 0 1 .57.57.573.573 0 0 1-.164.406.564.564 0 0 1-.406.164z" fill="#DFCAB8"/><path d="M247.18 282.13v22.2h96.61a11.103 11.103 0 0 0 11.1-11.1 11.103 11.103 0 0 0-11.1-11.1h-96.61z" fill="#835F26"/><path d="M247.18 282.13v22.2h86.4a11.103 11.103 0 0 0 11.1-11.1 11.103 11.103 0 0 0-11.1-11.1h-86.4z" fill="#5A3B08"/><path d="M247.18 300.86h86.55a7.623 7.623 0 0 0 7.052-4.709 7.623 7.623 0 0 0 .578-2.921 7.629 7.629 0 0 0-7.63-7.63h-86.55v15.26z" fill="#fff"/><path d="m333.85 293.48-86.67-.1v-1.14l86.68.11a.561.561 0 0 1 .519.779.558.558 0 0 1-.529.351zM333.85 297.47l-86.67-.1v-1.14l86.68.1a.576.576 0 0 1 .397.17.576.576 0 0 1-.187.929.555.555 0 0 1-.22.041zM333.85 289.67l-86.67-.11v-1.14l86.68.11a.566.566 0 0 1 .56.57.57.57 0 0 1-.57.57z" fill="#DFCAB8"/><path d="M239.77 260.12v22.21h96.61a11.113 11.113 0 0 0 10.777-11.105 11.108 11.108 0 0 0-10.777-11.105h-96.61z" fill="#324B85"/><path d="M239.77 260.12v22.21h86.41a11.113 11.113 0 0 0 10.777-11.105 11.108 11.108 0 0 0-10.777-11.105h-86.41z" fill="#13244A"/><path d="M239.78 278.86h86.54a7.643 7.643 0 0 0 7.64-7.63 7.638 7.638 0 0 0-7.64-7.64h-86.54v15.27z" fill="#fff"/><path d="m326.45 267.66-86.67-.11v-1.13l86.67.1a.579.579 0 0 1 .57.57.57.57 0 0 1-.57.57zM326.45 271.48l-86.67-.11v-1.14l86.67.11a.57.57 0 0 1 .57.57.579.579 0 0 1-.57.57zM326.45 275.47l-86.67-.11v-1.14l86.67.11a.57.57 0 0 1 .57.57.579.579 0 0 1-.57.57z" fill="#DFCAB8"/><path d="M260.24 266.46v10.89l-3.41-3.41-3.53 3.53v-11.05l6.94.04z" fill="#BD4A2C"/><path d="M286.33 251.75a31.652 31.652 0 0 1-.65 6.2l-15.78 1.12h-.38L253.74 258a31.652 31.652 0 0 1-.65-6.2c0-11.68 7.71-16.67 10.88-18.18a5.426 5.426 0 0 0 3.44-5.58 5.311 5.311 0 0 0-3.43-5c-3.18-1.51-10.87-6.49-10.88-18.17.012-2.083.23-4.16.65-6.2l15.78-1.12h.38l15.78 1.12a31.49 31.49 0 0 1 .64 6.2c0 11.68-7.7 16.66-10.88 18.17a5.48 5.48 0 0 0-3.44 5.59 5.317 5.317 0 0 0 3.44 5c3.17 1.45 10.86 6.44 10.88 18.12z" fill="#EA9B1C"/><path d="m283.39 201.13-13.67-1-13.68 1a29.446 29.446 0 0 0-.25 3.67 19.008 19.008 0 0 0 1.42 7.48 16.172 16.172 0 0 0 7.93 8.27 8.055 8.055 0 0 1 4.58 5 8.008 8.008 0 0 1 4.58-5 16.193 16.193 0 0 0 8.49-9.8c.586-1.929.876-3.935.86-5.95a27.638 27.638 0 0 0-.26-3.67zm0 47.29a16.199 16.199 0 0 0-9.1-12.42 8.442 8.442 0 0 1-4.05-3.69 7.187 7.187 0 0 1-.53-1.31 8.095 8.095 0 0 1-4.58 5c-2.81 1.33-9.34 5.54-9.35 15.75a27.17 27.17 0 0 0 .26 3.66l13.67 1 13.67-1a27.17 27.17 0 0 0 .26-3.66 20.519 20.519 0 0 0-.26-3.33h.01z" fill="#CC6017" style="mix-blend-mode:multiply" opacity=".52"/><path d="M283.63 251.75a14.401 14.401 0 0 1-.25 3.66l-13.67 1-13.67-1a27.17 27.17 0 0 1-.26-3.66c.92-2.54 3.06-3.16 8.33-6.15s6-8.11 5.6-14.6h.67s-.07.49-.14 1.31a25.617 25.617 0 0 0 .4 7.71 7.269 7.269 0 0 0 2.1 3.88c2 1.83 4.44 1.76 6.74 3 .537.323 1.046.691 1.52 1.1a10.083 10.083 0 0 1 2 1.92c.359.548.576 1.177.63 1.83z" fill="#8A3D12"/><path d="M286.33 204.8H253.1c.012-2.083.23-4.16.65-6.2l15.78-1.12h.38l15.78 1.12a31.49 31.49 0 0 1 .64 6.2z" fill="#CC6017" style="mix-blend-mode:multiply" opacity=".52"/><path d="M285.52 196.42h-31.6a2.11 2.11 0 0 0-2.11 2.11v.51a2.11 2.11 0 0 0 2.11 2.11h31.6a2.11 2.11 0 0 0 2.11-2.11v-.51a2.11 2.11 0 0 0-2.11-2.11z" fill="#EA9B1C"/><path d="M253.1 251.75h33.23a31.652 31.652 0 0 1-.65 6.2l-15.78 1.12h-.38L253.74 258a31.622 31.622 0 0 1-.64-6.25z" fill="#CC6017" style="mix-blend-mode:multiply" opacity=".52"/><path d="M253.91 260.12h31.6a2.11 2.11 0 0 0 2.11-2.11v-.51a2.11 2.11 0 0 0-2.11-2.11h-31.6a2.11 2.11 0 0 0-2.11 2.11v.51a2.11 2.11 0 0 0 2.11 2.11z" fill="#EA9B1C"/><path d="M282.79 210.75a16.19 16.19 0 0 1-8.49 9.8 7.995 7.995 0 0 0-4.58 5 8.052 8.052 0 0 0-4.58-5 16.172 16.172 0 0 1-7.93-8.27c8.85-3.37 19.49-2.93 25.58-1.53z" fill="#8A3D12"/><path d="M211.54 43.52a12.598 12.598 0 0 1-24.957 2.472 12.603 12.603 0 0 1 5.356-12.938A12.6 12.6 0 0 1 211.54 43.52z" fill="#CC6017"/><path d="M209.982 52.424c4.92-4.92 4.92-12.898 0-17.82-4.921-4.92-12.899-4.92-17.82 0-4.92 4.922-4.92 12.9 0 17.82 4.921 4.92 12.899 4.92 17.82 0z" fill="#EA9B1C"/><path d="M207.839 50.281a9.57 9.57 0 1 0-13.536-13.534 9.57 9.57 0 0 0 13.536 13.534z" fill="#CC6017"/><path d="M206.835 49.277a8.15 8.15 0 1 0-11.526-11.526 8.15 8.15 0 0 0 11.526 11.526z" fill="#CC6017" style="mix-blend-mode:multiply" opacity=".58"/><path d="M204.989 44.297c0 .63-.229 1.18-.686 1.652-.45.465-1.094.772-1.933.922v1.248h-1.585v-1.192a7.602 7.602 0 0 1-1.619-.258c-.509-.143-.933-.319-1.27-.529l.854-1.933a5.64 5.64 0 0 0 1.259.528 5.06 5.06 0 0 0 1.338.191c.367 0 .629-.033.787-.1.157-.076.236-.184.236-.327 0-.165-.105-.288-.315-.37-.202-.083-.54-.173-1.012-.27a12.274 12.274 0 0 1-1.517-.405 2.662 2.662 0 0 1-1.057-.72c-.299-.337-.449-.79-.449-1.36 0-.659.236-1.225.708-1.697.479-.472 1.165-.771 2.057-.899v-1.225h1.585v1.203c.899.082 1.659.3 2.281.652l-.798 1.922c-.771-.39-1.502-.585-2.191-.585-.682 0-1.023.165-1.023.495 0 .157.101.277.303.36.202.074.536.157 1.001.247a9.785 9.785 0 0 1 1.517.393 2.55 2.55 0 0 1 1.068.708c.307.33.461.78.461 1.349z" fill="#EA9B1C"/><path d="M327.64 67.23c10.747 0 19.46-8.713 19.46-19.46 0-10.748-8.713-19.46-19.46-19.46-10.748 0-19.46 8.712-19.46 19.46 0 10.747 8.712 19.46 19.46 19.46z" fill="#CC6017"/><path d="M330.94 67.23c10.747 0 19.46-8.713 19.46-19.46 0-10.748-8.713-19.46-19.46-19.46-10.747 0-19.46 8.712-19.46 19.46 0 10.747 8.713 19.46 19.46 19.46z" fill="#EA9B1C"/><path d="M344.595 53.385c3.111-7.553-.489-16.198-8.042-19.31-7.552-3.11-16.197.49-19.309 8.042-3.111 7.553.489 16.198 8.042 19.309 7.552 3.111 16.197-.489 19.309-8.041z" fill="#CC6017"/><path d="M330.94 60.37c6.959 0 12.6-5.641 12.6-12.6s-5.641-12.6-12.6-12.6-12.6 5.641-12.6 12.6 5.641 12.6 12.6 12.6z" fill="#CC6017" style="mix-blend-mode:multiply" opacity=".58"/><path d="M336.98 48.98c0 .973-.353 1.823-1.059 2.553-.694.717-1.69 1.192-2.986 1.423v1.927h-2.448v-1.84a11.745 11.745 0 0 1-2.5-.4c-.787-.22-1.44-.491-1.961-.815l1.319-2.986a8.696 8.696 0 0 0 1.944.816 7.813 7.813 0 0 0 2.066.295c.567 0 .972-.052 1.215-.157.243-.115.365-.283.365-.503 0-.255-.162-.446-.486-.573-.313-.127-.833-.266-1.562-.416-.938-.197-1.719-.406-2.344-.625a4.11 4.11 0 0 1-1.632-1.111c-.463-.521-.694-1.221-.694-2.101 0-1.018.364-1.892 1.093-2.621.741-.73 1.8-1.192 3.177-1.39v-1.891h2.448v1.857c1.389.127 2.564.463 3.524 1.007l-1.232 2.969c-1.193-.602-2.321-.903-3.386-.903-1.053 0-1.579.255-1.579.764 0 .243.156.428.468.555.313.116.828.243 1.545.382.926.174 1.707.376 2.344.608a3.94 3.94 0 0 1 1.649 1.093c.475.51.712 1.204.712 2.084z" fill="#EA9B1C"/><path d="M50 101.37a.998.998 0 0 1-1-1V85a1 1 0 0 1 2 0v15.34a1.002 1.002 0 0 1-1 1.03z" fill="#B34F18"/><path d="M57.7 93.7H42.36a1 1 0 1 1 0-2H57.7a1 1 0 1 1 0 2zM265.59 60.9a1 1 0 0 1-1-1V44.54a.998.998 0 0 1 1-1 1.001 1.001 0 0 1 1 1v15.34a.994.994 0 0 1-.613.942.996.996 0 0 1-.387.078z" fill="#B34F18"/><path d="M273.26 53.23h-15.34a1 1 0 1 1 0-2h15.34a1 1 0 0 1 0 2zM436.08 203.42a1.003 1.003 0 0 1-1-1v-15.36a.997.997 0 0 1 1-1 .997.997 0 0 1 1 1v15.34a.997.997 0 0 1-1 1.02z" fill="#B34F18"/><path d="M443.75 195.75h-15.34a.997.997 0 0 1-1-1 .997.997 0 0 1 1-1h15.34a1 1 0 1 1 0 2zM400.83 172.77a.634.634 0 0 1-.63-.63v-9.47a.631.631 0 1 1 1.26 0v9.47a.63.63 0 0 1-.63.63z" fill="#B34F18"/><path d="M405.57 168h-9.48a.63.63 0 0 1 0-1.26h9.48a.629.629 0 0 1 .63.63.642.642 0 0 1-.63.63zM66.08 207.35a.631.631 0 0 1-.63-.63v-9.48a.633.633 0 0 1 .63-.63.63.63 0 0 1 .63.63v9.48a.629.629 0 0 1-.63.63z" fill="#B34F18"/><path d="M70.82 202.61h-9.48a.631.631 0 0 1 0-1.26h9.48a.624.624 0 0 1 .445.184.633.633 0 0 1-.204 1.028.624.624 0 0 1-.241.048z" fill="#B34F18"/><path d="M415.19 92.57c18.789 0 34.02-11.444 34.02-25.56 0-14.116-15.231-25.56-34.02-25.56s-34.02 11.444-34.02 25.56c0 14.116 15.231 25.56 34.02 25.56z" fill="#D1B399"/><path d="m404.92 86.03-1.31 21.2 22.48-21.2h-21.17z" fill="#D1B399"/><path d="M402.43 54.85h25.52M402.43 61.65h25.52M402.43 68.45h25.52M402.43 75.25h25.52" stroke="#fff" stroke-width=".97" stroke-miterlimit="10"/><path d="M41.34 173.35c15.884 0 28.76-9.675 28.76-21.61 0-11.935-12.876-21.61-28.76-21.61-15.884 0-28.76 9.675-28.76 21.61 0 11.935 12.876 21.61 28.76 21.61z" fill="#D1B399"/><path d="m50.03 167.81 1.1 17.93-19.01-17.93h17.91z" fill="#D1B399"/><path d="M52.12 141.45H30.55M52.12 147.2H30.55M52.12 152.95H30.55M52.12 158.7H30.55" stroke="#fff" stroke-width=".97" stroke-miterlimit="10"/><path d="M139.08 33.51c-.79-2.5-3.77-3.79-6.67-2.88a6.342 6.342 0 0 0-2.08 1.14 5.857 5.857 0 0 0-4.665-2.32A5.848 5.848 0 0 0 121 31.77a5.88 5.88 0 0 0-9.1.9 5 5 0 0 0-3.33 9.37l3.94 7.18 18.28-4.75 3.3-4.6a6.076 6.076 0 0 0 1.17-.24c2.89-.86 4.6-3.63 3.82-6.12z" fill="#1B2536"/><path d="m196.46 86.73 8.3-9.85s.4-5.46 3-8.41 5.1-4.2 5.6-4c.5.2-3.05 5.95-3.05 5.95a12.44 12.44 0 0 0 5.3-1.95c2-1.55 5.86-5.7 7.06-5.1 1.2.6 2.25 7.2-2.7 12.71a4.921 4.921 0 0 0 2.9-1.06c1.4-1.09 2.25-2.09 2.8-1.54.55.55-1.6 3.75-3 4.6a18.852 18.852 0 0 1-3.15 1.45 14.89 14.89 0 0 1-8.41 4.05l-4.7 10.65-9.95-7.5z" fill="#BD5331"/><path d="M215.78 71.81s4.65-3.37 7-7.46M217.73 74s3.19-3.56 5.25-6.3" stroke="#422424" stroke-width=".46" stroke-miterlimit="10"/><path d="M214.8 70.8a23.018 23.018 0 0 1 3.94 5.06M207.9 78.77s4.13-3.73 9.3-2.91" stroke="#422424" stroke-width=".46" stroke-miterlimit="10"/><path d="m200.11 82.39-3.65 4.34 9.95 7.5 2.96-6.72-9.26-5.12z" fill="#28364F"/><path d="m159.41 78.43 21.89 22.75 16.7-18.1 13.9 12.6s-14.4 23-18.9 30.12c-4.5 7.12-16.41 9.69-25.71-.21-8.65-9.2-22.21-25.11-22.21-25.11l-4.54-30.65 1.86.21a28 28 0 0 1 17.01 8.39z" fill="#324B85"/><path d="m152.46 81.71 8.49 36.93-11.86-13.51 3.37-23.42z" fill="#1B2536"/><path d="m121.69 296.64-.33 10.36a8.66 8.66 0 0 0 4.92 8.07l8.86 4.23a12.602 12.602 0 0 1 5.8 5.63 2.363 2.363 0 0 1-.925 3.127 2.351 2.351 0 0 1-1.145.313c-9.84.06-35.23.21-35 0 .23-.21 2.65-10.43 3.56-14.31.229-.983.276-2 .14-3l-2-14.42h16.12zM195.1 296.64l2 10.37a11.508 11.508 0 0 0 6.7 8.07l9.8 4.23a17.384 17.384 0 0 1 7 5.63 2.158 2.158 0 0 1-.596 3.112 2.158 2.158 0 0 1-1.124.328c-10.1.07-34.77.21-34.58 0 .19-.21.34-10.43.39-14.31a8.524 8.524 0 0 0-.52-3L179 296.64h16.1z" fill="#BD5331"/><path d="m158.8 147.8 41.21 153.64H174.8L128.94 168.2l-3.15 133.24h-23.21L96 151.07l40.69-18.97 22.11 15.7z" fill="#142216"/><path d="m160.29 153.37-63.38 18.28-.91-20.58 40.69-18.97 22.11 15.7 1.49 5.57z" fill="#215681" style="mix-blend-mode:multiply" opacity=".57"/><path d="m132.788 143.401-1.016.321 49.062 155.363 1.016-.321-49.062-155.363z" fill="#F7EEDF"/><path d="m135.21 144.76 1.43-4.58 1.83 5a9.003 9.003 0 0 0 8.45 5.9h15l-9.3-38.78-.11-30.58A11.842 11.842 0 0 0 142 70l-13.42-1.52h-15.47l-8.52 1.89a9.676 9.676 0 0 0-7.48 8.016 9.681 9.681 0 0 0 .2 3.854l9.12 35.31s-7.8 22.13-10.43 33.53h30.63a9.001 9.001 0 0 0 8.58-6.32z" fill="#324B85"/><path d="m109.18 94.23-4.03 18.33-3.27-12.66 7.3-5.67z" fill="#1B2536"/><path d="m102.406 151.056-1.069.042 5.908 150.374 1.069-.042-5.908-150.374z" fill="#F7EEDF"/><path d="m181.3 101.18-8 7.91" stroke="#1B2536" stroke-width=".46" stroke-miterlimit="10"/><path d="M96 151.07h13.38l-6.75-22.33c-2.37 7.19-5.23 16.26-6.63 22.33z" fill="#1B2536"/><path d="m138.41 113.53 3 5.73a6.303 6.303 0 0 1 .42 4.89L137 138.94" stroke="#1B2536" stroke-width=".46" stroke-miterlimit="10"/><path d="M136.54 122.59a1.45 1.45 0 1 0 0-2.9 1.45 1.45 0 0 0 0 2.9z" stroke="#fff" stroke-width=".46" stroke-miterlimit="10"/><path d="m116.38 179.01-3.84-4.71-2.26-1.56 9.48-8.37 4.78 6.02 1.06 4.29-2.95-2.04-5.34-.57-.93 6.94z" fill="#142216"/><path d="M140.94 324.94a12.598 12.598 0 0 0-5.8-5.63l-8.86-4.23a8.623 8.623 0 0 1-3.1-2.52h-4.26a4.74 4.74 0 0 0-4.74 4.74v.7l-3.6-5.39h-2.94a8.295 8.295 0 0 1-.2 1.48c-.91 3.88-3.32 14.07-3.56 14.31-.24.24 25.15.09 35 0a2.365 2.365 0 0 0 2-1.153c.207-.347.321-.742.331-1.146a2.345 2.345 0 0 0-.271-1.161zM218.88 328.38a2.158 2.158 0 0 0 2.132-2.344 2.149 2.149 0 0 0-.412-1.096 17.384 17.384 0 0 0-7-5.63l-9.8-4.23a11.86 11.86 0 0 1-3.65-2.52h-4.27a3.68 3.68 0 0 0-3.68 4.74l.14.65-4.79-5.39h-2.94c.089.488.129.984.12 1.48-.05 3.88-.21 14.07-.39 14.31-.18.24 24.44.1 34.54.03z" fill="#D97C2F"/><path d="M116.16 46.32s3.05-2.7 2.8-6.3c0 0 4.75.7 6.3-2a5.87 5.87 0 0 0 6.76.5 4.072 4.072 0 0 0 2.2 1.15v7.55s2.4 3.65 1.25 6.8a7.598 7.598 0 0 1-4.1 4.25l.95 8.2h-16.16l.45-16.8-.45-3.35z" fill="#BD5331"/><path d="M122.31 44a1.192 1.192 0 0 0-1.19 1.19c.008.116.031.23.07.34l.87-.22-.61.69a1.194 1.194 0 0 0 1.074.362 1.191 1.191 0 0 0 .788-1.832 1.193 1.193 0 0 0-1.002-.53zM129.72 44a1.188 1.188 0 0 0-1.19 1.19.991.991 0 0 0 .07.34l.87-.22-.61.69a1.194 1.194 0 0 0 1.075.362 1.192 1.192 0 0 0 .982-1.28A1.188 1.188 0 0 0 129.72 44z" fill="#1B2536"/><path d="M126.86 44.09v1.46c.001.563.161 1.114.46 1.59l.51.82a.61.61 0 0 1-.43.92l-1.46.21" stroke="#422424" stroke-width=".46" stroke-miterlimit="10"/><path d="M120.5 42a5 5 0 0 1 3.64 0M127.55 42a5 5 0 0 1 3.64 0" stroke="#422424" stroke-width=".73" stroke-miterlimit="10"/><path d="M128.53 50.21h-5s.74 4.72 2.43 4.61c1.69-.11 2.57-4.61 2.57-4.61z" fill="#422424"/><path d="M125.61 52.24c-.529.004-1.057.044-1.58.12.39 1.23 1 2.52 1.91 2.46.91-.06 1.49-1.21 1.93-2.35a11.607 11.607 0 0 0-2.26-.23z" fill="#943232"/><path d="M128.53 58.61c-3 1-8.37.22-10.62-3" stroke="#422424" stroke-width=".46" stroke-miterlimit="10"/><path d="M113.92 63.87h17.21a1.528 1.528 0 0 1 1.51 1.33l.65 4.87 3.4 40.22L112 70.35l.38-5.07a1.528 1.528 0 0 1 1.54-1.41z" fill="#FFB549"/><path d="M113.63 70s10.81 2 18.39 0" stroke="#1B2536" stroke-width=".46" stroke-miterlimit="10"/><path d="m108.78 157 3.2 4.1s6.4 2 8.65 3.1 4.15 5.86 4.15 5.86 1.65 4.35 1.05 4.65c-.6.3-2.3-3-2.3-3l-2.95-2.6.75 5.67s.38 4.64-.1 4.83a1.729 1.729 0 0 1-1.52 0 5.278 5.278 0 0 1-3.33-.55c-.6-.55-2.65-5.2-2.65-5.2l-2.8-2.9s-5.5-1.05-6-4.06l-3.05-3.9 6.9-6z" fill="#BD5331"/><path d="M118.14 169.63a29.848 29.848 0 0 1 1.62 9.34M115.82 172.07s2.06 4.09 2.32 6.9" stroke="#422424" stroke-width=".46" stroke-miterlimit="10"/><path d="m110.04 158.62-6.1 6.98-2.06-2.6 6.9-6 1.26 1.62z" fill="#28364F"/><path d="m102.65 70.79 5.13-1.14 2 23.73L92.58 126l19.3 30.71-11.8 8.9s-24.46-22.77-29.21-32.71c-5-10.48 11.34-39.77 19.54-53.32a19.1 19.1 0 0 1 12.24-8.79z" fill="#324B85"/><path d="m87.08 117.24 5.5 8.75M135.79 70.41l4.65 3.62a3.108 3.108 0 0 1 1.05 3.43L139 85.08l5 4.26a3.107 3.107 0 0 1 1 3.32l-6.56 20.87-22.69-17.44a3.13 3.13 0 0 1-.86-3.93l3-5.78-9.71-7.13a3.125 3.125 0 0 1-1.26-2.2 3.127 3.127 0 0 1 .79-2.41l3.45-3.8" stroke="#1B2536" stroke-width=".46" stroke-miterlimit="10"/><path d="m133.35 70.84.6 35.01 2.74 4.44-3.34-39.45z" fill="#1B2536"/><path d="M111.25 51.46a3.922 3.922 0 0 0 6.026-.657c.424-.65.646-1.41.637-2.186a3.916 3.916 0 0 0-2.46-3.595 3.921 3.921 0 0 0-4.203 6.438z" fill="#BD5331"/><path d="M111.54 47.76c1-2 3.41-2.2 5.08.82M113.82 48.81l.34-2.47" stroke="#422424" stroke-width=".5" stroke-miterlimit="10"/></svg>